<svg width="400" height="281" viewBox="0 0 400 281" fill="none" xmlns="http://www.w3.org/2000/svg">
<mask id="mask0_214_11" style="mask-type:luminance" maskUnits="userSpaceOnUse" x="69" y="26" width="262" height="225">
<path d="M318.5 26.885H81.5C74.8726 26.885 69.5 32.2576 69.5 38.885V238.885C69.5 245.512 74.8726 250.885 81.5 250.885H318.5C325.127 250.885 330.5 245.512 330.5 238.885V38.885C330.5 32.2576 325.127 26.885 318.5 26.885Z" fill="white"/>
</mask>
<g mask="url(#mask0_214_11)">
<mask id="mask1_214_11" style="mask-type:luminance" maskUnits="userSpaceOnUse" x="69" y="26" width="262" height="57">
<path d="M69.5 26.885H330.5V82.885H69.5V26.885Z" fill="white"/>
</mask>
<g mask="url(#mask1_214_11)">
<path d="M330.5 81.885H69.5V83.885H330.5V81.885Z" fill="#E1E4FE"/>
</g>
<g clip-path="url(#clip0_214_11)">
<path d="M97.4997 69.6542C105.657 69.6542 112.269 63.0418 112.269 54.885C112.269 46.7281 105.657 40.1157 97.4997 40.1157C89.3429 40.1157 82.7305 46.7281 82.7305 54.885C82.7305 63.0418 89.3429 69.6542 97.4997 69.6542Z" fill="#BBABFF"/>
<path d="M98.9123 42.1555C98.9123 42.2836 98.8085 42.3874 98.6804 42.3874H97.2217C97.1603 42.3872 97.1014 42.3628 97.0579 42.3193C97.0145 42.2758 96.99 42.217 96.9898 42.1555C96.9898 42.0279 97.0941 41.9236 97.2217 41.9236H98.6804C98.8085 41.9236 98.9123 42.0274 98.9123 42.1555ZM99.5742 42.1555C99.5742 42.0274 99.678 41.9236 99.8063 41.9236H102.727C102.788 41.9236 102.847 41.948 102.891 41.9915C102.934 42.035 102.959 42.094 102.959 42.1555C102.959 42.217 102.934 42.276 102.891 42.3195C102.847 42.363 102.788 42.3874 102.727 42.3874H99.8063C99.678 42.3874 99.5742 42.2836 99.5742 42.1555ZM89.3548 44.4325C89.4163 44.4325 89.4753 44.4081 89.5188 44.3646C89.5623 44.3211 89.5867 44.2621 89.5867 44.2006C89.5867 44.1391 89.5623 44.0801 89.5188 44.0366C89.4753 43.9931 89.4163 43.9687 89.3548 43.9687H87.5525C87.3868 44.1196 87.2245 44.2742 87.0658 44.4325H89.3548ZM91.4541 44.2006C91.4541 44.3289 91.3503 44.4327 91.2222 44.4327H90.2707C90.2092 44.4326 90.1503 44.408 90.1068 44.3645C90.0634 44.321 90.0389 44.2621 90.0388 44.2006C90.0388 44.0732 90.1431 43.9687 90.2707 43.9687H91.2222C91.3503 43.9687 91.4541 44.0725 91.4541 44.2006ZM85.2628 60.417H83.8066C83.8699 60.5732 83.9356 60.7276 84.0039 60.8808H85.2626C85.3241 60.8808 85.3831 60.8564 85.4266 60.8129C85.4701 60.7694 85.4945 60.7104 85.4945 60.6489C85.4945 60.5874 85.4701 60.5284 85.4266 60.4849C85.3831 60.4414 85.3241 60.417 85.2626 60.417H85.2628ZM86.3059 60.8808H86.0873C86.0258 60.8808 85.9668 60.8564 85.9233 60.8129C85.8798 60.7694 85.8554 60.7104 85.8554 60.6489C85.8554 60.5874 85.8798 60.5284 85.9233 60.4849C85.9668 60.4414 86.0258 60.417 86.0873 60.417H86.3056C86.3672 60.417 86.4261 60.4414 86.4696 60.4849C86.5131 60.5284 86.5376 60.5874 86.5376 60.6489C86.5376 60.7104 86.5131 60.7694 86.4696 60.8129C86.4261 60.8564 86.3674 60.8808 86.3059 60.8808ZM97.5231 48.5776C97.5231 48.4495 97.6269 48.3457 97.755 48.3457H101.449C101.577 48.3457 101.681 48.45 101.681 48.5776C101.681 48.7052 101.577 48.8097 101.449 48.8097H97.7548C97.6267 48.8097 97.5231 48.7059 97.5231 48.5776ZM97.1629 48.5776C97.1629 48.7057 97.059 48.8097 96.9309 48.8097H95.8214C95.7599 48.8097 95.7009 48.7853 95.6574 48.7418C95.6139 48.6983 95.5895 48.6393 95.5895 48.5778C95.5895 48.5163 95.6139 48.4573 95.6574 48.4138C95.7009 48.3703 95.7599 48.3459 95.8214 48.3459H96.9309C97.059 48.3459 97.1629 48.4497 97.1629 48.5776ZM103.534 61.6599C103.534 61.532 103.638 61.4282 103.766 61.4282H107.46C107.588 61.4282 107.692 61.5325 107.692 61.6601C107.692 61.7877 107.588 61.892 107.46 61.892H103.766C103.638 61.892 103.534 61.7882 103.534 61.6601L103.534 61.6599ZM103.174 61.6599C103.174 61.7882 103.07 61.892 102.942 61.892H101.832C101.771 61.892 101.712 61.8676 101.668 61.8241C101.625 61.7806 101.6 61.7216 101.6 61.6601C101.6 61.5986 101.625 61.5396 101.668 61.4961C101.712 61.4526 101.771 61.4282 101.832 61.4282H102.942C103.07 61.4282 103.173 61.532 103.173 61.6601L103.174 61.6599ZM112.234 55.8884C112.225 56.0453 112.211 56.1999 112.197 56.3522H109.917C109.856 56.3522 109.797 56.3278 109.753 56.2843C109.71 56.2408 109.685 56.1818 109.685 56.1203C109.685 56.0588 109.71 55.9998 109.753 55.9563C109.797 55.9128 109.856 55.8884 109.917 55.8884H112.234ZM109.324 56.121C109.324 56.249 109.22 56.3529 109.092 56.3529H107.983C107.921 56.3529 107.862 56.3285 107.819 56.285C107.775 56.2415 107.751 56.1825 107.751 56.121C107.751 56.0595 107.775 56.0005 107.819 55.957C107.862 55.9135 107.921 55.889 107.983 55.889H109.092C109.22 55.889 109.324 55.9929 109.324 56.121ZM87.8682 52.9841C87.8682 52.856 87.972 52.7522 88.1001 52.7522H91.794C91.9216 52.7522 92.0259 52.8567 92.0259 52.9841C92.0259 53.1117 91.9216 53.2163 91.794 53.2163H88.1001C87.972 53.2163 87.8682 53.1124 87.8682 52.9841ZM87.5077 52.9841C87.5077 53.1124 87.4039 53.2163 87.2758 53.2163H86.1663C86.1047 53.2163 86.0458 53.1918 86.0023 53.1483C85.9588 53.1049 85.9343 53.0459 85.9343 52.9844C85.9343 52.9228 85.9588 52.8639 86.0023 52.8204C86.0458 52.7769 86.1047 52.7524 86.1663 52.7524H87.2758C87.4039 52.7524 87.5077 52.8563 87.5077 52.9841ZM91.8215 68.5207H92.8653C92.9268 68.5207 92.9858 68.4962 93.0293 68.4527C93.0727 68.4092 93.0972 68.3502 93.0972 68.2887C93.0972 68.2272 93.0727 68.1682 93.0293 68.1247C92.9858 68.0813 92.9268 68.0568 92.8653 68.0568H90.8229C91.1499 68.2239 91.483 68.3786 91.8215 68.5207ZM95.8872 68.0568H93.8204C93.7589 68.0568 93.6999 68.0813 93.6564 68.1247C93.6129 68.1682 93.5885 68.2272 93.5885 68.2887C93.5885 68.3502 93.6129 68.4092 93.6564 68.4527C93.6999 68.4962 93.7589 68.5207 93.8204 68.5207H95.8872C96.0148 68.5207 96.1191 68.4161 96.1191 68.2885C96.1191 68.1609 96.0148 68.0568 95.8872 68.0568ZM102.913 51.4756H105.856C105.917 51.4756 105.976 51.5 106.02 51.5435C106.063 51.587 106.088 51.646 106.088 51.7075C106.088 51.769 106.063 51.828 106.02 51.8715C105.976 51.915 105.917 51.9394 105.856 51.9394H102.913C102.852 51.9392 102.793 51.9148 102.75 51.8713C102.706 51.8278 102.682 51.769 102.681 51.7075C102.681 51.5799 102.786 51.4756 102.913 51.4756ZM106.691 51.7075C106.691 51.5794 106.794 51.4756 106.923 51.4756H107.172C107.233 51.4756 107.292 51.5 107.336 51.5435C107.379 51.587 107.404 51.646 107.404 51.7075C107.404 51.769 107.379 51.828 107.336 51.8715C107.292 51.915 107.233 51.9394 107.172 51.9394H106.923C106.794 51.9394 106.691 51.8356 106.691 51.7075ZM107.934 48.5776C107.934 48.4495 108.038 48.3457 108.167 48.3457H108.552C108.614 48.3457 108.673 48.3701 108.716 48.4136C108.76 48.4571 108.784 48.5161 108.784 48.5776C108.784 48.6391 108.76 48.6981 108.716 48.7416C108.673 48.7851 108.614 48.8095 108.552 48.8095H108.167C108.039 48.8095 107.934 48.7057 107.934 48.5776ZM109.63 48.8095H110.962C110.892 48.6536 110.819 48.499 110.744 48.3457H109.63C109.568 48.3457 109.509 48.3701 109.466 48.4136C109.422 48.4571 109.398 48.5161 109.398 48.5776C109.398 48.6391 109.422 48.6981 109.466 48.7416C109.509 48.7851 109.568 48.8095 109.63 48.8095Z" fill="#8474C7"/>
<path d="M105.336 45.6579V63.0364C105.336 63.2031 105.303 63.3682 105.239 63.5222C105.175 63.6762 105.081 63.8162 104.964 63.934C104.846 64.0519 104.706 64.1454 104.552 64.2091C104.398 64.2729 104.233 64.3057 104.066 64.3057H92.1213C91.9545 64.3057 91.7895 64.2729 91.6354 64.2091C91.4814 64.1454 91.3414 64.0519 91.2235 63.934C91.1056 63.8162 91.0121 63.6762 90.9483 63.5222C90.8845 63.3682 90.8516 63.2031 90.8516 63.0364V45.6579C90.8516 45.3213 90.9854 44.9984 91.2235 44.7604C91.4615 44.5224 91.7844 44.3887 92.121 44.3887H104.066C104.403 44.3887 104.725 44.5224 104.963 44.7604C105.201 44.9984 105.336 45.3213 105.336 45.6579Z" fill="#8474C7"/>
<path d="M85.918 64.0435C88.623 67.4598 92.8041 69.6544 97.5003 69.6544C102.196 69.6544 106.378 67.4598 109.083 64.0435H85.918Z" fill="#8474C7"/>
<path d="M104.742 45.6579V63.0364C104.742 63.2031 104.709 63.3682 104.645 63.5222C104.581 63.6762 104.488 63.8162 104.37 63.934C104.252 64.0519 104.112 64.1454 103.958 64.2091C103.804 64.2729 103.639 64.3057 103.472 64.3057H91.5277C91.361 64.3057 91.1959 64.2729 91.0419 64.2091C90.8878 64.1454 90.7479 64.0519 90.63 63.934C90.5121 63.8162 90.4185 63.6762 90.3547 63.5222C90.2909 63.3682 90.258 63.2031 90.258 63.0364V45.6579C90.258 45.4912 90.2909 45.3261 90.3547 45.1721C90.4185 45.0181 90.5121 44.8782 90.63 44.7603C90.7479 44.6425 90.8878 44.549 91.0419 44.4852C91.1959 44.4214 91.361 44.3886 91.5277 44.3887H103.472C103.639 44.3886 103.804 44.4214 103.958 44.4852C104.112 44.549 104.252 44.6425 104.37 44.7603C104.488 44.8782 104.581 45.0181 104.645 45.1721C104.709 45.3261 104.742 45.4912 104.742 45.6579Z" fill="white"/>
<path d="M104.742 45.657V63.0362C104.742 63.7377 104.174 64.3054 103.473 64.3054H91.5283C90.956 64.3054 90.4714 63.927 90.3145 63.4054C90.4321 63.4423 90.5545 63.4608 90.6837 63.4608H102.628C103.33 63.4608 103.898 62.8931 103.898 62.1916V44.8123C103.898 44.6831 103.879 44.5608 103.842 44.4431C104.103 44.5219 104.331 44.6825 104.493 44.9012C104.655 45.1198 104.742 45.3848 104.742 45.657Z" fill="#EDEDED"/>
<path d="M91.3275 47.6416V49.7509C91.3275 49.8593 91.2398 49.9447 91.1337 49.9447C91.108 49.945 91.0825 49.9402 91.0588 49.9306C91.035 49.921 91.0133 49.9068 90.9951 49.8888C90.9768 49.8707 90.9624 49.8493 90.9525 49.8256C90.9426 49.8019 90.9375 49.7765 90.9375 49.7509V47.6416C90.9375 47.5899 90.958 47.5403 90.9946 47.5038C91.0312 47.4672 91.0808 47.4466 91.1325 47.4466C91.1842 47.4466 91.2338 47.4672 91.2704 47.5038C91.307 47.5403 91.3275 47.5899 91.3275 47.6416ZM93.8106 45.1378C93.8106 45.244 93.7229 45.3317 93.6144 45.3317H91.8837C91.8319 45.3317 91.7823 45.3111 91.7458 45.2745C91.7092 45.238 91.6887 45.1884 91.6887 45.1367C91.6887 45.0849 91.7092 45.0353 91.7458 44.9988C91.7823 44.9622 91.8319 44.9417 91.8837 44.9417H93.6144C93.7229 44.9417 93.8106 45.0293 93.8106 45.1378ZM91.3275 50.7824V54.274C91.3275 54.3824 91.2398 54.4701 91.1337 54.4701C91.0816 54.4701 91.0317 54.4494 90.995 54.4127C90.9582 54.3759 90.9375 54.326 90.9375 54.274V50.7824C90.9375 50.7307 90.958 50.6811 90.9946 50.6445C91.0312 50.608 91.0808 50.5874 91.1325 50.5874C91.1842 50.5874 91.2338 50.608 91.2704 50.6445C91.307 50.6811 91.3275 50.7307 91.3275 50.7824ZM97.6506 45.1378C97.6506 45.244 97.5629 45.3317 97.4544 45.3317H94.549C94.4973 45.3317 94.4477 45.3111 94.4112 45.2745C94.3746 45.238 94.354 45.1884 94.354 45.1367C94.354 45.0849 94.3746 45.0353 94.4112 44.9988C94.4477 44.9622 94.4973 44.9417 94.549 44.9417H97.4544C97.5629 44.9417 97.6506 45.0293 97.6506 45.1378Z" fill="white"/>
<path d="M95.2934 48.3176C95.3137 48.3176 95.331 48.325 95.3458 48.3398C95.3606 48.3545 95.368 48.3721 95.368 48.3924V48.589C95.368 48.6093 95.3608 48.6268 95.3458 48.6416C95.3308 48.6564 95.3135 48.6638 95.2934 48.6638H94.795V50.1813C94.795 50.1911 94.7931 50.2009 94.7893 50.2099C94.7855 50.2189 94.7799 50.2271 94.7728 50.2339C94.766 50.241 94.7578 50.2466 94.7487 50.2504C94.7396 50.2543 94.7298 50.2562 94.72 50.2561H94.4959C94.486 50.2562 94.4763 50.2543 94.4672 50.2505C94.4581 50.2467 94.4499 50.241 94.443 50.2339C94.436 50.2271 94.4304 50.2189 94.4265 50.2099C94.4227 50.2009 94.4208 50.1911 94.4209 50.1813V48.6635H93.9224C93.9126 48.6636 93.903 48.6617 93.8939 48.6579C93.8849 48.6541 93.8768 48.6485 93.87 48.6414C93.8629 48.6346 93.8572 48.6265 93.8534 48.6174C93.8495 48.6084 93.8476 48.5986 93.8477 48.5888V48.3922C93.8476 48.3823 93.8495 48.3726 93.8534 48.3635C93.8572 48.3545 93.8629 48.3463 93.87 48.3395C93.8768 48.3325 93.8849 48.3268 93.8939 48.323C93.903 48.3192 93.9126 48.3173 93.9224 48.3174H95.2932L95.2934 48.3176ZM95.7197 50.2561C95.7099 50.2562 95.7002 50.2542 95.6912 50.2504C95.6822 50.2466 95.674 50.241 95.6673 50.2339C95.6601 50.2272 95.6544 50.219 95.6506 50.21C95.6467 50.2009 95.6448 50.1911 95.6449 50.1813V48.3924C95.6448 48.3826 95.6467 48.3728 95.6506 48.3637C95.6544 48.3547 95.6601 48.3465 95.6673 48.3398C95.674 48.3327 95.6822 48.3271 95.6912 48.3233C95.7002 48.3195 95.7099 48.3175 95.7197 48.3176H95.9442C95.9645 48.3176 95.9818 48.325 95.9968 48.3398C96.0118 48.3545 96.0187 48.3721 96.0187 48.3924V50.1813C96.0187 50.2016 96.0118 50.2192 95.9968 50.2339C95.9818 50.2487 95.9645 50.2561 95.9442 50.2561H95.7197ZM97.7412 48.3176C97.7615 48.3176 97.7788 48.325 97.7938 48.3398C97.8088 48.3545 97.8157 48.3721 97.8157 48.3924V48.589C97.8157 48.6093 97.8088 48.6268 97.7938 48.6416C97.7788 48.6564 97.7615 48.6638 97.7412 48.6638H97.2427V50.1813C97.2428 50.1911 97.2409 50.2009 97.2371 50.2099C97.2333 50.2189 97.2277 50.2271 97.2206 50.2339C97.2138 50.241 97.2056 50.2466 97.1965 50.2504C97.1875 50.2542 97.1778 50.2561 97.168 50.2561H96.9437C96.9338 50.2562 96.9241 50.2543 96.9151 50.2504C96.906 50.2466 96.8978 50.241 96.891 50.2339C96.884 50.2271 96.8784 50.2189 96.8745 50.2099C96.8707 50.2009 96.8688 50.1911 96.8689 50.1813V48.6635H96.3704C96.3606 48.6637 96.3509 48.6618 96.3418 48.6579C96.3328 48.6541 96.3246 48.6485 96.3178 48.6414C96.3107 48.6346 96.3051 48.6264 96.3013 48.6174C96.2974 48.6083 96.2955 48.5986 96.2957 48.5888V48.3922C96.2955 48.3823 96.2974 48.3726 96.3013 48.3635C96.3051 48.3545 96.3107 48.3463 96.3178 48.3395C96.3246 48.3324 96.3328 48.3268 96.3418 48.323C96.3509 48.3192 96.3606 48.3173 96.3704 48.3174L97.7412 48.3176ZM99.3806 49.9099C99.4009 49.9099 99.4184 49.9173 99.4332 49.9321C99.448 49.9468 99.4554 49.9644 99.4554 49.9847V50.1813C99.4554 50.1911 99.4535 50.2009 99.4497 50.2099C99.4459 50.2189 99.4403 50.2271 99.4332 50.2339C99.4264 50.241 99.4182 50.2466 99.4092 50.2504C99.4001 50.2542 99.3904 50.2561 99.3806 50.2561H98.1677C98.1578 50.2562 98.1481 50.2543 98.139 50.2505C98.13 50.2467 98.1218 50.241 98.115 50.2339C98.1079 50.2271 98.1023 50.219 98.0985 50.2099C98.0947 50.2009 98.0928 50.1911 98.0929 50.1813V48.3924C98.0928 48.3826 98.0947 48.3728 98.0985 48.3638C98.1023 48.3547 98.1079 48.3466 98.115 48.3398C98.1218 48.3327 98.13 48.327 98.139 48.3232C98.1481 48.3194 98.1578 48.3175 98.1677 48.3176H98.3922C98.4123 48.3176 98.4298 48.325 98.4446 48.3398C98.4594 48.3545 98.4667 48.3721 98.4667 48.3924V49.9099H99.3806ZM101.012 49.9099C101.032 49.9099 101.049 49.9173 101.064 49.9321C101.071 49.9389 101.077 49.9471 101.081 49.9561C101.084 49.9652 101.086 49.9749 101.086 49.9847V50.1813C101.086 50.2016 101.079 50.2192 101.064 50.2339C101.05 50.2487 101.032 50.2561 101.012 50.2561H99.796C99.7861 50.2562 99.7764 50.2543 99.7674 50.2505C99.7583 50.2467 99.7501 50.241 99.7434 50.2339C99.7362 50.2272 99.7305 50.219 99.7267 50.21C99.7228 50.2009 99.7209 50.1911 99.721 50.1813V48.3924C99.7209 48.3826 99.7228 48.3728 99.7267 48.3637C99.7305 48.3547 99.7362 48.3465 99.7434 48.3398C99.7501 48.3327 99.7583 48.327 99.7674 48.3232C99.7764 48.3194 99.7861 48.3175 99.796 48.3176H100.989C101.01 48.3176 101.027 48.325 101.042 48.3398C101.057 48.3545 101.064 48.3721 101.064 48.3924V48.589C101.064 48.5988 101.062 48.6085 101.059 48.6176C101.055 48.6266 101.049 48.6348 101.042 48.6416C101.035 48.6487 101.027 48.6543 101.018 48.6581C101.009 48.662 100.999 48.6639 100.989 48.6638H100.095V49.1041H100.929C100.949 49.1041 100.966 49.1115 100.981 49.1262C100.996 49.141 101.003 49.1585 101.003 49.1788V49.3755C101.003 49.3853 101.002 49.395 100.998 49.4041C100.994 49.4131 100.988 49.4213 100.981 49.4281C100.974 49.4352 100.966 49.4408 100.957 49.4446C100.948 49.4484 100.938 49.4503 100.929 49.4502H100.095V49.9099H101.012Z" fill="#6B4BF3"/>
<path d="M102.332 52.1266C102.332 52.3564 102.143 52.5457 101.913 52.5457H93.089C92.9779 52.5456 92.8714 52.5014 92.7928 52.4228C92.7142 52.3442 92.67 52.2377 92.6699 52.1266C92.6699 51.8968 92.8566 51.7075 93.089 51.7075H101.913C102.142 51.7075 102.332 51.8968 102.332 52.1266ZM102.332 54.3535C102.332 54.5831 102.143 54.7724 101.913 54.7724H93.089C92.9779 54.7722 92.8714 54.7281 92.7928 54.6495C92.7142 54.5709 92.67 54.4644 92.6699 54.3533C92.6699 54.1234 92.8566 53.9342 93.089 53.9342H101.913C102.142 53.9342 102.332 54.1237 102.332 54.3535ZM102.332 56.58C102.332 56.8098 102.143 56.9991 101.913 56.9991H93.089C92.9779 56.9989 92.8714 56.9547 92.7928 56.8762C92.7142 56.7976 92.67 56.6911 92.6699 56.58C92.6699 56.3501 92.8566 56.1609 93.089 56.1609H101.913C102.142 56.1609 102.332 56.3501 102.332 56.58ZM102.332 58.8067C102.332 59.0365 102.143 59.2258 101.913 59.2258H93.089C92.9779 59.2256 92.8714 59.1814 92.7928 59.1029C92.7142 59.0243 92.67 58.9178 92.6699 58.8067C92.6699 58.5768 92.8566 58.3874 93.089 58.3874H101.913C102.142 58.3874 102.332 58.5766 102.332 58.8067ZM102.332 61.0334C102.332 61.2632 102.143 61.4524 101.913 61.4524H93.089C92.9779 61.4523 92.8714 61.4081 92.7928 61.3296C92.7142 61.251 92.67 61.1445 92.6699 61.0334C92.6699 60.8035 92.8566 60.6141 93.089 60.6141H101.913C102.142 60.6141 102.332 60.8033 102.332 61.0334Z" fill="#EDEDED"/>
</g>
<path d="M105 101.885H90C89.6022 101.885 89.2206 102.043 88.9393 102.324C88.658 102.606 88.5 102.987 88.5 103.385V118.385C88.5 118.783 88.658 119.164 88.9393 119.446C89.2206 119.727 89.6022 119.885 90 119.885H105C105.398 119.885 105.779 119.727 106.061 119.446C106.342 119.164 106.5 118.783 106.5 118.385V103.385C106.5 102.987 106.342 102.606 106.061 102.324C105.779 102.043 105.398 101.885 105 101.885ZM101.78 109.165L96.53 114.415C96.4606 114.485 96.378 114.54 96.287 114.578C96.1961 114.616 96.0985 114.636 96 114.636C95.9015 114.636 95.8039 114.616 95.713 114.578C95.622 114.54 95.5394 114.485 95.47 114.415L93.22 112.165C93.1463 112.096 93.0872 112.014 93.0462 111.922C93.0052 111.83 92.9832 111.73 92.9814 111.63C92.9796 111.529 92.9982 111.429 93.0359 111.335C93.0736 111.242 93.1297 111.157 93.201 111.086C93.2722 111.015 93.357 110.959 93.4504 110.921C93.5438 110.883 93.6438 110.865 93.7445 110.866C93.8452 110.868 93.9445 110.89 94.0365 110.931C94.1285 110.972 94.2113 111.031 94.28 111.105L96 112.825L100.72 108.105C100.789 108.031 100.871 107.972 100.963 107.931C101.055 107.89 101.155 107.868 101.255 107.866C101.356 107.865 101.456 107.883 101.55 107.921C101.643 107.959 101.728 108.015 101.799 108.086C101.87 108.157 101.926 108.242 101.964 108.335C102.002 108.429 102.02 108.529 102.019 108.63C102.017 108.73 101.995 108.83 101.954 108.922C101.913 109.014 101.854 109.096 101.78 109.165Z" fill="#A9ADF8"/>
<path d="M312.5 100.885H119.5C118.395 100.885 117.5 101.78 117.5 102.885C117.5 103.99 118.395 104.885 119.5 104.885H312.5C313.605 104.885 314.5 103.99 314.5 102.885C314.5 101.78 313.605 100.885 312.5 100.885Z" fill="#E1E4FE"/>
<path d="M312.5 108.885H119.5C118.395 108.885 117.5 109.78 117.5 110.885C117.5 111.99 118.395 112.885 119.5 112.885H312.5C313.605 112.885 314.5 111.99 314.5 110.885C314.5 109.78 313.605 108.885 312.5 108.885Z" fill="#E1E4FE"/>
<path d="M191.5 116.885H119.5C118.395 116.885 117.5 117.78 117.5 118.885C117.5 119.99 118.395 120.885 119.5 120.885H191.5C192.605 120.885 193.5 119.99 193.5 118.885C193.5 117.78 192.605 116.885 191.5 116.885Z" fill="#E1E4FE"/>
<path d="M105 137.885H102.75V137.135C102.75 137.036 102.731 136.939 102.693 136.848C102.656 136.757 102.601 136.674 102.531 136.604C102.461 136.534 102.378 136.479 102.287 136.442C102.196 136.404 102.099 136.385 102 136.385C101.901 136.385 101.804 136.404 101.713 136.442C101.622 136.479 101.539 136.535 101.469 136.604C101.4 136.674 101.344 136.757 101.307 136.848C101.269 136.939 101.25 137.036 101.25 137.135V137.885H93.75V137.135C93.7503 137.036 93.731 136.939 93.6934 136.848C93.6558 136.757 93.6006 136.674 93.5309 136.604C93.4612 136.534 93.3784 136.479 93.2873 136.442C93.1962 136.404 93.0986 136.385 93 136.385C92.9015 136.385 92.8039 136.404 92.7128 136.442C92.6218 136.479 92.539 136.535 92.4694 136.604C92.3997 136.674 92.3445 136.757 92.3068 136.848C92.2692 136.939 92.2499 137.036 92.25 137.135V137.885H90C89.6023 137.885 89.2209 138.043 88.9396 138.325C88.6584 138.606 88.5003 138.987 88.5 139.385V154.385C88.5005 154.783 88.6587 155.164 88.9399 155.445C89.2211 155.726 89.6023 155.884 90 155.885H105C105.398 155.885 105.779 155.727 106.06 155.445C106.342 155.164 106.5 154.783 106.5 154.385V139.385C106.499 138.987 106.341 138.606 106.06 138.325C105.779 138.044 105.398 137.886 105 137.885ZM101.406 147.416L96.906 151.916C96.8364 151.986 96.7537 152.041 96.6625 152.079C96.5714 152.117 96.4737 152.136 96.375 152.136C96.2765 152.136 96.179 152.117 96.088 152.079C95.997 152.041 95.9144 151.986 95.845 151.916L93.595 149.666C93.4697 149.522 93.4035 149.337 93.4098 149.146C93.4161 148.956 93.4945 148.775 93.6291 148.64C93.7637 148.505 93.9445 148.426 94.135 148.42C94.3254 148.413 94.5113 148.479 94.655 148.604L96.375 150.325L100.345 146.354C100.45 146.249 100.583 146.178 100.729 146.149C100.874 146.12 101.025 146.135 101.162 146.192C101.276 146.239 101.377 146.313 101.456 146.409C101.534 146.504 101.588 146.617 101.612 146.739C101.636 146.86 101.63 146.985 101.594 147.103C101.558 147.221 101.494 147.329 101.406 147.416ZM90 142.385V139.385H92.25V140.135C92.2497 140.234 92.269 140.331 92.3066 140.422C92.3442 140.513 92.3994 140.596 92.4691 140.666C92.5388 140.736 92.6216 140.791 92.7127 140.828C92.8038 140.866 92.9014 140.885 93 140.885C93.0985 140.885 93.1961 140.866 93.2872 140.828C93.3782 140.791 93.461 140.735 93.5306 140.666C93.6003 140.596 93.6555 140.513 93.6932 140.422C93.7308 140.331 93.7501 140.234 93.75 140.135V139.385H101.25V140.135C101.25 140.234 101.269 140.331 101.307 140.422C101.344 140.513 101.399 140.596 101.469 140.666C101.539 140.736 101.622 140.791 101.713 140.828C101.804 140.866 101.901 140.885 102 140.885C102.099 140.885 102.196 140.866 102.287 140.828C102.378 140.791 102.461 140.735 102.531 140.666C102.6 140.596 102.656 140.513 102.693 140.422C102.731 140.331 102.75 140.234 102.75 140.135V139.385H105V142.385H90Z" fill="#A9ADF8"/>
<path d="M312.5 136.885H119.5C118.395 136.885 117.5 137.78 117.5 138.885C117.5 139.99 118.395 140.885 119.5 140.885H312.5C313.605 140.885 314.5 139.99 314.5 138.885C314.5 137.78 313.605 136.885 312.5 136.885Z" fill="#E1E4FE"/>
<path d="M312.5 144.885H119.5C118.395 144.885 117.5 145.78 117.5 146.885C117.5 147.99 118.395 148.885 119.5 148.885H312.5C313.605 148.885 314.5 147.99 314.5 146.885C314.5 145.78 313.605 144.885 312.5 144.885Z" fill="#E1E4FE"/>
<path d="M191.5 152.885H119.5C118.395 152.885 117.5 153.78 117.5 154.885C117.5 155.99 118.395 156.885 119.5 156.885H191.5C192.605 156.885 193.5 155.99 193.5 154.885C193.5 153.78 192.605 152.885 191.5 152.885Z" fill="#E1E4FE"/>
<g clip-path="url(#clip1_214_11)">
<path d="M97.5005 192.732C102.938 192.732 107.347 188.324 107.347 182.886C107.347 177.448 102.938 173.04 97.5005 173.04C92.0626 173.04 87.6543 177.448 87.6543 182.886C87.6543 188.324 92.0626 192.732 97.5005 192.732Z" fill="#BBABFF"/>
<path d="M95.8957 190.908C95.8957 190.823 95.965 190.754 96.0505 190.754H96.5367C96.6219 190.754 96.6914 190.823 96.6914 190.908C96.6914 190.993 96.6219 191.063 96.5368 191.063H96.0507C95.9651 191.063 95.8957 190.994 95.8957 190.908ZM96.9753 190.908C96.9753 190.823 97.0445 190.754 97.1299 190.754H97.9807C98.0656 190.754 98.1351 190.823 98.1351 190.908C98.1351 190.993 98.0656 191.063 97.9805 191.063H97.1297C97.0445 191.063 96.9753 190.994 96.9753 190.908ZM95.4547 190.908C95.4547 190.994 95.3854 191.063 95.3 191.063H93.3527C93.3117 191.063 93.2723 191.047 93.2433 191.018C93.2143 190.989 93.198 190.949 93.198 190.908C93.198 190.867 93.2143 190.828 93.2433 190.799C93.2723 190.77 93.3117 190.754 93.3527 190.754H95.2999C95.3853 190.754 95.4547 190.823 95.4547 190.908ZM102.93 189.854C102.889 189.854 102.85 189.87 102.821 189.899C102.792 189.928 102.776 189.968 102.776 190.009C102.776 190.05 102.792 190.089 102.821 190.118C102.85 190.147 102.889 190.163 102.93 190.163H104.132C104.242 190.063 104.351 189.96 104.457 189.854H102.93ZM101.531 190.009C101.531 189.923 101.6 189.854 101.686 189.854H102.32C102.405 189.854 102.475 189.924 102.475 190.009C102.475 190.094 102.405 190.163 102.32 190.163H101.685C101.6 190.163 101.531 190.094 101.531 190.009ZM91.612 179.24C91.612 179.326 91.6813 179.395 91.7667 179.395H94.2293C94.3143 179.395 94.3839 179.325 94.3839 179.24C94.3839 179.155 94.3143 179.086 94.2293 179.086H91.7667C91.6813 179.086 91.612 179.155 91.612 179.24ZM94.9102 175.346C94.9102 175.431 94.841 175.5 94.7556 175.5H92.293C92.2079 175.5 92.1383 175.431 92.1383 175.346C92.1383 175.261 92.2079 175.191 92.293 175.191H94.7556C94.841 175.191 94.9102 175.26 94.9102 175.346ZM91.3717 179.24C91.3717 179.155 91.3025 179.086 91.2171 179.086H90.4774C90.4364 179.086 90.3971 179.102 90.3681 179.131C90.3391 179.16 90.3228 179.199 90.3228 179.24C90.3228 179.281 90.3391 179.321 90.3681 179.35C90.3971 179.379 90.4364 179.395 90.4774 179.395H91.2171C91.3025 179.395 91.3717 179.326 91.3717 179.24ZM104.33 179.086C104.33 179.171 104.26 179.24 104.175 179.24H103.746C103.705 179.24 103.666 179.224 103.637 179.195C103.608 179.166 103.591 179.127 103.591 179.086C103.591 179.001 103.661 178.931 103.746 178.931H104.175C104.26 178.931 104.33 179 104.33 179.086ZM103.424 179.086C103.424 179.171 103.355 179.24 103.269 179.24H102.04C101.999 179.24 101.96 179.224 101.931 179.195C101.902 179.166 101.885 179.127 101.885 179.086C101.885 179.001 101.955 178.931 102.04 178.931H103.269C103.355 178.931 103.424 179 103.424 179.086ZM104.57 179.086C104.57 179 104.639 178.931 104.725 178.931H106.066C106.107 178.931 106.147 178.947 106.176 178.976C106.205 179.005 106.221 179.045 106.221 179.086C106.221 179.127 106.205 179.166 106.176 179.195C106.147 179.224 106.107 179.24 106.066 179.24H104.725C104.639 179.24 104.57 179.171 104.57 179.086ZM87.6777 182.217C87.6839 182.112 87.6931 182.009 87.7023 181.908H89.2223C89.2427 181.908 89.2628 181.912 89.2815 181.919C89.3003 181.927 89.3173 181.939 89.3317 181.953C89.346 181.967 89.3574 181.984 89.3652 182.003C89.373 182.022 89.377 182.042 89.377 182.062C89.377 182.083 89.373 182.103 89.3652 182.122C89.3574 182.14 89.346 182.157 89.3317 182.172C89.3173 182.186 89.3003 182.197 89.2815 182.205C89.2628 182.213 89.2427 182.217 89.2223 182.217H87.6777ZM89.6177 182.062C89.6177 181.976 89.687 181.907 89.7722 181.907H90.5119C90.5529 181.907 90.5922 181.924 90.6212 181.953C90.6502 181.982 90.6665 182.021 90.6665 182.062C90.6665 182.103 90.6502 182.142 90.6212 182.171C90.5922 182.2 90.5529 182.216 90.5119 182.216H89.7722C89.6868 182.216 89.6177 182.147 89.6177 182.062ZM104.043 184.64C104.043 184.726 103.973 184.795 103.888 184.795H101.425C101.384 184.795 101.345 184.779 101.316 184.75C101.287 184.721 101.271 184.682 101.271 184.64C101.271 184.556 101.34 184.486 101.425 184.486H103.888C103.973 184.486 104.043 184.555 104.043 184.64ZM104.283 184.64C104.283 184.555 104.352 184.486 104.438 184.486H105.177C105.218 184.486 105.258 184.502 105.287 184.531C105.316 184.56 105.332 184.599 105.332 184.64C105.332 184.681 105.316 184.721 105.287 184.75C105.258 184.779 105.218 184.795 105.177 184.795H104.438C104.352 184.795 104.283 184.726 104.283 184.64ZM101.286 173.795H100.59C100.549 173.795 100.51 173.812 100.481 173.841C100.452 173.87 100.436 173.909 100.436 173.95C100.436 173.991 100.452 174.03 100.481 174.059C100.51 174.088 100.549 174.105 100.59 174.105H101.952C101.734 173.993 101.512 173.89 101.286 173.795ZM98.5757 174.105H99.9534C99.9944 174.105 100.034 174.088 100.063 174.059C100.092 174.03 100.108 173.991 100.108 173.95C100.108 173.909 100.092 173.87 100.063 173.841C100.034 173.812 99.9944 173.795 99.9534 173.795H98.5757C98.4907 173.795 98.421 173.865 98.421 173.95C98.421 174.035 98.4907 174.105 98.5757 174.105ZM92.3536 187.037H90.392C90.351 187.037 90.3117 187.021 90.2827 186.992C90.2537 186.963 90.2374 186.924 90.2374 186.883C90.2374 186.842 90.2537 186.802 90.2827 186.773C90.3117 186.744 90.351 186.728 90.392 186.728H92.3536C92.4385 186.728 92.5082 186.798 92.5082 186.883C92.5082 186.968 92.4385 187.037 92.3536 187.037ZM89.8354 186.883C89.8354 186.968 89.7662 187.037 89.6807 187.037H89.5145C89.4735 187.037 89.4342 187.021 89.4052 186.992C89.3762 186.963 89.3599 186.924 89.3599 186.883C89.3599 186.842 89.3762 186.802 89.4052 186.773C89.4342 186.744 89.4735 186.728 89.5145 186.728H89.6807C89.766 186.728 89.8354 186.797 89.8354 186.883Z" fill="#AA98F4"/>
<path d="M102.327 177.13V188.12C102.327 188.324 102.246 188.52 102.102 188.664C101.958 188.808 101.762 188.889 101.558 188.889H94.0173C93.8133 188.889 93.6176 188.808 93.4733 188.664C93.3291 188.52 93.248 188.324 93.248 188.12V177.13C93.248 176.926 93.3291 176.73 93.4733 176.586C93.6176 176.442 93.8133 176.361 94.0173 176.361H101.558C101.762 176.361 101.958 176.442 102.102 176.586C102.246 176.73 102.327 176.926 102.327 177.13Z" fill="black"/>
<path d="M102.327 177.13V188.119C102.327 188.544 101.982 188.888 101.557 188.888H94.0174C93.7374 188.888 93.4913 188.737 93.3574 188.513C93.4713 188.579 93.6036 188.617 93.7451 188.617H101.287C101.711 188.617 102.056 188.273 102.056 187.848V176.857C102.056 176.721 102.02 176.587 101.951 176.47C102.176 176.604 102.327 176.85 102.327 177.13Z" fill="black"/>
<path d="M94.0176 177.13H101.558V188.12H94.0176V177.13Z" fill="black"/>
<path d="M93.6155 178.245V179.43C93.6155 179.479 93.574 179.519 93.5248 179.519C93.4755 179.519 93.4355 179.479 93.4355 179.43V178.245C93.4355 178.196 93.4755 178.156 93.5248 178.156C93.574 178.156 93.6155 178.196 93.6155 178.245ZM93.6155 179.987V182.788C93.6155 182.838 93.5755 182.879 93.5248 182.879C93.4755 182.879 93.4355 182.838 93.4355 182.788V179.987C93.4355 179.938 93.4755 179.898 93.5248 179.898C93.5755 179.898 93.6155 179.938 93.6155 179.987ZM99.8932 176.089V177.355C99.8932 177.374 99.8894 177.393 99.8821 177.411C99.8747 177.429 99.8639 177.445 99.8503 177.458C99.8367 177.472 99.8205 177.483 99.8027 177.49C99.7849 177.498 99.7659 177.501 99.7466 177.501H95.8305C95.7916 177.501 95.7543 177.486 95.7268 177.458C95.6993 177.431 95.6839 177.394 95.6839 177.355V176.089C95.6839 176.008 95.7495 175.942 95.8305 175.942H96.4959C96.5672 175.942 96.6359 175.915 96.6877 175.866L96.9108 175.655C96.9627 175.606 97.0314 175.579 97.1028 175.579H98.4743C98.5457 175.579 98.6143 175.606 98.6662 175.655L98.8892 175.866C98.9411 175.915 99.0097 175.942 99.0811 175.942H99.7465C99.8274 175.942 99.8932 176.008 99.8932 176.089Z" fill="black"/>
<path d="M99.8909 177.138V177.355C99.8909 177.436 99.8263 177.501 99.7447 177.501H95.8293C95.7478 177.501 95.6816 177.436 95.6816 177.355V177.138C95.6816 177.219 95.7478 177.284 95.8293 177.284H99.7447C99.8263 177.284 99.8909 177.219 99.8909 177.138ZM95.937 176.19V176.456C95.937 176.476 95.9201 176.493 95.9001 176.493C95.8801 176.493 95.8647 176.476 95.8647 176.456V176.19C95.8647 176.17 95.8801 176.153 95.9001 176.153C95.9201 176.153 95.937 176.17 95.937 176.19ZM95.937 176.665V176.931C95.937 176.951 95.9201 176.968 95.9001 176.968C95.8801 176.968 95.8647 176.951 95.8647 176.931V176.665C95.8647 176.645 95.8801 176.628 95.9001 176.628C95.9201 176.628 95.937 176.645 95.937 176.665ZM98.7607 187.06L98.3099 185.9L99.0984 185.593L99.5492 186.754L98.7607 187.06Z" fill="black"/>
<path d="M100.562 182.107C101.172 183.677 100.394 185.442 98.8243 186.052C97.2543 186.662 95.4892 185.884 94.8794 184.314C94.2701 182.746 95.0478 180.981 96.6178 180.371C98.1878 179.761 99.9529 180.539 100.562 182.107Z" fill="black"/>
<path d="M98.8223 186.052C97.6177 186.52 96.2977 186.17 95.4746 185.272C96.3023 186.03 97.5192 186.3 98.6361 185.864C100.205 185.255 100.984 183.49 100.375 181.92C100.235 181.561 100.036 181.244 99.7915 180.975C100.121 181.28 100.388 181.661 100.561 182.107C101.17 183.677 100.393 185.441 98.8223 186.052Z" fill="black"/>
<path d="M99.7424 182.425C100.176 183.542 99.623 184.799 98.5058 185.233C97.3885 185.666 96.1324 185.113 95.6984 183.996C95.265 182.88 95.8184 181.624 96.9354 181.19C98.0527 180.756 99.3088 181.309 99.7424 182.425Z" fill="black"/>
<path d="M97.3048 184.203C97.247 184.203 97.189 184.181 97.1448 184.137L96.4433 183.435C96.4008 183.393 96.377 183.335 96.377 183.275C96.377 183.215 96.4008 183.158 96.4433 183.115C96.4858 183.073 96.5434 183.049 96.6034 183.049C96.6635 183.049 96.7211 183.073 96.7636 183.115L97.3048 183.656L98.6756 182.286C98.6966 182.265 98.7216 182.248 98.7491 182.236C98.7766 182.225 98.8061 182.219 98.8358 182.219C98.8656 182.219 98.895 182.225 98.9225 182.237C98.95 182.248 98.975 182.265 98.996 182.286C99.017 182.307 99.0337 182.332 99.0451 182.359C99.0565 182.387 99.0623 182.416 99.0623 182.446C99.0623 182.476 99.0564 182.505 99.045 182.533C99.0336 182.56 99.0169 182.585 98.9959 182.606L97.4651 184.137C97.4441 184.158 97.4191 184.175 97.3916 184.186C97.3641 184.197 97.3346 184.203 97.3048 184.203ZM99.8264 186.51L99.9501 186.829L98.5156 187.386L98.3919 187.067C98.3724 187.017 98.3738 186.961 98.3956 186.911C98.4174 186.861 98.4579 186.822 98.5084 186.803L99.5618 186.394C99.5868 186.384 99.6135 186.379 99.6403 186.38C99.6672 186.38 99.6937 186.386 99.7182 186.397C99.7428 186.408 99.765 186.423 99.7836 186.443C99.8021 186.462 99.8167 186.485 99.8264 186.51ZM100.849 189.144L99.9501 186.829L98.5156 187.386L99.4153 189.702C99.4892 189.892 99.6356 190.045 99.8223 190.127C100.009 190.209 100.221 190.214 100.411 190.14C100.601 190.066 100.754 189.92 100.836 189.733C100.919 189.547 100.923 189.335 100.849 189.144Z" fill="black"/>
<path d="M100.903 189.423C100.903 189.578 100.857 189.729 100.769 189.857C100.681 189.985 100.557 190.084 100.413 190.14C100.074 190.271 99.702 190.149 99.502 189.864C99.6369 189.96 99.799 190.009 99.9643 190.006C100.13 190.002 100.289 189.945 100.42 189.843C100.55 189.741 100.644 189.6 100.688 189.441C100.732 189.282 100.723 189.112 100.663 188.958L99.8527 186.868L99.9512 186.829L100.851 189.144C100.887 189.237 100.903 189.331 100.903 189.423Z" fill="black"/>
<path d="M102.04 177.13V188.119C102.04 188.323 101.959 188.519 101.815 188.663C101.67 188.808 101.475 188.889 101.271 188.889H93.7302C93.5262 188.889 93.3305 188.808 93.1862 188.663C93.042 188.519 92.9609 188.323 92.9609 188.119V177.13C92.9609 176.926 93.042 176.73 93.1862 176.586C93.3305 176.441 93.5262 176.36 93.7302 176.36H101.271C101.475 176.36 101.67 176.441 101.815 176.586C101.959 176.73 102.04 176.926 102.04 177.13Z" fill="#532EED"/>
<path d="M102.039 177.13V188.119C102.039 188.544 101.695 188.888 101.27 188.888H93.7302C93.4502 188.888 93.204 188.737 93.0702 188.513C93.184 188.579 93.3163 188.617 93.4579 188.617H100.999C101.424 188.617 101.769 188.273 101.769 187.848V176.857C101.769 176.721 101.733 176.587 101.664 176.47C101.889 176.604 102.039 176.85 102.039 177.13Z" fill="#3F19DD"/>
<path d="M93.7305 177.13H101.271V188.12H93.7305V177.13Z" fill="white"/>
<path d="M93.3265 178.245V179.43C93.3265 179.479 93.2849 179.519 93.2357 179.519C93.1865 179.519 93.1465 179.479 93.1465 179.43V178.245C93.1465 178.196 93.1865 178.156 93.2357 178.156C93.2849 178.156 93.3265 178.196 93.3265 178.245ZM93.3265 179.987V182.789C93.3265 182.838 93.2865 182.879 93.2357 182.879C93.1865 182.879 93.1465 182.838 93.1465 182.789V179.987C93.1465 179.938 93.1865 179.898 93.2357 179.898C93.2865 179.898 93.3265 179.938 93.3265 179.987Z" fill="#704FFC"/>
<path d="M99.6038 176.089V177.355C99.6038 177.394 99.5883 177.431 99.5608 177.458C99.5333 177.486 99.496 177.501 99.4571 177.501H95.5411C95.5023 177.501 95.465 177.486 95.4375 177.458C95.41 177.431 95.3945 177.394 95.3945 177.355V176.089C95.3945 176.008 95.4602 175.942 95.5411 175.942H96.2065C96.2779 175.942 96.3465 175.915 96.3984 175.866L96.6215 175.655C96.6733 175.606 96.742 175.579 96.8133 175.579H98.185C98.2562 175.579 98.325 175.606 98.3768 175.655L98.5999 175.866C98.6518 175.915 98.7204 175.942 98.7918 175.942H99.4571C99.5381 175.942 99.6038 176.008 99.6038 176.089Z" fill="#5A4A9B"/>
<path d="M99.604 177.138V177.355C99.604 177.436 99.5394 177.501 99.4579 177.501H95.5425C95.4609 177.501 95.3948 177.436 95.3948 177.355V177.138C95.3948 177.219 95.4609 177.284 95.5425 177.284H99.4579C99.5394 177.284 99.604 177.219 99.604 177.138Z" fill="#473884"/>
<path d="M95.6504 176.19V176.456C95.6504 176.476 95.6335 176.493 95.6135 176.493C95.5935 176.493 95.5781 176.476 95.5781 176.456V176.19C95.5781 176.17 95.5935 176.153 95.6135 176.153C95.6335 176.153 95.6504 176.17 95.6504 176.19ZM95.6504 176.664V176.93C95.6504 176.95 95.6335 176.967 95.6135 176.967C95.5935 176.967 95.5781 176.95 95.5781 176.93V176.664C95.5781 176.644 95.5935 176.627 95.6135 176.627C95.6335 176.627 95.6504 176.644 95.6504 176.664Z" fill="#8474C7"/>
<path d="M98.4742 187.06L98.0234 185.899L98.8119 185.593L99.2627 186.754L98.4742 187.06Z" fill="#473884"/>
<path d="M100.273 182.107C100.883 183.677 100.105 185.442 98.5352 186.052C96.9652 186.662 95.2 185.884 94.5903 184.314C93.9811 182.746 94.7588 180.981 96.3288 180.371C97.8988 179.761 99.6639 180.539 100.273 182.107Z" fill="#5A4A9B"/>
<path d="M98.5354 186.052C97.3308 186.52 96.0108 186.17 95.1877 185.272C96.0154 186.03 97.2323 186.3 98.3492 185.864C99.9185 185.255 100.697 183.49 100.088 181.92C99.9477 181.561 99.7492 181.244 99.5046 180.975C99.8338 181.28 100.102 181.661 100.274 182.107C100.883 183.677 100.106 185.441 98.5354 186.052Z" fill="#473884"/>
<path d="M99.4553 182.425C99.8891 183.542 99.3359 184.799 98.2186 185.233C97.1014 185.666 95.8453 185.113 95.4113 183.996C94.9779 182.88 95.5313 181.624 96.6483 181.19C97.7656 180.756 99.0217 181.309 99.4553 182.425Z" fill="white"/>
<path d="M97.0178 184.203C96.96 184.203 96.902 184.181 96.8578 184.137L96.1563 183.435C96.1353 183.414 96.1186 183.389 96.1072 183.362C96.0958 183.334 96.09 183.305 96.09 183.275C96.09 183.246 96.0958 183.216 96.1072 183.189C96.1186 183.161 96.1353 183.136 96.1563 183.115C96.1773 183.094 96.2023 183.077 96.2298 183.066C96.2573 183.055 96.2867 183.049 96.3165 183.049C96.3462 183.049 96.3757 183.055 96.4031 183.066C96.4306 183.077 96.4556 183.094 96.4766 183.115L97.0178 183.656L98.3886 182.286C98.4097 182.265 98.4346 182.248 98.4621 182.236C98.4896 182.225 98.5191 182.219 98.5488 182.219C98.5786 182.219 98.608 182.225 98.6355 182.237C98.663 182.248 98.688 182.265 98.709 182.286C98.73 182.307 98.7467 182.332 98.7581 182.359C98.7695 182.387 98.7753 182.416 98.7753 182.446C98.7753 182.476 98.7694 182.505 98.758 182.533C98.7467 182.56 98.73 182.585 98.7089 182.606L97.1781 184.137C97.1571 184.158 97.1321 184.175 97.1046 184.186C97.0771 184.197 97.0476 184.203 97.0178 184.203Z" fill="#6B4BF3"/>
<path d="M99.5397 186.51L99.6635 186.828L98.2292 187.386L98.1055 187.067C98.086 187.016 98.0874 186.96 98.1092 186.911C98.131 186.861 98.1715 186.822 98.222 186.802L99.275 186.393C99.3001 186.384 99.3268 186.379 99.3536 186.379C99.3805 186.38 99.407 186.386 99.4315 186.397C99.4561 186.408 99.4783 186.423 99.4969 186.443C99.5154 186.462 99.53 186.485 99.5397 186.51Z" fill="#3A2F67"/>
<path d="M100.562 189.145L99.6627 186.829L98.2285 187.386L99.1281 189.702C99.1646 189.796 99.2194 189.882 99.2892 189.955C99.3591 190.028 99.4426 190.087 99.535 190.127C99.6275 190.168 99.7271 190.19 99.8281 190.192C99.9291 190.195 100.03 190.177 100.124 190.14C100.218 190.104 100.304 190.049 100.377 189.979C100.45 189.909 100.508 189.826 100.549 189.733C100.59 189.641 100.612 189.541 100.614 189.44C100.616 189.339 100.599 189.239 100.562 189.145L100.562 189.145Z" fill="#3D16E2"/>
<path d="M100.614 189.423C100.614 189.578 100.568 189.729 100.48 189.857C100.392 189.985 100.268 190.084 100.124 190.14C99.7852 190.271 99.4129 190.149 99.2129 189.864C99.3478 189.96 99.5099 190.009 99.6752 190.006C99.8405 190.002 100 189.945 100.13 189.843C100.261 189.741 100.355 189.6 100.399 189.441C100.443 189.282 100.434 189.112 100.374 188.958L99.5637 186.868L99.6621 186.829L100.562 189.144C100.598 189.237 100.614 189.331 100.614 189.423Z" fill="#4D2ECE"/>
</g>
<path d="M312.5 172.885H119.5C118.395 172.885 117.5 173.78 117.5 174.885C117.5 175.989 118.395 176.885 119.5 176.885H312.5C313.605 176.885 314.5 175.989 314.5 174.885C314.5 173.78 313.605 172.885 312.5 172.885Z" fill="#E1E4FE"/>
<path d="M312.5 180.885H119.5C118.395 180.885 117.5 181.78 117.5 182.885C117.5 183.989 118.395 184.885 119.5 184.885H312.5C313.605 184.885 314.5 183.989 314.5 182.885C314.5 181.78 313.605 180.885 312.5 180.885Z" fill="#E1E4FE"/>
<path d="M191.5 188.885H119.5C118.395 188.885 117.5 189.78 117.5 190.885C117.5 191.989 118.395 192.885 119.5 192.885H191.5C192.605 192.885 193.5 191.989 193.5 190.885C193.5 189.78 192.605 188.885 191.5 188.885Z" fill="#E1E4FE"/>
<path d="M308.5 210.885H91.5C88.1863 210.885 85.5 213.571 85.5 216.885V228.885C85.5 232.198 88.1863 234.885 91.5 234.885H308.5C311.814 234.885 314.5 232.198 314.5 228.885V216.885C314.5 213.571 311.814 210.885 308.5 210.885Z" fill="#CACEFB"/>
</g>
<path d="M318.5 27.385H81.5C75.1487 27.385 70 32.5337 70 38.885V238.885C70 245.236 75.1487 250.385 81.5 250.385H318.5C324.851 250.385 330 245.236 330 238.885V38.885C330 32.5337 324.851 27.385 318.5 27.385Z" stroke="#E1E4FE"/>
<defs>
<clipPath id="clip0_214_11">
<rect width="30" height="30" fill="white" transform="translate(82.5 39.885)"/>
</clipPath>
<clipPath id="clip1_214_11">
<rect width="20" height="20" fill="white" transform="translate(87.5 172.886)"/>
</clipPath>
</defs>
</svg>
