<svg width="400" height="281" viewBox="0 0 400 281" fill="none" xmlns="http://www.w3.org/2000/svg">
<g clip-path="url(#clip0_214_1048)">
<g clip-path="url(#clip1_214_1048)">
<g clip-path="url(#clip2_214_1048)">
<g filter="url(#filter0_d_214_1048)">
<path d="M337.674 56.4102L60.4214 51.5707C54.7079 51.471 49.9953 56.0219 49.8956 61.7354L49.4622 86.564C49.3625 92.2775 53.9134 96.9901 59.6269 97.0898L336.879 101.929C342.593 102.029 347.306 97.4781 347.405 91.7646L347.839 66.936C347.938 61.2225 343.387 56.5099 337.674 56.4102Z" fill="url(#paint0_linear_214_1048)"/>
<path d="M337.665 56.9278L60.412 52.0883C54.9841 51.9936 50.5072 56.3169 50.4124 61.7447L49.9791 86.5733C49.8843 92.0012 54.2076 96.4781 59.6355 96.5728L336.888 101.412C342.316 101.507 346.793 97.1837 346.888 91.7559L347.321 66.9273C347.416 61.4994 343.092 57.0225 337.665 56.9278Z" stroke="#E1E4FE" stroke-width="1.03468"/>
<path d="M79.7998 83.6365C79.4721 83.6024 79.1533 83.5205 78.8485 83.3916C78.45 83.223 78.0921 82.9817 77.7849 82.6745C77.4777 82.3673 77.2364 82.0094 77.0678 81.6108C76.8932 81.198 76.8047 80.7597 76.8047 80.3081V78.3783C76.7172 78.3732 76.6291 78.3706 76.5405 78.3706H75.939L73.7535 81.733C73.6885 81.833 73.5773 81.8933 73.4581 81.8933C73.3389 81.8933 73.2277 81.833 73.1627 81.733L70.9772 78.3706H70.3757C67.5106 78.3706 65.1797 81.0571 65.1797 84.3592V85.7683H80.6555C80.4027 85.493 80.201 85.1797 80.0552 84.8351C79.8942 84.4545 79.8084 84.0516 79.7998 83.6365Z" fill="#8474C7"/>
<path d="M73.457 80.8948L75.3945 77.914V76.1475C75.2782 76.207 75.1587 76.2613 75.0362 76.3101C74.5375 76.5086 74.0108 76.6093 73.4706 76.6093C72.9304 76.6093 72.4037 76.5086 71.905 76.3101C71.773 76.2575 71.6444 76.1986 71.5195 76.1335V77.914L73.457 80.8948Z" fill="white"/>
<path d="M71.0208 74.9086C72.3719 76.2352 74.5702 76.2352 75.9212 74.9086L76.79 74.0556C77.2534 73.6006 77.5086 72.996 77.5086 72.3534V70.6206C77.2972 70.6206 77.0919 70.5534 76.8983 70.4209C76.7399 70.3126 76.596 70.1648 76.4706 69.9816C76.2382 69.6422 76.0995 69.2226 76.0995 68.8592V68.3308C76.0995 68.1365 75.9415 67.9785 75.7472 67.9785H71.1677C70.9734 67.9785 70.8154 68.1365 70.8154 68.3308V68.8592C70.8154 69.2226 70.6767 69.6422 70.4443 69.9816C70.3189 70.1648 70.175 70.3126 70.0166 70.4209C69.823 70.5534 69.6176 70.6206 69.4063 70.6206V72.3268C69.4063 72.9694 69.6615 73.5739 70.1249 74.0289L71.0208 74.9086Z" fill="white"/>
<path d="M69.4063 68.3309V69.9161C69.5497 69.9161 69.7204 69.7919 69.8629 69.5837C70.0135 69.3638 70.1109 69.0794 70.1109 68.8593V68.3309C70.1109 67.7482 70.5849 67.2741 71.1677 67.2741H75.7472C76.33 67.2741 76.804 67.7482 76.804 68.3309V68.8593C76.804 69.0794 76.9014 69.3638 77.052 69.5837C77.1945 69.7919 77.3652 69.9161 77.5086 69.9161V68.3309C77.5086 66.2107 75.5777 64.2798 73.4574 64.2798C71.2236 64.2798 69.4063 66.0971 69.4063 68.3309Z" fill="#6B48FF"/>
<path d="M81.4534 83.3917C81.1491 83.5204 80.831 83.6023 80.5039 83.6364C80.541 85.0126 81.6719 86.1207 83.0569 86.1207C84.4652 86.1207 85.6109 84.975 85.6109 83.5668V82.9152C85.3295 82.8584 85.0672 82.7336 84.8437 82.549L82.7173 82.4558C82.654 82.5313 82.5873 82.6043 82.517 82.6746C82.2098 82.9819 81.8519 83.2231 81.4534 83.3917Z" fill="white"/>
<path d="M85.9631 82.2457C86.5468 82.2457 87.02 81.7726 87.02 81.1889C87.02 80.6052 86.5468 80.1321 85.9631 80.1321C85.3795 80.1321 84.9063 80.6052 84.9063 81.1889C84.9063 81.7726 85.3795 82.2457 85.9631 82.2457Z" fill="#A994FF"/>
<path d="M87.7245 81.1888C87.7245 80.7183 87.5413 80.276 87.2086 79.9433C86.8759 79.6107 86.4336 79.4274 85.9631 79.4274C85.4926 79.4274 85.0503 79.6107 84.7176 79.9433C84.385 80.276 84.2018 80.7183 84.2018 81.1888C84.2018 81.6593 84.385 82.1016 84.7176 82.4343C84.7581 82.4747 84.8002 82.5129 84.8437 82.5489C85.0672 82.7335 85.3295 82.8583 85.6108 82.9151V83.5667C85.6108 84.9749 84.4651 86.1206 83.0569 86.1206C81.6719 86.1206 80.5409 85.0125 80.5039 83.6364C80.831 83.6022 81.1491 83.5203 81.4534 83.3916C81.8519 83.223 82.2098 82.9818 82.517 82.6745C82.5873 82.6043 82.6539 82.5312 82.7173 82.4557C82.9306 82.2013 83.1041 81.9183 83.2341 81.6109C83.4087 81.1981 83.4972 80.7598 83.4972 80.3081V77.3138C83.4972 77.1193 83.3395 76.9615 83.1449 76.9615H82.0881C81.8936 76.9615 81.7358 77.1193 81.7358 77.3138C81.7358 77.5084 81.8936 77.6661 82.0881 77.6661H82.7927V80.3081C82.7927 81.765 81.6074 82.9502 80.1506 82.9502C78.6938 82.9502 77.5086 81.765 77.5086 80.3081V77.6661H78.2131C78.4077 77.6661 78.5654 77.5084 78.5654 77.3138C78.5654 77.1193 78.4077 76.9615 78.2131 76.9615H77.1563C76.9617 76.9615 76.804 77.1193 76.804 77.3138V77.6727C76.7163 77.6684 76.6282 77.6661 76.5398 77.6661H76.0995V75.6915C76.2087 75.6039 76.3139 75.5105 76.4148 75.4114L77.2836 74.5584C77.5796 74.2677 77.8109 73.9277 77.9712 73.5477C78.1317 73.1672 78.2131 72.7654 78.2131 72.3535V70.2684V68.3309C78.2131 67.7222 78.0838 67.1182 77.8287 66.5356C77.8211 66.5181 77.8133 66.5007 77.8055 66.4833C77.7898 66.4485 77.7737 66.4139 77.7572 66.3796C77.7324 66.328 77.7068 66.2769 77.6803 66.2263C77.4594 65.8044 77.1775 65.415 76.8392 65.0648C76.8257 65.0508 76.8121 65.0368 76.7984 65.0229C76.37 64.5893 75.88 64.2439 75.3411 63.9956C75.3237 63.9875 75.3062 63.9796 75.2888 63.9718C75.2151 63.9389 75.141 63.9081 75.0665 63.8792C74.5451 63.6774 74.005 63.5752 73.4574 63.5752C72.8152 63.5752 72.1927 63.6998 71.6071 63.9455C71.3945 64.0347 71.19 64.1384 70.9945 64.2561C70.6687 64.4523 70.3677 64.6874 70.0951 64.9591C69.9995 65.0544 69.9084 65.1531 69.8218 65.2552C69.7971 65.2844 69.7728 65.3138 69.7488 65.3436C69.4732 65.6853 69.2476 66.0626 69.0755 66.4702C68.8275 67.0578 68.7018 67.6838 68.7018 68.3309V70.2684V72.3269C68.7018 72.7388 68.7831 73.1406 68.9436 73.521C69.1039 73.901 69.3353 74.2411 69.6313 74.5317L70.5272 75.4114C70.6197 75.5023 70.7159 75.5883 70.8154 75.6695V77.6661H70.3751C69.5725 77.6661 68.7943 77.8456 68.0621 78.1995C67.3586 78.5396 66.7276 79.0255 66.1867 79.6436C65.6488 80.2584 65.2268 80.9734 64.9324 81.7688C64.6285 82.5899 64.4745 83.4614 64.4745 84.3593V86.1207C64.4745 86.3152 64.6322 86.4729 64.8268 86.4729H81.5818C81.6493 86.5072 81.7182 86.5393 81.7884 86.569C82.1904 86.739 82.6171 86.8252 83.0569 86.8252C83.4966 86.8252 83.9234 86.739 84.3253 86.569C84.7134 86.4048 85.0618 86.1699 85.361 85.8708C85.6601 85.5717 85.895 85.2232 86.0592 84.8351C86.2292 84.4332 86.3154 84.0064 86.3154 83.5667V82.9151C86.6516 82.8472 86.9606 82.6823 87.2086 82.4343C87.5413 82.1016 87.7245 81.6593 87.7245 81.1888ZM85.9631 82.2456C85.3804 82.2456 84.9063 81.7716 84.9063 81.1888C84.9063 80.6061 85.3804 80.132 85.9631 80.132C86.5458 80.132 87.0199 80.6061 87.0199 81.1888C87.0199 81.7715 86.5458 82.2456 85.9631 82.2456ZM65.179 85.7684V84.3593C65.179 81.0571 67.51 78.3706 70.3751 78.3706H70.9765L73.1621 81.7331C73.2271 81.833 73.3382 81.8934 73.4574 81.8934C73.5767 81.8934 73.6878 81.833 73.7528 81.7331L75.9384 78.3706H76.5398C76.6284 78.3706 76.7165 78.3732 76.804 78.3783V80.3081C76.804 80.7598 76.8926 81.1981 77.0672 81.6109C77.2357 82.0094 77.477 82.3673 77.7842 82.6745C78.0915 82.9818 78.4493 83.223 78.8479 83.3916C79.1527 83.5205 79.4714 83.6025 79.7991 83.6365C79.8078 84.0516 79.8936 84.4545 80.0546 84.8351C80.2003 85.1797 80.402 85.493 80.6548 85.7684L65.179 85.7684ZM77.5086 68.3309V69.9161C77.3652 69.9161 77.1945 69.7918 77.052 69.5837C76.9013 69.3637 76.804 69.0794 76.804 68.8593V68.3309C76.804 67.7481 76.3299 67.274 75.7472 67.274H71.1677C70.5849 67.274 70.1108 67.7481 70.1108 68.3309V68.8593C70.1108 69.0794 70.0135 69.3637 69.8629 69.5837C69.7204 69.7918 69.5497 69.9161 69.4063 69.9161V68.3309C69.4063 66.0971 71.2236 64.2797 73.4574 64.2797C75.5776 64.2797 77.5086 66.2106 77.5086 68.3309ZM69.4063 70.6206C69.6176 70.6206 69.823 70.5535 70.0166 70.421C70.175 70.3126 70.3189 70.1648 70.4442 69.9817C70.6766 69.6423 70.8154 69.2227 70.8154 68.8593V68.3309C70.8154 68.1366 70.9734 67.9786 71.1677 67.9786H75.7472C75.9414 67.9786 76.0995 68.1366 76.0995 68.3309V68.8593C76.0995 69.2227 76.2382 69.6423 76.4706 69.9817C76.596 70.1648 76.7399 70.3126 76.8983 70.421C77.0919 70.5535 77.2972 70.6206 77.5086 70.6206V72.3535C77.5086 72.9961 77.2534 73.6006 76.79 74.0557L75.9212 74.9087C74.5701 76.2353 72.3719 76.2353 71.0208 74.9087L70.1249 74.029C69.6615 73.574 69.4063 72.9695 69.4063 72.3269V70.6206H69.4063ZM71.9054 76.31C72.404 76.5086 72.9308 76.6093 73.471 76.6093C74.0112 76.6093 74.5379 76.5086 75.0366 76.31C75.1591 76.2613 75.2786 76.207 75.3949 76.1475V77.9139L73.4574 80.8947L71.5199 77.9139V76.1335C71.6448 76.1986 71.7734 76.2575 71.9054 76.31Z" fill="#140066"/>
<path d="M78.2124 77.6662H77.5078V80.3083C77.5078 81.7651 78.693 82.9503 80.1499 82.9503C81.6067 82.9503 82.7919 81.7651 82.7919 80.3083V77.6662H82.0874C81.8928 77.6662 81.7351 77.5085 81.7351 77.314H78.5646C78.5646 77.5085 78.4069 77.6662 78.2124 77.6662Z" fill="white"/>
<path d="M109.415 81.7002H106.119V71.5184H109.519C110.517 71.5184 111.374 71.7222 112.089 72.1299C112.805 72.5342 113.354 73.1159 113.735 73.8749C114.12 74.6306 114.312 75.5371 114.312 76.5944C114.312 77.655 114.118 78.5664 113.73 79.3287C113.346 80.0911 112.789 80.6777 112.06 81.0887C111.33 81.4964 110.449 81.7002 109.415 81.7002ZM107.655 80.3579H109.33C110.106 80.3579 110.75 80.212 111.264 79.9204C111.778 79.6254 112.162 79.1995 112.418 78.6427C112.673 78.0825 112.8 77.3998 112.8 76.5944C112.8 75.7956 112.673 75.1178 112.418 74.561C112.166 74.0042 111.79 73.5816 111.289 73.2932C110.789 73.0049 110.167 72.8607 109.425 72.8607H107.655V80.3579ZM115.663 81.7002V74.0638H117.149V81.7002H115.663ZM116.414 72.8856C116.155 72.8856 115.933 72.7994 115.747 72.627C115.565 72.4514 115.474 72.2426 115.474 72.0006C115.474 71.7554 115.565 71.5465 115.747 71.3742C115.933 71.1985 116.155 71.1107 116.414 71.1107C116.672 71.1107 116.892 71.1985 117.075 71.3742C117.26 71.5465 117.353 71.7554 117.353 72.0006C117.353 72.2426 117.26 72.4514 117.075 72.627C116.892 72.7994 116.672 72.8856 116.414 72.8856ZM124.431 75.9282L123.084 76.1668C123.028 75.9945 122.938 75.8304 122.816 75.6746C122.696 75.5189 122.534 75.3912 122.328 75.2918C122.123 75.1924 121.866 75.1427 121.558 75.1427C121.137 75.1427 120.786 75.2371 120.504 75.426C120.222 75.6117 120.081 75.8519 120.081 76.1469C120.081 76.4021 120.176 76.6076 120.365 76.7634C120.554 76.9192 120.859 77.0468 121.279 77.1462L122.493 77.4246C123.195 77.587 123.719 77.8373 124.064 78.1753C124.408 78.5134 124.581 78.9526 124.581 79.4928C124.581 79.9502 124.448 80.3579 124.183 80.7158C123.921 81.0705 123.555 81.3489 123.084 81.551C122.617 81.7532 122.075 81.8543 121.458 81.8543C120.603 81.8543 119.906 81.672 119.365 81.3074C118.825 80.9395 118.494 80.4175 118.371 79.7414L119.808 79.5226C119.897 79.8972 120.081 80.1805 120.36 80.3728C120.638 80.5617 121.001 80.6562 121.448 80.6562C121.936 80.6562 122.325 80.5551 122.617 80.3529C122.908 80.1474 123.054 79.8972 123.054 79.6022C123.054 79.3635 122.965 79.163 122.786 79.0006C122.61 78.8382 122.34 78.7156 121.975 78.6327L120.683 78.3493C119.97 78.1869 119.443 77.9284 119.102 77.5738C118.764 77.2191 118.595 76.77 118.595 76.2265C118.595 75.7757 118.721 75.3813 118.973 75.0432C119.225 74.7052 119.573 74.4417 120.017 74.2528C120.461 74.0605 120.97 73.9644 121.543 73.9644C122.368 73.9644 123.018 74.1434 123.492 74.5013C123.966 74.856 124.279 75.3316 124.431 75.9282ZM128.992 81.8543C128.253 81.8543 127.616 81.6869 127.083 81.3522C126.552 81.0141 126.145 80.5484 125.86 79.9552C125.574 79.3619 125.432 78.6824 125.432 77.9168C125.432 77.1412 125.578 76.4568 125.869 75.8635C126.161 75.267 126.572 74.8013 127.102 74.4665C127.633 74.1318 128.257 73.9644 128.977 73.9644C129.557 73.9644 130.074 74.0721 130.528 74.2876C130.982 74.4997 131.348 74.798 131.627 75.1824C131.908 75.5669 132.076 76.016 132.129 76.5297H130.682C130.602 76.1718 130.42 75.8635 130.135 75.605C129.853 75.3465 129.476 75.2172 129.002 75.2172C128.587 75.2172 128.224 75.3266 127.913 75.5454C127.605 75.7608 127.364 76.069 127.192 76.4701C127.02 76.8678 126.933 77.3385 126.933 77.882C126.933 78.4388 127.018 78.9194 127.187 79.3238C127.356 79.7281 127.595 80.0413 127.903 80.2634C128.214 80.4855 128.581 80.5965 129.002 80.5965C129.283 80.5965 129.538 80.5451 129.767 80.4424C129.999 80.3363 130.193 80.1855 130.349 79.99C130.508 79.7944 130.619 79.5591 130.682 79.284H132.129C132.076 79.7778 131.915 80.2187 131.646 80.6064C131.378 80.9942 131.018 81.2992 130.568 81.5212C130.12 81.7433 129.595 81.8543 128.992 81.8543ZM136.495 81.8543C135.779 81.8543 135.154 81.6903 134.621 81.3621C134.087 81.034 133.673 80.575 133.378 79.985C133.083 79.395 132.935 78.7056 132.935 77.9168C132.935 77.1247 133.083 76.432 133.378 75.8387C133.673 75.2454 134.087 74.7847 134.621 74.4566C135.154 74.1285 135.779 73.9644 136.495 73.9644C137.211 73.9644 137.836 74.1285 138.369 74.4566C138.903 74.7847 139.317 75.2454 139.612 75.8387C139.907 76.432 140.055 77.1247 140.055 77.9168C140.055 78.7056 139.907 79.395 139.612 79.985C139.317 80.575 138.903 81.034 138.369 81.3621C137.836 81.6903 137.211 81.8543 136.495 81.8543ZM136.5 80.6064C136.964 80.6064 137.348 80.4838 137.653 80.2385C137.958 79.9933 138.184 79.6668 138.329 79.2591C138.479 78.8515 138.553 78.4024 138.553 77.9118C138.553 77.4246 138.479 76.9772 138.329 76.5695C138.184 76.1585 137.958 75.8287 137.653 75.5802C137.348 75.3316 136.964 75.2073 136.5 75.2073C136.033 75.2073 135.645 75.3316 135.337 75.5802C135.032 75.8287 134.805 76.1585 134.655 76.5695C134.51 76.9772 134.437 77.4246 134.437 77.9118C134.437 78.4024 134.51 78.8515 134.655 79.2591C134.805 79.6668 135.032 79.9933 135.337 80.2385C135.645 80.4838 136.033 80.6064 136.5 80.6064ZM147.547 74.0638L144.778 81.7002H143.187L140.413 74.0638H142.008L143.942 79.9403H144.022L145.951 74.0638H147.547ZM151.535 81.8543C150.783 81.8543 150.135 81.6936 149.591 81.3721C149.051 81.0473 148.633 80.5915 148.339 80.0049C148.047 79.4149 147.901 78.7239 147.901 77.9317C147.901 77.1495 148.047 76.4601 148.339 75.8635C148.633 75.267 149.044 74.8013 149.571 74.4665C150.102 74.1318 150.722 73.9644 151.431 73.9644C151.862 73.9644 152.279 74.0357 152.684 74.1782C153.088 74.3207 153.451 74.5444 153.772 74.8493C154.094 75.1543 154.348 75.5503 154.533 76.0376C154.719 76.5215 154.812 77.1098 154.812 77.8025V78.3295H148.741V77.2158H153.355C153.355 76.8247 153.275 76.4784 153.116 76.1768C152.957 75.8718 152.733 75.6315 152.445 75.4559C152.16 75.2802 151.825 75.1924 151.441 75.1924C151.023 75.1924 150.659 75.2951 150.347 75.5006C150.039 75.7028 149.8 75.968 149.631 76.2961C149.465 76.6209 149.383 76.9739 149.383 77.355V78.2251C149.383 78.7355 149.472 79.1697 149.651 79.5276C149.833 79.8856 150.087 80.159 150.412 80.3479C150.736 80.5335 151.116 80.6263 151.55 80.6263C151.832 80.6263 152.089 80.5866 152.321 80.507C152.553 80.4242 152.753 80.3015 152.922 80.1391C153.091 79.9767 153.221 79.7762 153.31 79.5376L154.717 79.7911C154.604 80.2054 154.402 80.5683 154.111 80.8799C153.822 81.1881 153.459 81.4284 153.022 81.6008C152.588 81.7698 152.092 81.8543 151.535 81.8543ZM156.021 81.7002V74.0638H157.458V75.2769H157.537C157.676 74.8659 157.922 74.5428 158.273 74.3074C158.628 74.0688 159.029 73.9495 159.476 73.9495C159.569 73.9495 159.678 73.9528 159.804 73.9594C159.933 73.9661 160.035 73.9743 160.107 73.9843V75.4062C160.048 75.3896 159.942 75.3714 159.789 75.3515C159.637 75.3283 159.484 75.3167 159.332 75.3167C158.981 75.3167 158.667 75.3912 158.392 75.5404C158.121 75.6862 157.905 75.8901 157.746 76.1519C157.587 76.4104 157.507 76.7054 157.507 77.0368V81.7002H156.021ZM172.556 71.5184V81.7002H171.144L165.969 74.2329H165.875V81.7002H164.338V71.5184H165.76L170.941 78.9956H171.035V71.5184H172.556ZM177.455 81.8543C176.739 81.8543 176.114 81.6903 175.58 81.3621C175.047 81.034 174.632 80.575 174.337 79.985C174.042 79.395 173.895 78.7056 173.895 77.9168C173.895 77.1247 174.042 76.432 174.337 75.8387C174.632 75.2454 175.047 74.7847 175.58 74.4566C176.114 74.1285 176.739 73.9644 177.455 73.9644C178.17 73.9644 178.795 74.1285 179.329 74.4566C179.862 74.7847 180.277 75.2454 180.572 75.8387C180.867 76.432 181.014 77.1247 181.014 77.9168C181.014 78.7056 180.867 79.395 180.572 79.985C180.277 80.575 179.862 81.034 179.329 81.3621C178.795 81.6903 178.17 81.8543 177.455 81.8543ZM177.46 80.6064C177.924 80.6064 178.308 80.4838 178.613 80.2385C178.918 79.9933 179.143 79.6668 179.289 79.2591C179.438 78.8515 179.513 78.4024 179.513 77.9118C179.513 77.4246 179.438 76.9772 179.289 76.5695C179.143 76.1585 178.918 75.8287 178.613 75.5802C178.308 75.3316 177.924 75.2073 177.46 75.2073C176.992 75.2073 176.604 75.3316 176.296 75.5802C175.991 75.8287 175.764 76.1585 175.615 76.5695C175.469 76.9772 175.396 77.4246 175.396 77.9118C175.396 78.4024 175.469 78.8515 175.615 79.2591C175.764 79.6668 175.991 79.9933 176.296 80.2385C176.604 80.4838 176.992 80.6064 177.46 80.6064ZM183.657 81.7002L181.409 74.0638H182.946L184.442 79.6718H184.517L186.018 74.0638H187.554L189.046 79.6469H189.12L190.607 74.0638H192.143L189.901 81.7002H188.385L186.833 76.1867H186.719L185.168 81.7002H183.657Z" fill="#191919"/>
</g>
<g filter="url(#filter1_d_214_1048)">
<path d="M360.721 116.575H38.9347C33.2203 116.575 28.5879 121.207 28.5879 126.922V151.754C28.5879 157.469 33.2203 162.101 38.9347 162.101H360.721C366.435 162.101 371.068 157.469 371.068 151.754V126.922C371.068 121.207 366.435 116.575 360.721 116.575Z" fill="url(#paint1_linear_214_1048)"/>
<path d="M360.721 117.092H38.9347C33.506 117.092 29.1052 121.493 29.1052 126.922V151.754C29.1052 157.183 33.506 161.584 38.9347 161.584H360.721C366.15 161.584 370.55 157.183 370.55 151.754V126.922C370.55 121.493 366.15 117.092 360.721 117.092Z" stroke="#E1E4FE" stroke-width="1.03468"/>
<path d="M49.2877 136.991H42.0735C41.8721 136.991 41.6733 137.037 41.4923 137.125C41.3112 137.214 41.1526 137.342 41.0284 137.5L39.3544 134.843C39.2752 134.71 39.2325 134.558 39.2305 134.403C39.2286 134.247 39.2675 134.094 39.3433 133.959C39.4191 133.824 39.5291 133.71 39.6624 133.631C39.7957 133.551 39.9476 133.508 40.1028 133.506H46.5818C46.7307 133.505 46.8774 133.543 47.0082 133.614C47.1391 133.685 47.2498 133.788 47.3302 133.913L49.2877 136.991ZM67.6397 134.865L65.9657 137.523C65.8419 137.363 65.6835 137.234 65.5024 137.145C65.3213 137.056 65.1223 137.01 64.9205 137.009H57.7108L59.6682 133.909C59.7487 133.784 59.8594 133.681 59.9902 133.609C60.121 133.538 60.2677 133.501 60.4167 133.502H66.8912C67.0498 133.501 67.2055 133.544 67.342 133.625C67.4785 133.705 67.5908 133.821 67.6673 133.96C67.7437 134.099 67.7815 134.256 67.7767 134.414C67.7718 134.573 67.7245 134.727 67.6397 134.861V134.865ZM58.8844 132.983L56.3512 135.663C56.3101 135.706 56.2606 135.74 56.2058 135.764C56.151 135.787 56.092 135.8 56.0324 135.8C55.972 135.8 55.9121 135.788 55.8565 135.765C55.8009 135.741 55.7508 135.706 55.7091 135.663L53.1759 132.983C53.116 132.92 53.0758 132.841 53.0605 132.756C53.0452 132.67 53.0555 132.582 53.0899 132.502C53.1244 132.422 53.1816 132.354 53.2544 132.307C53.3272 132.259 53.4123 132.234 53.4992 132.235H54.5709V129.011C54.5709 128.893 54.6176 128.781 54.7007 128.698C54.7837 128.615 54.8963 128.568 55.0138 128.568H57.0421C57.1595 128.568 57.2722 128.615 57.3552 128.698C57.4383 128.781 57.4849 128.893 57.4849 129.011V132.235H58.5567C58.6432 132.235 58.7278 132.261 58.7999 132.309C58.872 132.357 58.9285 132.425 58.9624 132.504C58.9963 132.584 59.0062 132.672 58.9907 132.757C58.9753 132.842 58.9352 132.921 58.8755 132.983H58.8844ZM53.2379 130.229L50.7048 132.886C50.6634 132.929 50.6136 132.964 50.5584 132.988C50.5032 133.012 50.4438 133.024 50.3837 133.024C50.3237 133.024 50.2642 133.012 50.209 132.988C50.1538 132.964 50.104 132.929 50.0627 132.886L47.5295 130.229C47.4704 130.166 47.431 130.087 47.416 130.002C47.4011 129.917 47.4113 129.83 47.4454 129.751C47.4793 129.67 47.536 129.602 47.6084 129.554C47.6809 129.506 47.7659 129.48 47.8528 129.48H48.9245V124.538C48.9245 124.421 48.9712 124.308 49.0542 124.225C49.1373 124.142 49.2499 124.095 49.3674 124.095H51.4045C51.522 124.095 51.6346 124.142 51.7177 124.225C51.8007 124.308 51.8474 124.421 51.8474 124.538V129.463H52.9191C53.0093 129.459 53.0984 129.484 53.1744 129.532C53.2504 129.581 53.3098 129.652 53.3445 129.735C53.3792 129.818 53.3875 129.91 53.3685 129.999C53.3495 130.087 53.3039 130.167 53.2379 130.229ZM49.1637 137.877H42.0735C41.9561 137.877 41.8434 137.924 41.7604 138.007C41.6773 138.09 41.6307 138.202 41.6307 138.32V150.972C41.6307 151.325 41.7706 151.662 42.0198 151.912C42.2689 152.161 42.6069 152.301 42.9592 152.301H49.1592L49.1637 137.877ZM46.9494 148.333H43.8272C43.5923 148.333 43.367 148.239 43.2009 148.073C43.0348 147.907 42.9415 147.682 42.9415 147.447V142.735C42.9415 142.5 43.0348 142.275 43.2009 142.109C43.367 141.943 43.5923 141.849 43.8272 141.849H46.9671C47.202 141.849 47.4273 141.943 47.5934 142.109C47.7595 142.275 47.8528 142.5 47.8528 142.735V147.447C47.8528 147.682 47.7595 147.907 47.5934 148.073C47.4273 148.239 47.202 148.333 46.9671 148.333H46.9494Z" fill="#8474C7"/>
<path d="M43.828 147.447H46.9679V142.735H43.828V147.447ZM44.6429 143.621H46.1884C46.3059 143.621 46.4185 143.667 46.5016 143.751C46.5846 143.834 46.6313 143.946 46.6313 144.064C46.6313 144.181 46.5846 144.294 46.5016 144.377C46.4185 144.46 46.3059 144.507 46.1884 144.507H44.6429C44.5254 144.507 44.4128 144.46 44.3297 144.377C44.2467 144.294 44.2 144.181 44.2 144.064C44.2 143.946 44.2467 143.834 44.3297 143.751C44.4128 143.667 44.5254 143.621 44.6429 143.621ZM44.6429 145.671H46.1884C46.3059 145.671 46.4185 145.718 46.5016 145.801C46.5846 145.884 46.6313 145.997 46.6313 146.114C46.6313 146.232 46.5846 146.344 46.5016 146.427C46.4185 146.51 46.3059 146.557 46.1884 146.557H44.6429C44.5254 146.557 44.4128 146.51 44.3297 146.427C44.2467 146.344 44.2 146.232 44.2 146.114C44.2 145.997 44.2467 145.884 44.3297 145.801C44.4128 145.718 44.5254 145.671 44.6429 145.671ZM64.9213 137.877H50.0501V152.305H64.0356C64.3879 152.305 64.7259 152.165 64.975 151.916C65.2242 151.667 65.3641 151.329 65.3641 150.977V138.32C65.3641 138.202 65.3175 138.09 65.2344 138.007C65.1514 137.924 65.0387 137.877 64.9213 137.877ZM62.707 150.091H59.5539C59.4364 150.091 59.3238 150.044 59.2407 149.961C59.1577 149.878 59.111 149.766 59.111 149.648C59.111 149.531 59.1577 149.418 59.2407 149.335C59.3238 149.252 59.4364 149.205 59.5539 149.205H62.7114C62.8289 149.205 62.9415 149.252 63.0246 149.335C63.1076 149.418 63.1543 149.531 63.1543 149.648C63.1543 149.766 63.1076 149.878 63.0246 149.961C62.9415 150.044 62.8289 150.091 62.7114 150.091H62.707ZM62.707 148.762H59.5539C59.4364 148.762 59.3238 148.716 59.2407 148.633C59.1577 148.55 59.111 148.437 59.111 148.32C59.111 148.202 59.1577 148.089 59.2407 148.006C59.3238 147.923 59.4364 147.877 59.5539 147.877H62.7114C62.8289 147.877 62.9415 147.923 63.0246 148.006C63.1076 148.089 63.1543 148.202 63.1543 148.32C63.1543 148.437 63.1076 148.55 63.0246 148.633C62.9415 148.716 62.8289 148.762 62.7114 148.762H62.707ZM62.707 147.434H59.5539C59.4364 147.434 59.3238 147.387 59.2407 147.304C59.1577 147.221 59.111 147.108 59.111 146.991C59.111 146.873 59.1577 146.761 59.2407 146.678C59.3238 146.595 59.4364 146.548 59.5539 146.548H62.7114C62.8289 146.548 62.9415 146.595 63.0246 146.678C63.1076 146.761 63.1543 146.873 63.1543 146.991C63.1543 147.108 63.1076 147.221 63.0246 147.304C62.9415 147.387 62.8289 147.434 62.7114 147.434H62.707Z" fill="#8474C7"/>
<path d="M81.6165 135.841V134.518H89.4964V135.841H86.3196V144.7H84.7884V135.841H81.6165ZM89.8855 144.7V137.064H91.3223V138.277H91.4018C91.541 137.866 91.7863 137.543 92.1376 137.307C92.4922 137.069 92.8933 136.949 93.3407 136.949C93.4335 136.949 93.5429 136.953 93.6688 136.959C93.7981 136.966 93.8992 136.974 93.9721 136.984V138.406C93.9125 138.39 93.8064 138.371 93.6539 138.351C93.5015 138.328 93.349 138.317 93.1965 138.317C92.8452 138.317 92.532 138.391 92.2569 138.54C91.9851 138.686 91.7697 138.89 91.6106 139.152C91.4515 139.41 91.372 139.705 91.372 140.037V144.7H89.8855ZM96.9725 144.869C96.4885 144.869 96.051 144.78 95.66 144.601C95.2689 144.418 94.959 144.155 94.7303 143.81C94.5049 143.466 94.3922 143.043 94.3922 142.543C94.3922 142.112 94.4751 141.757 94.6408 141.479C94.8065 141.2 95.0302 140.98 95.3119 140.817C95.5937 140.655 95.9085 140.532 96.2565 140.449C96.6046 140.367 96.9592 140.304 97.3205 140.261C97.7778 140.208 98.1491 140.164 98.4341 140.131C98.7191 140.095 98.9263 140.037 99.0555 139.957C99.1848 139.878 99.2494 139.748 99.2494 139.57V139.535C99.2494 139.101 99.1268 138.764 98.8815 138.525C98.6396 138.287 98.2783 138.168 97.7977 138.168C97.2973 138.168 96.9028 138.279 96.6145 138.501C96.3295 138.719 96.1323 138.963 96.0229 139.231L94.6259 138.913C94.7916 138.449 95.0335 138.075 95.3517 137.79C95.6732 137.501 96.0428 137.293 96.4604 137.163C96.878 137.031 97.3171 136.964 97.7778 136.964C98.0828 136.964 98.4059 137.001 98.7473 137.074C99.092 137.143 99.4135 137.273 99.7118 137.462C100.013 137.65 100.26 137.921 100.453 138.272C100.645 138.62 100.741 139.072 100.741 139.629V144.7H99.2892V143.656H99.2296C99.1334 143.848 98.9893 144.037 98.797 144.223C98.6048 144.409 98.3579 144.563 98.0563 144.685C97.7546 144.808 97.3934 144.869 96.9725 144.869ZM97.2956 143.676C97.7066 143.676 98.0579 143.595 98.3496 143.432C98.6446 143.27 98.8683 143.058 99.0207 142.796C99.1765 142.531 99.2544 142.248 99.2544 141.946V140.962C99.2014 141.015 99.0986 141.064 98.9462 141.111C98.797 141.154 98.6263 141.192 98.4341 141.225C98.2419 141.255 98.0546 141.283 97.8723 141.31C97.69 141.333 97.5376 141.353 97.4149 141.369C97.1266 141.406 96.8631 141.467 96.6244 141.553C96.3891 141.639 96.2002 141.764 96.0577 141.926C95.9185 142.085 95.8489 142.297 95.8489 142.562C95.8489 142.93 95.9848 143.209 96.2565 143.398C96.5283 143.583 96.8747 143.676 97.2956 143.676ZM103.767 140.166V144.7H102.281V137.064H103.708V138.307H103.802C103.978 137.902 104.253 137.578 104.627 137.332C105.005 137.087 105.481 136.964 106.054 136.964C106.575 136.964 107.03 137.074 107.421 137.293C107.813 137.508 108.116 137.829 108.331 138.257C108.547 138.685 108.654 139.213 108.654 139.843V144.7H107.168V140.022C107.168 139.468 107.024 139.036 106.735 138.724C106.447 138.409 106.051 138.252 105.547 138.252C105.202 138.252 104.896 138.327 104.627 138.476C104.362 138.625 104.152 138.844 103.996 139.132C103.844 139.417 103.767 139.762 103.767 140.166ZM115.93 138.928L114.583 139.167C114.527 138.994 114.437 138.83 114.315 138.675C114.195 138.519 114.033 138.391 113.827 138.292C113.622 138.192 113.365 138.143 113.057 138.143C112.636 138.143 112.285 138.237 112.003 138.426C111.721 138.612 111.58 138.852 111.58 139.147C111.58 139.402 111.675 139.608 111.864 139.763C112.052 139.919 112.357 140.047 112.778 140.146L113.991 140.425C114.694 140.587 115.218 140.837 115.562 141.175C115.907 141.513 116.079 141.953 116.079 142.493C116.079 142.95 115.947 143.358 115.682 143.716C115.42 144.07 115.054 144.349 114.583 144.551C114.116 144.753 113.574 144.854 112.957 144.854C112.102 144.854 111.405 144.672 110.864 144.307C110.324 143.94 109.993 143.418 109.87 142.741L111.307 142.523C111.396 142.897 111.58 143.181 111.859 143.373C112.137 143.562 112.5 143.656 112.947 143.656C113.435 143.656 113.824 143.555 114.116 143.353C114.407 143.147 114.553 142.897 114.553 142.602C114.553 142.364 114.464 142.163 114.285 142.001C114.109 141.838 113.839 141.716 113.474 141.633L112.182 141.349C111.469 141.187 110.942 140.928 110.601 140.574C110.263 140.219 110.094 139.77 110.094 139.226C110.094 138.776 110.22 138.381 110.472 138.043C110.723 137.705 111.071 137.442 111.516 137.253C111.96 137.061 112.468 136.964 113.042 136.964C113.867 136.964 114.517 137.143 114.991 137.501C115.465 137.856 115.778 138.332 115.93 138.928ZM120.908 137.064V138.257H116.593V137.064H120.908ZM117.776 144.7V136.179C117.776 135.702 117.88 135.306 118.089 134.991C118.298 134.672 118.575 134.436 118.919 134.28C119.264 134.121 119.639 134.041 120.043 134.041C120.341 134.041 120.597 134.066 120.809 134.116C121.021 134.162 121.178 134.205 121.281 134.245L120.933 135.448C120.863 135.428 120.774 135.405 120.665 135.378C120.555 135.349 120.423 135.334 120.267 135.334C119.906 135.334 119.647 135.423 119.491 135.602C119.339 135.781 119.263 136.04 119.263 136.378V144.7H117.776ZM124.918 144.854C124.202 144.854 123.577 144.69 123.043 144.362C122.51 144.034 122.096 143.575 121.801 142.985C121.506 142.395 121.358 141.706 121.358 140.917C121.358 140.125 121.506 139.432 121.801 138.839C122.096 138.245 122.51 137.785 123.043 137.457C123.577 137.128 124.202 136.964 124.918 136.964C125.634 136.964 126.258 137.128 126.792 137.457C127.326 137.785 127.74 138.245 128.035 138.839C128.33 139.432 128.477 140.125 128.477 140.917C128.477 141.706 128.33 142.395 128.035 142.985C127.74 143.575 127.326 144.034 126.792 144.362C126.258 144.69 125.634 144.854 124.918 144.854ZM124.923 143.606C125.387 143.606 125.771 143.484 126.076 143.239C126.381 142.993 126.606 142.667 126.752 142.259C126.901 141.851 126.976 141.402 126.976 140.912C126.976 140.425 126.901 139.977 126.752 139.57C126.606 139.159 126.381 138.829 126.076 138.58C125.771 138.332 125.387 138.207 124.923 138.207C124.455 138.207 124.068 138.332 123.759 138.58C123.454 138.829 123.227 139.159 123.078 139.57C122.932 139.977 122.859 140.425 122.859 140.912C122.859 141.402 122.932 141.851 123.078 142.259C123.227 142.667 123.454 142.993 123.759 143.239C124.068 143.484 124.455 143.606 124.923 143.606ZM129.697 144.7V137.064H131.133V138.277H131.213C131.352 137.866 131.597 137.543 131.949 137.307C132.303 137.069 132.704 136.949 133.152 136.949C133.245 136.949 133.354 136.953 133.48 136.959C133.609 136.966 133.71 136.974 133.783 136.984V138.406C133.724 138.39 133.618 138.371 133.465 138.351C133.313 138.328 133.16 138.317 133.008 138.317C132.656 138.317 132.343 138.391 132.068 138.54C131.796 138.686 131.581 138.89 131.422 139.152C131.263 139.41 131.183 139.705 131.183 140.037V144.7H129.697ZM134.63 144.7V137.064H136.057V138.307H136.151C136.31 137.886 136.57 137.558 136.932 137.322C137.293 137.084 137.725 136.964 138.229 136.964C138.74 136.964 139.167 137.084 139.512 137.322C139.86 137.561 140.117 137.889 140.282 138.307H140.362C140.544 137.899 140.834 137.574 141.232 137.332C141.63 137.087 142.104 136.964 142.654 136.964C143.347 136.964 143.912 137.181 144.349 137.616C144.79 138.05 145.01 138.704 145.01 139.579V144.7H143.524V139.719C143.524 139.202 143.383 138.827 143.101 138.595C142.82 138.363 142.483 138.247 142.092 138.247C141.608 138.247 141.232 138.396 140.963 138.695C140.695 138.989 140.561 139.369 140.561 139.833V144.7H139.079V139.624C139.079 139.21 138.95 138.877 138.691 138.625C138.433 138.373 138.097 138.247 137.682 138.247C137.401 138.247 137.14 138.322 136.902 138.471C136.666 138.617 136.476 138.82 136.33 139.082C136.187 139.344 136.116 139.647 136.116 139.992V144.7H134.63ZM146.563 144.7V137.064H148.049V144.7H146.563ZM147.313 135.886C147.055 135.886 146.833 135.799 146.647 135.627C146.465 135.451 146.374 135.243 146.374 135.001C146.374 134.755 146.465 134.547 146.647 134.374C146.833 134.199 147.055 134.111 147.313 134.111C147.572 134.111 147.792 134.199 147.975 134.374C148.16 134.547 148.253 134.755 148.253 135.001C148.253 135.243 148.16 135.451 147.975 135.627C147.792 135.799 147.572 135.886 147.313 135.886ZM151.096 140.166V144.7H149.609V137.064H151.036V138.307H151.13C151.306 137.902 151.581 137.578 151.956 137.332C152.333 137.087 152.809 136.964 153.382 136.964C153.903 136.964 154.359 137.074 154.75 137.293C155.141 137.508 155.444 137.829 155.659 138.257C155.875 138.685 155.983 139.213 155.983 139.843V144.7H154.496V140.022C154.496 139.468 154.352 139.036 154.064 138.724C153.775 138.409 153.379 138.252 152.875 138.252C152.531 138.252 152.224 138.327 151.956 138.476C151.69 138.625 151.48 138.844 151.324 139.132C151.172 139.417 151.096 139.762 151.096 140.166ZM160.738 147.723C160.131 147.723 159.609 147.643 159.172 147.484C158.738 147.325 158.383 147.115 158.108 146.853C157.833 146.591 157.627 146.304 157.492 145.993L158.769 145.466C158.859 145.612 158.978 145.766 159.127 145.928C159.28 146.094 159.485 146.235 159.744 146.351C160.005 146.467 160.342 146.525 160.753 146.525C161.316 146.525 161.782 146.387 162.15 146.112C162.518 145.84 162.702 145.406 162.702 144.81V143.308H162.607C162.518 143.471 162.389 143.651 162.219 143.85C162.054 144.049 161.825 144.221 161.533 144.367C161.242 144.513 160.862 144.586 160.395 144.586C159.792 144.586 159.248 144.445 158.764 144.163C158.284 143.878 157.902 143.459 157.621 142.905C157.342 142.349 157.203 141.664 157.203 140.852C157.203 140.04 157.341 139.344 157.616 138.764C157.894 138.184 158.275 137.74 158.759 137.432C159.243 137.12 159.792 136.964 160.405 136.964C160.879 136.964 161.262 137.044 161.553 137.203C161.845 137.359 162.072 137.541 162.234 137.75C162.4 137.959 162.528 138.143 162.617 138.302H162.727V137.064H164.183V144.869C164.183 145.525 164.031 146.064 163.726 146.485C163.421 146.906 163.008 147.217 162.488 147.42C161.971 147.622 161.388 147.723 160.738 147.723ZM160.723 143.353C161.151 143.353 161.512 143.253 161.807 143.055C162.105 142.852 162.331 142.564 162.483 142.19C162.639 141.812 162.717 141.359 162.717 140.832C162.717 140.319 162.64 139.866 162.488 139.475C162.335 139.084 162.112 138.779 161.817 138.56C161.522 138.338 161.157 138.227 160.723 138.227C160.276 138.227 159.903 138.343 159.604 138.575C159.306 138.804 159.081 139.115 158.928 139.51C158.779 139.904 158.705 140.345 158.705 140.832C158.705 141.333 158.781 141.772 158.933 142.15C159.086 142.528 159.311 142.823 159.609 143.035C159.911 143.247 160.282 143.353 160.723 143.353ZM169.121 144.7V134.518H172.751C173.543 134.518 174.199 134.663 174.719 134.951C175.24 135.239 175.629 135.634 175.888 136.134C176.146 136.631 176.275 137.191 176.275 137.815C176.275 138.441 176.144 139.004 175.883 139.505C175.624 140.002 175.233 140.396 174.709 140.688C174.189 140.976 173.534 141.121 172.746 141.121H170.25V139.818H172.606C173.107 139.818 173.513 139.732 173.824 139.56C174.136 139.384 174.365 139.145 174.51 138.844C174.656 138.542 174.729 138.199 174.729 137.815C174.729 137.43 174.656 137.089 174.51 136.79C174.365 136.492 174.134 136.258 173.819 136.089C173.508 135.92 173.097 135.836 172.586 135.836H170.657V144.7H169.121ZM179.671 144.869C179.187 144.869 178.75 144.78 178.358 144.601C177.967 144.418 177.657 144.155 177.429 143.81C177.203 143.466 177.091 143.043 177.091 142.543C177.091 142.112 177.174 141.757 177.339 141.479C177.505 141.2 177.729 140.98 178.01 140.817C178.292 140.655 178.607 140.532 178.955 140.449C179.303 140.367 179.658 140.304 180.019 140.261C180.476 140.208 180.848 140.164 181.133 140.131C181.418 140.095 181.625 140.037 181.754 139.957C181.883 139.878 181.948 139.748 181.948 139.57V139.535C181.948 139.101 181.825 138.764 181.58 138.525C181.338 138.287 180.977 138.168 180.496 138.168C179.996 138.168 179.601 138.279 179.313 138.501C179.028 138.719 178.831 138.963 178.721 139.231L177.324 138.913C177.49 138.449 177.732 138.075 178.05 137.79C178.372 137.501 178.741 137.293 179.159 137.163C179.577 137.031 180.016 136.964 180.476 136.964C180.781 136.964 181.104 137.001 181.446 137.074C181.791 137.143 182.112 137.273 182.41 137.462C182.712 137.65 182.959 137.921 183.151 138.272C183.343 138.62 183.439 139.072 183.439 139.629V144.7H181.988V143.656H181.928C181.832 143.848 181.688 144.037 181.496 144.223C181.303 144.409 181.056 144.563 180.755 144.685C180.453 144.808 180.092 144.869 179.671 144.869ZM179.994 143.676C180.405 143.676 180.756 143.595 181.048 143.432C181.343 143.27 181.567 143.058 181.719 142.796C181.875 142.531 181.953 142.248 181.953 141.946V140.962C181.9 141.015 181.797 141.064 181.645 141.111C181.496 141.154 181.325 141.192 181.133 141.225C180.94 141.255 180.753 141.283 180.571 141.31C180.389 141.333 180.236 141.353 180.113 141.369C179.825 141.406 179.562 141.467 179.323 141.553C179.088 141.639 178.899 141.764 178.756 141.926C178.617 142.085 178.547 142.297 178.547 142.562C178.547 142.93 178.683 143.209 178.955 143.398C179.227 143.583 179.573 143.676 179.994 143.676ZM188.544 137.064V138.257H184.373V137.064H188.544ZM185.491 135.234H186.978V142.458C186.978 142.746 187.021 142.963 187.107 143.109C187.193 143.252 187.304 143.35 187.44 143.403C187.58 143.452 187.73 143.477 187.893 143.477C188.012 143.477 188.116 143.469 188.206 143.452C188.295 143.436 188.365 143.422 188.415 143.413L188.683 144.641C188.597 144.674 188.474 144.707 188.315 144.74C188.156 144.776 187.957 144.796 187.719 144.8C187.328 144.806 186.963 144.737 186.625 144.591C186.287 144.445 186.013 144.22 185.805 143.915C185.596 143.61 185.491 143.227 185.491 142.766V135.234ZM189.748 144.7V137.064H191.235V144.7H189.748ZM190.499 135.886C190.241 135.886 190.018 135.799 189.833 135.627C189.651 135.451 189.559 135.243 189.559 135.001C189.559 134.755 189.651 134.547 189.833 134.374C190.018 134.199 190.241 134.111 190.499 134.111C190.758 134.111 190.978 134.199 191.16 134.374C191.346 134.547 191.439 134.755 191.439 135.001C191.439 135.243 191.346 135.451 191.16 135.627C190.978 135.799 190.758 135.886 190.499 135.886ZM196.086 144.854C195.334 144.854 194.686 144.694 194.142 144.372C193.602 144.047 193.184 143.592 192.889 143.005C192.597 142.415 192.452 141.724 192.452 140.932C192.452 140.15 192.597 139.46 192.889 138.864C193.184 138.267 193.595 137.801 194.122 137.467C194.652 137.132 195.272 136.964 195.981 136.964C196.412 136.964 196.83 137.036 197.234 137.178C197.639 137.321 198.002 137.544 198.323 137.849C198.645 138.154 198.898 138.55 199.084 139.038C199.269 139.521 199.362 140.11 199.362 140.802V141.329H193.292V140.216H197.905C197.905 139.825 197.826 139.478 197.667 139.177C197.508 138.872 197.284 138.632 196.996 138.456C196.711 138.28 196.376 138.192 195.991 138.192C195.574 138.192 195.209 138.295 194.898 138.501C194.589 138.703 194.351 138.968 194.182 139.296C194.016 139.621 193.933 139.974 193.933 140.355V141.225C193.933 141.735 194.023 142.17 194.202 142.528C194.384 142.886 194.637 143.159 194.962 143.348C195.287 143.534 195.667 143.626 196.101 143.626C196.383 143.626 196.639 143.587 196.871 143.507C197.103 143.424 197.304 143.302 197.473 143.139C197.642 142.977 197.771 142.776 197.861 142.538L199.268 142.791C199.155 143.205 198.953 143.568 198.661 143.88C198.373 144.188 198.01 144.428 197.572 144.601C197.138 144.77 196.643 144.854 196.086 144.854ZM202.058 140.166V144.7H200.571V137.064H201.998V138.307H202.093C202.268 137.902 202.544 137.578 202.918 137.332C203.296 137.087 203.772 136.964 204.345 136.964C204.865 136.964 205.321 137.074 205.712 137.293C206.103 137.508 206.406 137.829 206.622 138.257C206.837 138.685 206.945 139.213 206.945 139.843V144.7H205.459V140.022C205.459 139.468 205.314 139.036 205.026 138.724C204.738 138.409 204.342 138.252 203.838 138.252C203.493 138.252 203.187 138.327 202.918 138.476C202.653 138.625 202.442 138.844 202.287 139.132C202.134 139.417 202.058 139.762 202.058 140.166ZM212.063 137.064V138.257H207.892V137.064H212.063ZM209.011 135.234H210.497V142.458C210.497 142.746 210.54 142.963 210.627 143.109C210.713 143.252 210.824 143.35 210.96 143.403C211.099 143.452 211.25 143.477 211.412 143.477C211.531 143.477 211.636 143.469 211.725 143.452C211.815 143.436 211.884 143.422 211.934 143.413L212.202 144.641C212.116 144.674 211.994 144.707 211.835 144.74C211.676 144.776 211.477 144.796 211.238 144.8C210.847 144.806 210.482 144.737 210.144 144.591C209.806 144.445 209.533 144.22 209.324 143.915C209.115 143.61 209.011 143.227 209.011 142.766V135.234Z" fill="#191919"/>
</g>
<g filter="url(#filter2_d_214_1048)">
<path d="M336.879 175.732L59.6265 180.571C53.913 180.671 49.3621 185.384 49.4618 191.097L49.8952 215.926C49.9949 221.639 54.7075 226.19 60.421 226.09L337.674 221.251C343.387 221.151 347.938 216.439 347.838 210.725L347.405 185.897C347.305 180.183 342.593 175.632 336.879 175.732Z" fill="url(#paint2_linear_214_1048)"/>
<path d="M336.889 176.25L59.6366 181.089C54.2087 181.184 49.8854 185.661 49.9801 191.089L50.4135 215.917C50.5083 221.345 54.9852 225.668 60.4131 225.574L337.666 220.734C343.094 220.64 347.417 216.163 347.322 210.735L346.889 185.906C346.794 180.478 342.317 176.155 336.889 176.25Z" stroke="#E1E4FE" stroke-width="1.03468"/>
<path d="M83.3251 188.058V212.928C83.3251 213.708 82.6911 214.338 81.9208 214.338H66.7308C66.4161 214.338 66.1155 214.211 65.89 213.985L61.7144 209.805C61.4889 209.58 61.3574 209.274 61.3574 208.955V187.584C61.3574 187.067 61.7801 186.649 62.2968 186.649H81.9208C82.6958 186.649 83.3251 187.278 83.3251 188.058Z" fill="#DBD9E1"/>
<path d="M83.3256 197.358V212.929C83.3256 213.708 82.6915 214.338 81.9212 214.338H81.9118V214.817C81.9118 215.334 81.4891 215.752 80.9724 215.752H77.647C77.492 215.442 77.4121 215.094 77.4121 214.723V205.756C77.4121 204.925 77.7691 204.127 78.3656 203.568C78.1495 203.286 78.018 202.929 78.018 202.548V201.778C78.018 201.384 78.1542 201.012 78.3891 200.721V199.744C78.3891 198.424 79.4647 197.354 80.7798 197.354H83.3256V197.358Z" fill="#BAB8C3"/>
<path d="M81.9122 193.441V214.816C81.9122 215.333 81.4895 215.751 80.9729 215.751H61.3583C60.5786 215.751 59.9492 215.117 59.9492 214.342V189.472C59.9492 188.697 60.5833 188.062 61.3583 188.062H76.5436C76.8583 188.062 77.1589 188.189 77.3844 188.415L81.56 192.595C81.7854 192.821 81.9122 193.121 81.9122 193.441Z" fill="#F1F0F6"/>
<path d="M81.9109 197.358V214.817C81.9109 215.333 81.4929 215.751 80.9762 215.751H78.2895C78.1345 215.441 78.0547 215.094 78.0547 214.723V205.756C78.0547 204.925 78.4117 204.126 79.0082 203.567C78.7921 203.285 78.6606 202.929 78.6606 202.548V201.778C78.6606 201.383 78.7968 201.012 79.0317 200.721V199.039C79.0317 198.109 79.7832 197.358 80.7132 197.358H81.9109Z" fill="#DBD9E1"/>
<path d="M81.9118 193.432V193.483H77.088C76.7545 193.483 76.4962 193.22 76.4962 192.891V188.063H76.5432C76.8579 188.063 77.1585 188.185 77.3839 188.411L81.5595 192.586C81.785 192.816 81.9118 193.117 81.9118 193.432Z" fill="#BAB8C3"/>
<path d="M65.4304 193.295H63.5845C63.3309 193.295 63.1289 193.093 63.1289 192.84V190.787C63.1289 190.534 63.3309 190.332 63.5845 190.332H65.4304C66.2477 190.332 66.91 190.994 66.91 191.811C66.91 192.628 66.2477 193.295 65.4304 193.295ZM64.0401 192.389H65.4304C65.7451 192.389 66.0035 192.135 66.0035 191.816C66.0035 191.496 65.7451 191.243 65.4304 191.243H64.0401V192.389Z" fill="#1D0E5C"/>
<path d="M63.5845 195.348C63.3309 195.348 63.1289 195.146 63.1289 194.892V192.84C63.1289 192.586 63.3309 192.384 63.5845 192.384C63.8381 192.384 64.0401 192.586 64.0401 192.84V194.892C64.0401 195.146 63.8381 195.348 63.5845 195.348ZM68.5257 197.401C68.3942 197.401 68.2627 197.344 68.1688 197.232L64.8762 193.131C64.7165 192.934 64.7494 192.647 64.9466 192.492C65.1439 192.333 65.4304 192.365 65.5854 192.563L68.878 196.663C69.0377 196.86 69.0048 197.147 68.8075 197.302C68.7277 197.368 68.6291 197.401 68.5257 197.401Z" fill="#1D0E5C"/>
<path d="M65.2338 197.4C65.1351 197.4 65.0318 197.367 64.9473 197.302C64.75 197.147 64.7218 196.86 64.8768 196.663L68.1694 192.562C68.3244 192.365 68.6109 192.337 68.8082 192.492C69.0054 192.647 69.0336 192.934 68.8786 193.131L65.586 197.231C65.4968 197.339 65.3653 197.4 65.2338 197.4Z" fill="#1D0E5C"/>
<path d="M71.9314 212.538H63.5849C63.3266 212.538 63.1152 212.75 63.1152 213.008C63.1152 213.266 63.3266 213.478 63.5849 213.478H71.9314C72.1898 213.478 72.4011 213.266 72.4011 213.008C72.4011 212.75 72.1898 212.538 71.9314 212.538ZM69.2448 209.734H63.5849C63.3266 209.734 63.1152 209.946 63.1152 210.204C63.1152 210.462 63.3266 210.674 63.5849 210.674H69.2448C69.5031 210.674 69.7145 210.462 69.7145 210.204C69.7145 209.946 69.5031 209.734 69.2448 209.734Z" fill="#DBD9E1"/>
<path d="M89.0504 205.756V214.727C89.0504 215.296 88.5854 215.756 88.0218 215.756H79.8021C79.2337 215.756 78.7734 215.296 78.7734 214.727V205.756C78.7734 205.254 79.0083 204.779 79.4028 204.474C79.8021 204.169 80.0322 203.694 80.0322 203.192V202.877H87.7916V203.192C87.7916 203.694 88.0265 204.169 88.421 204.474C88.8203 204.779 89.0504 205.254 89.0504 205.756Z" fill="#6A46FF"/>
<path d="M88.0453 210.979C87.7916 210.979 87.5897 210.777 87.5897 210.524V207.86C87.5897 207.607 87.7916 207.405 88.0453 207.405C88.2989 207.405 88.5009 207.607 88.5009 207.86V210.524C88.5009 210.777 88.2942 210.979 88.0453 210.979Z" fill="#886BFF"/>
<path d="M87.7953 203.285C87.7953 203.253 87.7906 203.22 87.7906 203.187V202.872H80.0359V203.187C80.0359 203.22 80.0312 203.253 80.0312 203.285H87.7953Z" fill="#5F3FE5"/>
<path d="M79.7559 201.463V199.152C79.7559 198.584 80.2162 198.124 80.7845 198.124H87.0456C87.6139 198.124 88.0742 198.584 88.0742 199.152V201.463H79.7559Z" fill="#3D1CC7"/>
<path d="M81.229 202.121C80.9754 202.121 80.7734 201.919 80.7734 201.665V199.472C80.7734 199.218 80.9754 199.016 81.229 199.016C81.4827 199.016 81.6846 199.218 81.6846 199.472V201.665C81.6846 201.919 81.4827 202.121 81.229 202.121ZM83.0186 202.121C82.765 202.121 82.563 201.919 82.563 201.665V199.472C82.563 199.218 82.765 199.016 83.0186 199.016C83.2722 199.016 83.4742 199.218 83.4742 199.472V201.665C83.4742 201.919 83.2675 202.121 83.0186 202.121ZM84.8081 202.121C84.5545 202.121 84.3525 201.919 84.3525 201.665V199.472C84.3525 199.218 84.5545 199.016 84.8081 199.016C85.0618 199.016 85.2637 199.218 85.2637 199.472V201.665C85.2637 201.919 85.0571 202.121 84.8081 202.121ZM86.5977 202.121C86.344 202.121 86.1421 201.919 86.1421 201.665V199.472C86.1421 199.218 86.344 199.016 86.5977 199.016C86.8513 199.016 87.0533 199.218 87.0533 199.472V201.665C87.0486 201.919 86.8466 202.121 86.5977 202.121Z" fill="#8474C7"/>
<path d="M88.4452 201.782V202.553C88.4452 202.731 88.2996 202.872 88.1258 202.872H79.7042C79.5257 202.872 79.3848 202.726 79.3848 202.553V201.782C79.3848 201.604 79.5304 201.463 79.7042 201.463H88.1211C88.2996 201.463 88.4452 201.604 88.4452 201.782Z" fill="#1D0E5C"/>
<path d="M85.1707 207.043V213.44C85.1707 213.713 84.95 213.933 84.6822 213.933H78.7734V206.55H84.6775C84.95 206.55 85.1707 206.771 85.1707 207.043Z" fill="white"/>
<path d="M78.2771 202.083H63.5849C63.3266 202.083 63.1152 202.295 63.1152 202.553C63.1152 202.811 63.3266 203.023 63.5849 203.023H78.2771C78.5354 203.023 78.7467 202.811 78.7467 202.553C78.7467 202.295 78.5354 202.083 78.2771 202.083ZM78.2771 199.279H63.5849C63.3266 199.279 63.1152 199.491 63.1152 199.749C63.1152 200.007 63.3266 200.219 63.5849 200.219H78.2771C78.5354 200.219 78.7467 200.007 78.7467 199.749C78.7467 199.491 78.5354 199.279 78.2771 199.279ZM78.2771 196.475H71.2974C71.039 196.475 70.8277 196.686 70.8277 196.945C70.8277 197.203 71.039 197.414 71.2974 197.414H78.2771C78.5354 197.414 78.7467 197.203 78.7467 196.945C78.7467 196.686 78.5354 196.475 78.2771 196.475Z" fill="#DBD9E1"/>
<path d="M74.2377 204.887H63.5849C63.3266 204.887 63.1152 205.099 63.1152 205.357C63.1152 205.615 63.3266 205.827 63.5849 205.827H74.2377C74.496 205.827 74.7074 205.615 74.7074 205.357C74.7074 205.099 74.496 204.887 74.2377 204.887Z" fill="#DBD9E1"/>
<path d="M104.119 206.7V196.518H105.655V200.943H110.731V196.518H112.272V206.7H110.731V202.261H105.655V206.7H104.119ZM117.241 206.854C116.489 206.854 115.841 206.694 115.297 206.372C114.757 206.047 114.339 205.592 114.044 205.005C113.753 204.415 113.607 203.724 113.607 202.932C113.607 202.15 113.753 201.46 114.044 200.864C114.339 200.267 114.75 199.801 115.277 199.467C115.808 199.132 116.427 198.964 117.137 198.964C117.568 198.964 117.985 199.036 118.39 199.178C118.794 199.321 119.157 199.544 119.478 199.849C119.8 200.154 120.053 200.55 120.239 201.038C120.425 201.521 120.517 202.11 120.517 202.802V203.329H114.447V202.216H119.061C119.061 201.825 118.981 201.478 118.822 201.177C118.663 200.872 118.439 200.632 118.151 200.456C117.866 200.28 117.531 200.192 117.147 200.192C116.729 200.192 116.364 200.295 116.053 200.501C115.745 200.703 115.506 200.968 115.337 201.296C115.171 201.621 115.088 201.974 115.088 202.355V203.225C115.088 203.735 115.178 204.17 115.357 204.528C115.539 204.886 115.793 205.159 116.118 205.348C116.442 205.534 116.822 205.626 117.256 205.626C117.538 205.626 117.795 205.587 118.027 205.507C118.259 205.424 118.459 205.302 118.628 205.139C118.797 204.977 118.926 204.776 119.016 204.538L120.423 204.791C120.31 205.205 120.108 205.568 119.816 205.88C119.528 206.188 119.165 206.428 118.728 206.601C118.293 206.77 117.798 206.854 117.241 206.854ZM123.949 206.869C123.465 206.869 123.028 206.78 122.637 206.601C122.245 206.418 121.936 206.155 121.707 205.81C121.481 205.466 121.369 205.043 121.369 204.543C121.369 204.112 121.452 203.757 121.617 203.479C121.783 203.2 122.007 202.98 122.289 202.817C122.57 202.655 122.885 202.532 123.233 202.449C123.581 202.367 123.936 202.304 124.297 202.261C124.754 202.208 125.126 202.164 125.411 202.131C125.696 202.095 125.903 202.037 126.032 201.957C126.161 201.878 126.226 201.748 126.226 201.57V201.535C126.226 201.101 126.103 200.764 125.858 200.525C125.616 200.287 125.255 200.168 124.774 200.168C124.274 200.168 123.879 200.279 123.591 200.501C123.306 200.719 123.109 200.963 122.999 201.231L121.602 200.913C121.768 200.449 122.01 200.075 122.328 199.79C122.65 199.501 123.019 199.293 123.437 199.163C123.855 199.031 124.294 198.964 124.754 198.964C125.059 198.964 125.382 199.001 125.724 199.074C126.069 199.143 126.39 199.273 126.688 199.462C126.99 199.65 127.237 199.921 127.429 200.272C127.621 200.62 127.717 201.072 127.717 201.629V206.7H126.266V205.656H126.206C126.11 205.848 125.966 206.037 125.774 206.223C125.581 206.409 125.334 206.563 125.033 206.685C124.731 206.808 124.37 206.869 123.949 206.869ZM124.272 205.676C124.683 205.676 125.034 205.595 125.326 205.432C125.621 205.27 125.845 205.058 125.997 204.796C126.153 204.531 126.231 204.248 126.231 203.946V202.962C126.178 203.015 126.075 203.064 125.923 203.111C125.774 203.154 125.603 203.192 125.411 203.225C125.218 203.255 125.031 203.283 124.849 203.31C124.667 203.333 124.514 203.353 124.391 203.369C124.103 203.406 123.84 203.467 123.601 203.553C123.366 203.639 123.177 203.764 123.034 203.926C122.895 204.085 122.825 204.297 122.825 204.562C122.825 204.93 122.961 205.209 123.233 205.398C123.505 205.583 123.851 205.676 124.272 205.676ZM130.744 196.518V206.7H129.257V196.518H130.744ZM135.868 199.064V200.257H131.697V199.064H135.868ZM132.816 197.234H134.302V204.458C134.302 204.746 134.345 204.963 134.432 205.109C134.518 205.252 134.629 205.35 134.765 205.403C134.904 205.452 135.055 205.477 135.217 205.477C135.336 205.477 135.441 205.469 135.53 205.452C135.62 205.436 135.689 205.422 135.739 205.413L136.008 206.641C135.921 206.674 135.799 206.707 135.64 206.74C135.481 206.776 135.282 206.796 135.043 206.8C134.652 206.806 134.287 206.737 133.949 206.591C133.611 206.445 133.338 206.22 133.129 205.915C132.92 205.61 132.816 205.227 132.816 204.766V197.234ZM138.723 202.166V206.7H137.237V196.518H138.703V200.307H138.798C138.977 199.896 139.25 199.569 139.618 199.327C139.986 199.085 140.467 198.964 141.06 198.964C141.584 198.964 142.041 199.072 142.432 199.288C142.827 199.503 143.131 199.824 143.347 200.252C143.566 200.676 143.675 201.207 143.675 201.843V206.7H142.188V202.022C142.188 201.462 142.044 201.028 141.756 200.719C141.468 200.408 141.067 200.252 140.553 200.252C140.202 200.252 139.887 200.327 139.608 200.476C139.333 200.625 139.116 200.844 138.957 201.132C138.801 201.417 138.723 201.762 138.723 202.166ZM148.435 206.854C147.696 206.854 147.06 206.687 146.526 206.352C145.996 206.014 145.588 205.548 145.303 204.955C145.018 204.362 144.876 203.682 144.876 202.917C144.876 202.141 145.021 201.457 145.313 200.864C145.605 200.267 146.016 199.801 146.546 199.467C147.076 199.132 147.701 198.964 148.42 198.964C149 198.964 149.517 199.072 149.972 199.288C150.426 199.5 150.792 199.798 151.07 200.182C151.352 200.567 151.519 201.016 151.572 201.53H150.126C150.046 201.172 149.864 200.864 149.579 200.605C149.297 200.347 148.919 200.217 148.445 200.217C148.031 200.217 147.668 200.327 147.356 200.545C147.048 200.761 146.808 201.069 146.636 201.47C146.463 201.868 146.377 202.338 146.377 202.882C146.377 203.439 146.462 203.919 146.631 204.324C146.8 204.728 147.038 205.041 147.347 205.263C147.658 205.485 148.024 205.597 148.445 205.597C148.727 205.597 148.982 205.545 149.211 205.442C149.443 205.336 149.637 205.186 149.793 204.99C149.952 204.794 150.063 204.559 150.126 204.284H151.572C151.519 204.778 151.359 205.219 151.09 205.606C150.822 205.994 150.462 206.299 150.011 206.521C149.564 206.743 149.039 206.854 148.435 206.854ZM154.944 206.869C154.46 206.869 154.023 206.78 153.632 206.601C153.241 206.418 152.931 206.155 152.702 205.81C152.477 205.466 152.364 205.043 152.364 204.543C152.364 204.112 152.447 203.757 152.613 203.479C152.778 203.2 153.002 202.98 153.284 202.817C153.566 202.655 153.88 202.532 154.228 202.449C154.576 202.367 154.931 202.304 155.292 202.261C155.75 202.208 156.121 202.164 156.406 202.131C156.691 202.095 156.898 202.037 157.027 201.957C157.157 201.878 157.221 201.748 157.221 201.57V201.535C157.221 201.101 157.099 200.764 156.853 200.525C156.611 200.287 156.25 200.168 155.77 200.168C155.269 200.168 154.875 200.279 154.586 200.501C154.301 200.719 154.104 200.963 153.995 201.231L152.598 200.913C152.763 200.449 153.005 200.075 153.324 199.79C153.645 199.501 154.015 199.293 154.432 199.163C154.85 199.031 155.289 198.964 155.75 198.964C156.055 198.964 156.378 199.001 156.719 199.074C157.064 199.143 157.385 199.273 157.684 199.462C157.985 199.65 158.232 199.921 158.424 200.272C158.617 200.62 158.713 201.072 158.713 201.629V206.7H157.261V205.656H157.201C157.105 205.848 156.961 206.037 156.769 206.223C156.577 206.409 156.33 206.563 156.028 206.685C155.727 206.808 155.365 206.869 154.944 206.869ZM155.267 205.676C155.678 205.676 156.03 205.595 156.321 205.432C156.616 205.27 156.84 205.058 156.993 204.796C157.148 204.531 157.226 204.248 157.226 203.946V202.962C157.173 203.015 157.071 203.064 156.918 203.111C156.769 203.154 156.598 203.192 156.406 203.225C156.214 203.255 156.026 203.283 155.844 203.31C155.662 203.333 155.509 203.353 155.387 203.369C155.098 203.406 154.835 203.467 154.596 203.553C154.361 203.639 154.172 203.764 154.03 203.926C153.89 204.085 153.821 204.297 153.821 204.562C153.821 204.93 153.957 205.209 154.228 205.398C154.5 205.583 154.847 205.676 155.267 205.676ZM160.253 206.7V199.064H161.69V200.277H161.769C161.908 199.866 162.154 199.543 162.505 199.307C162.859 199.069 163.261 198.949 163.708 198.949C163.801 198.949 163.91 198.953 164.036 198.959C164.165 198.966 164.266 198.974 164.339 198.984V200.406C164.28 200.39 164.174 200.371 164.021 200.351C163.869 200.328 163.716 200.317 163.564 200.317C163.212 200.317 162.899 200.391 162.624 200.54C162.352 200.686 162.137 200.89 161.978 201.152C161.819 201.41 161.739 201.705 161.739 202.037V206.7H160.253ZM168.204 206.854C167.451 206.854 166.803 206.694 166.26 206.372C165.719 206.047 165.302 205.592 165.007 205.005C164.715 204.415 164.569 203.724 164.569 202.932C164.569 202.15 164.715 201.46 165.007 200.864C165.302 200.267 165.713 199.801 166.24 199.467C166.77 199.132 167.39 198.964 168.099 198.964C168.53 198.964 168.948 199.036 169.352 199.178C169.756 199.321 170.119 199.544 170.441 199.849C170.762 200.154 171.016 200.55 171.201 201.038C171.387 201.521 171.48 202.11 171.48 202.802V203.329H165.409V202.216H170.023C170.023 201.825 169.944 201.478 169.784 201.177C169.625 200.872 169.402 200.632 169.113 200.456C168.828 200.28 168.494 200.192 168.109 200.192C167.691 200.192 167.327 200.295 167.015 200.501C166.707 200.703 166.468 200.968 166.299 201.296C166.134 201.621 166.051 201.974 166.051 202.355V203.225C166.051 203.735 166.14 204.17 166.319 204.528C166.502 204.886 166.755 205.159 167.08 205.348C167.405 205.534 167.784 205.626 168.218 205.626C168.5 205.626 168.757 205.587 168.989 205.507C169.221 205.424 169.422 205.302 169.591 205.139C169.76 204.977 169.889 204.776 169.978 204.538L171.385 204.791C171.273 205.205 171.07 205.568 170.779 205.88C170.49 206.188 170.128 206.428 169.69 206.601C169.256 206.77 168.76 206.854 168.204 206.854ZM179.37 206.7H176.074V196.518H179.474C180.472 196.518 181.329 196.722 182.044 197.13C182.76 197.534 183.309 198.116 183.69 198.875C184.074 199.631 184.267 200.537 184.267 201.594C184.267 202.655 184.073 203.566 183.685 204.329C183.301 205.091 182.744 205.678 182.015 206.089C181.285 206.496 180.404 206.7 179.37 206.7ZM177.61 205.358H179.285C180.061 205.358 180.705 205.212 181.219 204.92C181.733 204.625 182.117 204.199 182.373 203.643C182.628 203.083 182.755 202.4 182.755 201.594C182.755 200.796 182.628 200.118 182.373 199.561C182.121 199.004 181.744 198.582 181.244 198.293C180.744 198.005 180.122 197.861 179.38 197.861H177.61V205.358ZM187.84 206.869C187.356 206.869 186.919 206.78 186.528 206.601C186.136 206.418 185.827 206.155 185.598 205.81C185.372 205.466 185.26 205.043 185.26 204.543C185.26 204.112 185.343 203.757 185.508 203.479C185.674 203.2 185.898 202.98 186.18 202.817C186.461 202.655 186.776 202.532 187.124 202.449C187.472 202.367 187.827 202.304 188.188 202.261C188.645 202.208 189.017 202.164 189.302 202.131C189.587 202.095 189.794 202.037 189.923 201.957C190.052 201.878 190.117 201.748 190.117 201.57V201.535C190.117 201.101 189.994 200.764 189.749 200.525C189.507 200.287 189.146 200.168 188.665 200.168C188.165 200.168 187.77 200.279 187.482 200.501C187.197 200.719 187 200.963 186.89 201.231L185.493 200.913C185.659 200.449 185.901 200.075 186.219 199.79C186.541 199.501 186.91 199.293 187.328 199.163C187.746 199.031 188.185 198.964 188.645 198.964C188.95 198.964 189.274 199.001 189.615 199.074C189.96 199.143 190.281 199.273 190.579 199.462C190.881 199.65 191.128 199.921 191.32 200.272C191.512 200.62 191.608 201.072 191.608 201.629V206.7H190.157V205.656H190.097C190.001 205.848 189.857 206.037 189.665 206.223C189.472 206.409 189.225 206.563 188.924 206.685C188.622 206.808 188.261 206.869 187.84 206.869ZM188.163 205.676C188.574 205.676 188.925 205.595 189.217 205.432C189.512 205.27 189.736 205.058 189.888 204.796C190.044 204.531 190.122 204.248 190.122 203.946V202.962C190.069 203.015 189.966 203.064 189.814 203.111C189.665 203.154 189.494 203.192 189.302 203.225C189.109 203.255 188.922 203.283 188.74 203.31C188.558 203.333 188.405 203.353 188.283 203.369C187.994 203.406 187.731 203.467 187.492 203.553C187.257 203.639 187.068 203.764 186.925 203.926C186.786 204.085 186.716 204.297 186.716 204.562C186.716 204.93 186.852 205.209 187.124 205.398C187.396 205.583 187.742 205.676 188.163 205.676ZM196.713 199.064V200.257H192.542V199.064H196.713ZM193.661 197.234H195.147V204.458C195.147 204.746 195.19 204.963 195.276 205.109C195.362 205.252 195.473 205.35 195.609 205.403C195.749 205.452 195.899 205.477 196.062 205.477C196.181 205.477 196.286 205.469 196.375 205.452C196.464 205.436 196.534 205.422 196.584 205.413L196.852 206.641C196.766 206.674 196.643 206.707 196.484 206.74C196.325 206.776 196.126 206.796 195.888 206.8C195.497 206.806 195.132 206.737 194.794 206.591C194.456 206.445 194.183 206.22 193.974 205.915C193.765 205.61 193.661 205.227 193.661 204.766V197.234ZM200.14 206.869C199.656 206.869 199.218 206.78 198.827 206.601C198.436 206.418 198.126 206.155 197.898 205.81C197.672 205.466 197.559 205.043 197.559 204.543C197.559 204.112 197.642 203.757 197.808 203.479C197.974 203.2 198.197 202.98 198.479 202.817C198.761 202.655 199.076 202.532 199.424 202.449C199.772 202.367 200.126 202.304 200.488 202.261C200.945 202.208 201.316 202.164 201.601 202.131C201.886 202.095 202.094 202.037 202.223 201.957C202.352 201.878 202.417 201.748 202.417 201.57V201.535C202.417 201.101 202.294 200.764 202.049 200.525C201.807 200.287 201.446 200.168 200.965 200.168C200.465 200.168 200.07 200.279 199.782 200.501C199.497 200.719 199.3 200.963 199.19 201.231L197.793 200.913C197.959 200.449 198.201 200.075 198.519 199.79C198.84 199.501 199.21 199.293 199.628 199.163C200.045 199.031 200.484 198.964 200.945 198.964C201.25 198.964 201.573 199.001 201.915 199.074C202.259 199.143 202.581 199.273 202.879 199.462C203.181 199.65 203.428 199.921 203.62 200.272C203.812 200.62 203.908 201.072 203.908 201.629V206.7H202.456V205.656H202.397C202.301 205.848 202.157 206.037 201.964 206.223C201.772 206.409 201.525 206.563 201.224 206.685C200.922 206.808 200.561 206.869 200.14 206.869ZM200.463 205.676C200.874 205.676 201.225 205.595 201.517 205.432C201.812 205.27 202.036 205.058 202.188 204.796C202.344 204.531 202.422 204.248 202.422 203.946V202.962C202.369 203.015 202.266 203.064 202.113 203.111C201.964 203.154 201.794 203.192 201.601 203.225C201.409 203.255 201.222 203.283 201.04 203.31C200.857 203.333 200.705 203.353 200.582 203.369C200.294 203.406 200.03 203.467 199.792 203.553C199.556 203.639 199.367 203.764 199.225 203.926C199.086 204.085 199.016 204.297 199.016 204.562C199.016 204.93 199.152 205.209 199.424 205.398C199.696 205.583 200.042 205.676 200.463 205.676ZM208.833 196.518H210.697L213.938 204.433H214.058L217.299 196.518H219.163V206.7H217.702V199.332H217.607L214.605 206.685H213.391L210.389 199.327H210.294V206.7H208.833V196.518ZM223.06 206.869C222.576 206.869 222.139 206.78 221.747 206.601C221.356 206.418 221.046 206.155 220.818 205.81C220.592 205.466 220.48 205.043 220.48 204.543C220.48 204.112 220.563 203.757 220.728 203.479C220.894 203.2 221.118 202.98 221.399 202.817C221.681 202.655 221.996 202.532 222.344 202.449C222.692 202.367 223.047 202.304 223.408 202.261C223.865 202.208 224.237 202.164 224.522 202.131C224.807 202.095 225.014 202.037 225.143 201.957C225.272 201.878 225.337 201.748 225.337 201.57V201.535C225.337 201.101 225.214 200.764 224.969 200.525C224.727 200.287 224.366 200.168 223.885 200.168C223.385 200.168 222.99 200.279 222.702 200.501C222.417 200.719 222.22 200.963 222.11 201.231L220.713 200.913C220.879 200.449 221.121 200.075 221.439 199.79C221.761 199.501 222.13 199.293 222.548 199.163C222.965 199.031 223.405 198.964 223.865 198.964C224.17 198.964 224.493 199.001 224.835 199.074C225.18 199.143 225.501 199.273 225.799 199.462C226.101 199.65 226.348 199.921 226.54 200.272C226.732 200.62 226.828 201.072 226.828 201.629V206.7H225.377V205.656H225.317C225.221 205.848 225.077 206.037 224.885 206.223C224.692 206.409 224.445 206.563 224.144 206.685C223.842 206.808 223.481 206.869 223.06 206.869ZM223.383 205.676C223.794 205.676 224.145 205.595 224.437 205.432C224.732 205.27 224.956 205.058 225.108 204.796C225.264 204.531 225.342 204.248 225.342 203.946V202.962C225.289 203.015 225.186 203.064 225.034 203.111C224.885 203.154 224.714 203.192 224.522 203.225C224.329 203.255 224.142 203.283 223.96 203.31C223.778 203.333 223.625 203.353 223.502 203.369C223.214 203.406 222.951 203.467 222.712 203.553C222.477 203.639 222.288 203.764 222.145 203.926C222.006 204.085 221.936 204.297 221.936 204.562C221.936 204.93 222.072 205.209 222.344 205.398C222.616 205.583 222.962 205.676 223.383 205.676ZM229.855 202.166V206.7H228.368V199.064H229.795V200.307H229.89C230.065 199.902 230.34 199.578 230.715 199.332C231.093 199.087 231.568 198.964 232.142 198.964C232.662 198.964 233.118 199.074 233.509 199.293C233.9 199.508 234.203 199.829 234.419 200.257C234.634 200.685 234.742 201.213 234.742 201.843V206.7H233.255V202.022C233.255 201.468 233.111 201.036 232.823 200.724C232.535 200.409 232.138 200.252 231.635 200.252C231.29 200.252 230.983 200.327 230.715 200.476C230.45 200.625 230.239 200.844 230.084 201.132C229.931 201.417 229.855 201.762 229.855 202.166ZM238.518 206.869C238.034 206.869 237.596 206.78 237.205 206.601C236.814 206.418 236.504 206.155 236.276 205.81C236.05 205.466 235.938 205.043 235.938 204.543C235.938 204.112 236.02 203.757 236.186 203.479C236.352 203.2 236.576 202.98 236.857 202.817C237.139 202.655 237.454 202.532 237.802 202.449C238.15 202.367 238.505 202.304 238.866 202.261C239.323 202.208 239.694 202.164 239.979 202.131C240.265 202.095 240.472 202.037 240.601 201.957C240.73 201.878 240.795 201.748 240.795 201.57V201.535C240.795 201.101 240.672 200.764 240.427 200.525C240.185 200.287 239.824 200.168 239.343 200.168C238.843 200.168 238.448 200.279 238.16 200.501C237.875 200.719 237.678 200.963 237.568 201.231L236.171 200.913C236.337 200.449 236.579 200.075 236.897 199.79C237.219 199.501 237.588 199.293 238.006 199.163C238.423 199.031 238.863 198.964 239.323 198.964C239.628 198.964 239.951 199.001 240.293 199.074C240.637 199.143 240.959 199.273 241.257 199.462C241.559 199.65 241.806 199.921 241.998 200.272C242.19 200.62 242.286 201.072 242.286 201.629V206.7H240.835V205.656H240.775C240.679 205.848 240.535 206.037 240.342 206.223C240.15 206.409 239.903 206.563 239.602 206.685C239.3 206.808 238.939 206.869 238.518 206.869ZM238.841 205.676C239.252 205.676 239.603 205.595 239.895 205.432C240.19 205.27 240.414 205.058 240.566 204.796C240.722 204.531 240.8 204.248 240.8 203.946V202.962C240.747 203.015 240.644 203.064 240.492 203.111C240.342 203.154 240.172 203.192 239.979 203.225C239.787 203.255 239.6 203.283 239.418 203.31C239.235 203.333 239.083 203.353 238.96 203.369C238.672 203.406 238.408 203.467 238.17 203.553C237.935 203.639 237.746 203.764 237.603 203.926C237.464 204.085 237.394 204.297 237.394 204.562C237.394 204.93 237.53 205.209 237.802 205.398C238.074 205.583 238.42 205.676 238.841 205.676ZM247.028 209.723C246.421 209.723 245.899 209.643 245.462 209.484C245.028 209.325 244.673 209.115 244.398 208.853C244.123 208.591 243.917 208.304 243.781 207.993L245.059 207.466C245.149 207.612 245.268 207.766 245.417 207.928C245.57 208.094 245.775 208.235 246.034 208.351C246.295 208.467 246.632 208.525 247.043 208.525C247.606 208.525 248.072 208.387 248.44 208.112C248.808 207.84 248.992 207.406 248.992 206.81V205.308H248.897C248.808 205.471 248.679 205.651 248.509 205.85C248.344 206.049 248.115 206.221 247.823 206.367C247.532 206.513 247.152 206.586 246.685 206.586C246.082 206.586 245.538 206.445 245.054 206.163C244.574 205.878 244.192 205.459 243.911 204.905C243.632 204.349 243.493 203.664 243.493 202.852C243.493 202.04 243.631 201.344 243.906 200.764C244.184 200.184 244.565 199.74 245.049 199.432C245.533 199.12 246.082 198.964 246.695 198.964C247.169 198.964 247.552 199.044 247.843 199.203C248.135 199.359 248.362 199.541 248.524 199.75C248.69 199.959 248.818 200.143 248.907 200.302H249.017V199.064H250.473V206.869C250.473 207.525 250.321 208.064 250.016 208.485C249.711 208.906 249.298 209.217 248.778 209.42C248.261 209.622 247.678 209.723 247.028 209.723ZM247.013 205.353C247.441 205.353 247.802 205.253 248.097 205.055C248.395 204.852 248.621 204.564 248.773 204.19C248.929 203.812 249.007 203.359 249.007 202.832C249.007 202.319 248.93 201.866 248.778 201.475C248.625 201.084 248.402 200.779 248.107 200.56C247.812 200.338 247.447 200.227 247.013 200.227C246.566 200.227 246.193 200.343 245.894 200.575C245.596 200.804 245.371 201.115 245.218 201.51C245.069 201.904 244.995 202.345 244.995 202.832C244.995 203.333 245.071 203.772 245.223 204.15C245.376 204.528 245.601 204.823 245.899 205.035C246.201 205.247 246.572 205.353 247.013 205.353ZM255.318 206.854C254.566 206.854 253.918 206.694 253.374 206.372C252.834 206.047 252.416 205.592 252.121 205.005C251.83 204.415 251.684 203.724 251.684 202.932C251.684 202.15 251.83 201.46 252.121 200.864C252.416 200.267 252.827 199.801 253.354 199.467C253.885 199.132 254.504 198.964 255.214 198.964C255.645 198.964 256.062 199.036 256.466 199.178C256.871 199.321 257.234 199.544 257.555 199.849C257.877 200.154 258.13 200.55 258.316 201.038C258.502 201.521 258.594 202.11 258.594 202.802V203.329H252.524V202.216H257.138C257.138 201.825 257.058 201.478 256.899 201.177C256.74 200.872 256.516 200.632 256.228 200.456C255.943 200.28 255.608 200.192 255.224 200.192C254.806 200.192 254.441 200.295 254.13 200.501C253.822 200.703 253.583 200.968 253.414 201.296C253.248 201.621 253.165 201.974 253.165 202.355V203.225C253.165 203.735 253.255 204.17 253.434 204.528C253.616 204.886 253.87 205.159 254.194 205.348C254.519 205.534 254.899 205.626 255.333 205.626C255.615 205.626 255.872 205.587 256.104 205.507C256.336 205.424 256.536 205.302 256.705 205.139C256.874 204.977 257.003 204.776 257.093 204.538L258.5 204.791C258.387 205.205 258.185 205.568 257.893 205.88C257.605 206.188 257.242 206.428 256.805 206.601C256.37 206.77 255.875 206.854 255.318 206.854ZM259.804 206.7V199.064H261.231V200.307H261.325C261.484 199.886 261.744 199.558 262.106 199.322C262.467 199.084 262.899 198.964 263.403 198.964C263.914 198.964 264.341 199.084 264.686 199.322C265.034 199.561 265.291 199.889 265.456 200.307H265.536C265.718 199.899 266.008 199.574 266.406 199.332C266.804 199.087 267.278 198.964 267.828 198.964C268.521 198.964 269.086 199.181 269.523 199.616C269.964 200.05 270.184 200.704 270.184 201.579V206.7H268.698V201.719C268.698 201.202 268.557 200.827 268.275 200.595C267.994 200.363 267.657 200.247 267.266 200.247C266.782 200.247 266.406 200.396 266.137 200.695C265.869 200.989 265.735 201.369 265.735 201.833V206.7H264.253V201.624C264.253 201.21 264.124 200.877 263.865 200.625C263.607 200.373 263.271 200.247 262.856 200.247C262.575 200.247 262.314 200.322 262.076 200.471C261.84 200.617 261.65 200.82 261.504 201.082C261.361 201.344 261.29 201.647 261.29 201.992V206.7H259.804ZM275.028 206.854C274.276 206.854 273.628 206.694 273.084 206.372C272.544 206.047 272.126 205.592 271.831 205.005C271.54 204.415 271.394 203.724 271.394 202.932C271.394 202.15 271.54 201.46 271.831 200.864C272.126 200.267 272.537 199.801 273.064 199.467C273.594 199.132 274.214 198.964 274.924 198.964C275.354 198.964 275.772 199.036 276.176 199.178C276.581 199.321 276.944 199.544 277.265 199.849C277.587 200.154 277.84 200.55 278.026 201.038C278.211 201.521 278.304 202.11 278.304 202.802V203.329H272.234V202.216H276.848C276.848 201.825 276.768 201.478 276.609 201.177C276.45 200.872 276.226 200.632 275.938 200.456C275.653 200.28 275.318 200.192 274.933 200.192C274.516 200.192 274.151 200.295 273.84 200.501C273.531 200.703 273.293 200.968 273.124 201.296C272.958 201.621 272.875 201.974 272.875 202.355V203.225C272.875 203.735 272.965 204.17 273.144 204.528C273.326 204.886 273.58 205.159 273.904 205.348C274.229 205.534 274.609 205.626 275.043 205.626C275.325 205.626 275.581 205.587 275.813 205.507C276.045 205.424 276.246 205.302 276.415 205.139C276.584 204.977 276.713 204.776 276.803 204.538L278.21 204.791C278.097 205.205 277.895 205.568 277.603 205.88C277.315 206.188 276.952 206.428 276.514 206.601C276.08 206.77 275.585 206.854 275.028 206.854ZM281 202.166V206.7H279.514V199.064H280.94V200.307H281.035C281.21 199.902 281.486 199.578 281.86 199.332C282.238 199.087 282.714 198.964 283.287 198.964C283.807 198.964 284.263 199.074 284.654 199.293C285.045 199.508 285.349 199.829 285.564 200.257C285.779 200.685 285.887 201.213 285.887 201.843V206.7H284.401V202.022C284.401 201.468 284.256 201.036 283.968 200.724C283.68 200.409 283.284 200.252 282.78 200.252C282.435 200.252 282.129 200.327 281.86 200.476C281.595 200.625 281.384 200.844 281.229 201.132C281.076 201.417 281 201.762 281 202.166ZM291.005 199.064V200.257H286.834V199.064H291.005ZM287.953 197.234H289.439V204.458C289.439 204.746 289.482 204.963 289.569 205.109C289.655 205.252 289.766 205.35 289.902 205.403C290.041 205.452 290.192 205.477 290.354 205.477C290.473 205.477 290.578 205.469 290.667 205.452C290.757 205.436 290.826 205.422 290.876 205.413L291.145 206.641C291.058 206.674 290.936 206.707 290.777 206.74C290.618 206.776 290.419 206.796 290.18 206.8C289.789 206.806 289.424 206.737 289.086 206.591C288.748 206.445 288.475 206.22 288.266 205.915C288.057 205.61 287.953 205.227 287.953 204.766V197.234Z" fill="#191919"/>
</g>
</g>
</g>
</g>
<defs>
<filter id="filter0_d_214_1048" x="42.3209" y="46.4991" width="312.659" height="64.6407" filterUnits="userSpaceOnUse" color-interpolation-filters="sRGB">
<feFlood flood-opacity="0" result="BackgroundImageFix"/>
<feColorMatrix in="SourceAlpha" type="matrix" values="0 0 0 0 0 0 0 0 0 0 0 0 0 0 0 0 0 0 127 0" result="hardAlpha"/>
<feOffset dy="2.06936"/>
<feGaussianBlur stdDeviation="3.56965"/>
<feComposite in2="hardAlpha" operator="out"/>
<feColorMatrix type="matrix" values="0 0 0 0 0 0 0 0 0 0 0 0 0 0 0 0 0 0 0.07 0"/>
<feBlend mode="normal" in2="BackgroundImageFix" result="effect1_dropShadow_214_1048"/>
<feBlend mode="normal" in="SourceGraphic" in2="effect1_dropShadow_214_1048" result="shape"/>
</filter>
<filter id="filter1_d_214_1048" x="21.4486" y="111.505" width="356.758" height="59.8047" filterUnits="userSpaceOnUse" color-interpolation-filters="sRGB">
<feFlood flood-opacity="0" result="BackgroundImageFix"/>
<feColorMatrix in="SourceAlpha" type="matrix" values="0 0 0 0 0 0 0 0 0 0 0 0 0 0 0 0 0 0 127 0" result="hardAlpha"/>
<feOffset dy="2.06936"/>
<feGaussianBlur stdDeviation="3.56965"/>
<feComposite in2="hardAlpha" operator="out"/>
<feColorMatrix type="matrix" values="0 0 0 0 0 0 0 0 0 0 0 0 0 0 0 0 0 0 0.07 0"/>
<feBlend mode="normal" in2="BackgroundImageFix" result="effect1_dropShadow_214_1048"/>
<feBlend mode="normal" in="SourceGraphic" in2="effect1_dropShadow_214_1048" result="shape"/>
</filter>
<filter id="filter2_d_214_1048" x="42.3209" y="170.661" width="312.659" height="64.6409" filterUnits="userSpaceOnUse" color-interpolation-filters="sRGB">
<feFlood flood-opacity="0" result="BackgroundImageFix"/>
<feColorMatrix in="SourceAlpha" type="matrix" values="0 0 0 0 0 0 0 0 0 0 0 0 0 0 0 0 0 0 127 0" result="hardAlpha"/>
<feOffset dy="2.06936"/>
<feGaussianBlur stdDeviation="3.56965"/>
<feComposite in2="hardAlpha" operator="out"/>
<feColorMatrix type="matrix" values="0 0 0 0 0 0 0 0 0 0 0 0 0 0 0 0 0 0 0.07 0"/>
<feBlend mode="normal" in2="BackgroundImageFix" result="effect1_dropShadow_214_1048"/>
<feBlend mode="normal" in="SourceGraphic" in2="effect1_dropShadow_214_1048" result="shape"/>
</filter>
<linearGradient id="paint0_linear_214_1048" x1="199.048" y1="53.9904" x2="198.253" y2="99.5095" gradientUnits="userSpaceOnUse">
<stop stop-color="#EFF0FE"/>
<stop offset="1" stop-color="#EFF0FE" stop-opacity="0"/>
</linearGradient>
<linearGradient id="paint1_linear_214_1048" x1="199.828" y1="116.575" x2="199.828" y2="162.101" gradientUnits="userSpaceOnUse">
<stop stop-color="#EFF0FE"/>
<stop offset="1" stop-color="#EFF0FE" stop-opacity="0"/>
</linearGradient>
<linearGradient id="paint2_linear_214_1048" x1="198.253" y1="178.152" x2="199.047" y2="223.671" gradientUnits="userSpaceOnUse">
<stop stop-color="#EFF0FE"/>
<stop offset="1" stop-color="#EFF0FE" stop-opacity="0"/>
</linearGradient>
<clipPath id="clip0_214_1048">
<rect width="358" height="189.34" fill="white" transform="translate(21 46.22)"/>
</clipPath>
<clipPath id="clip1_214_1048">
<rect width="358" height="189.34" fill="white" transform="translate(21 46.22)"/>
</clipPath>
<clipPath id="clip2_214_1048">
<rect width="358" height="189.347" fill="white" transform="translate(21 46.2166)"/>
</clipPath>
</defs>
</svg>
