<svg width="400" height="281" viewBox="0 0 400 281" fill="none" xmlns="http://www.w3.org/2000/svg">
<g clip-path="url(#clip0_214_95)">
<path d="M196.999 416.226C267.233 416.226 324.168 359.29 324.168 289.057C324.168 218.823 267.233 161.888 196.999 161.888C126.766 161.888 69.8301 218.823 69.8301 289.057C69.8301 359.29 126.766 416.226 196.999 416.226Z" stroke="#E1E4FE" stroke-width="1.5" stroke-dasharray="4 4"/>
<path d="M102.554 125.705H70C64.4772 125.705 60 130.182 60 135.705V168.259C60 173.782 64.4772 178.259 70 178.259H102.554C108.077 178.259 112.554 173.782 112.554 168.259V135.705C112.554 130.182 108.077 125.705 102.554 125.705Z" fill="#EFF0FE"/>
<path d="M99.9256 163.285L99.6367 162.707V146.297C99.6371 145.988 99.5693 145.682 99.4381 145.402C99.3069 145.122 99.1156 144.874 98.8777 144.677L97.4145 143.457C97.2296 143.304 97.0807 143.111 96.9787 142.893C96.8767 142.675 96.8239 142.438 96.8242 142.197V141.2H96.8212C96.9675 141.091 97.0863 140.95 97.1682 140.787C97.2501 140.625 97.2928 140.445 97.293 140.263V139.325C97.2926 139.015 97.169 138.717 96.9493 138.497C96.7296 138.277 96.4318 138.154 96.1211 138.153H94.2461C93.9354 138.154 93.6375 138.277 93.4178 138.497C93.1982 138.717 93.0746 139.015 93.0742 139.325V140.263C93.0744 140.445 93.1171 140.625 93.199 140.787C93.2809 140.95 93.3997 141.091 93.546 141.2H93.543V142.197C93.5433 142.438 93.4905 142.675 93.3885 142.893C93.2864 143.111 93.1376 143.304 92.9526 143.457L92.6086 143.744L91.1992 142.053V139.794C91.1992 139.732 91.1745 139.672 91.1306 139.628C91.0866 139.584 91.027 139.56 90.9648 139.56H86.2773C86.2152 139.56 86.1556 139.584 86.1116 139.628C86.0677 139.672 86.043 139.732 86.043 139.794V142.053L85.0725 143.217L84.6631 142.89C84.2576 142.565 83.8031 142.307 83.3167 142.125L81.8197 141.563C80.7639 141.169 79.6048 141.147 78.5351 141.503L78.1361 141.636C77.5537 141.829 77.0128 142.131 76.5416 142.524L75.3195 143.542C74.6922 144.066 74.2046 144.737 73.9006 145.495L73.4035 146.738L73.4072 146.74C73.2404 146.799 73.0893 146.896 72.9651 147.023C72.841 147.149 72.7471 147.302 72.6903 147.47L72.5475 147.898C72.477 148.11 72.4683 148.337 72.5225 148.553L72.7199 149.343C72.7625 149.515 72.8435 149.674 72.9569 149.81C73.0703 149.946 73.213 150.054 73.3744 150.127L72.7738 152.529C72.2484 154.627 72.333 156.83 73.0176 158.881L73.0678 159.031C72.9678 159.487 72.9176 159.952 72.918 160.419C72.918 163.391 74.9156 165.81 77.3711 165.81C77.9292 165.809 78.4801 165.684 78.9839 165.444L80.9038 165.001C81.805 164.794 82.65 164.392 83.3792 163.824L83.0915 163.454C82.4161 163.98 81.6333 164.352 80.7984 164.544L80.0582 164.715C81.1305 163.729 81.8242 162.17 81.8242 160.419C81.8242 157.447 79.8266 155.028 77.3711 155.028C77.3383 155.028 77.3056 155.029 77.273 155.03L77.8594 154.687C78.4562 154.353 79.1132 154.141 79.7925 154.063C80.4717 153.985 81.1597 154.042 81.8166 154.232C82.5832 154.452 83.3879 154.507 84.1773 154.393L85.3394 154.227C85.4961 154.205 85.6502 154.167 85.7995 154.114L85.9017 154.165C86.3045 154.368 86.6526 154.665 86.9167 155.031C87.1809 155.397 87.3533 155.821 87.4196 156.267C87.2198 156.378 87.0366 156.516 86.8752 156.677C86.0374 157.512 85.4832 158.589 85.2909 159.756L85.289 159.767C85.2669 159.9 85.2402 160.032 85.2092 160.162L85.6652 160.271C85.6986 160.13 85.7276 159.987 85.7513 159.844L85.7532 159.833C85.9297 158.762 86.4381 157.774 87.2068 157.008C87.5233 156.69 87.9402 156.491 88.3867 156.445V160.653H83.9336C83.8714 160.653 83.8118 160.678 83.7679 160.722C83.7239 160.766 83.6992 160.826 83.6992 160.888V165.575C83.6992 165.637 83.7239 165.697 83.7679 165.741C83.8118 165.785 83.8714 165.81 83.9336 165.81H98.6704C98.9318 165.81 99.1858 165.723 99.3918 165.562C99.5979 165.401 99.7441 165.176 99.8072 164.922L100.014 164.093C100.082 163.822 100.051 163.535 99.9256 163.285H99.9256ZM99.168 162.528H91.1992V161.122H99.168V162.528ZM90.3528 164.093L90.56 164.922C90.5979 165.073 90.6659 165.216 90.7598 165.341H89.3242V161.122H90.7305V162.707L90.4416 163.285C90.3165 163.535 90.2851 163.822 90.3528 164.093ZM99.168 146.297V153.153H91.1992V146.297C91.1993 146.239 91.2024 146.18 91.2086 146.122H99.1586C99.1648 146.18 99.168 146.239 99.168 146.297H99.168ZM99.168 160.653H91.1992V159.247H99.168V160.653ZM99.168 158.778H91.1992V157.372H99.168V158.778ZM99.168 156.903H91.1992V155.497H99.168V156.903ZM99.168 155.028H91.1992V153.622H99.168V155.028ZM93.2528 143.817C93.4906 143.62 93.6819 143.372 93.8131 143.092C93.9443 142.812 94.0121 142.506 94.0117 142.197V141.411C94.0889 141.427 94.1674 141.435 94.2461 141.435H96.1211C96.1998 141.435 96.2783 141.427 96.3555 141.411V142.197C96.3551 142.506 96.4229 142.812 96.5541 143.092C96.6853 143.372 96.8766 143.62 97.1145 143.817L98.5776 145.037C98.7772 145.203 98.9344 145.414 99.0362 145.653H91.3309C91.4328 145.414 91.59 145.203 91.7895 145.037L93.2528 143.817ZM92.2485 144.044L91.4895 144.677C91.4743 144.689 91.4598 144.703 91.445 144.716H88.7308L86.7777 142.372H90.8551L92.2485 144.044ZM90.7305 140.028V141.903H86.5117V140.028H90.7305ZM82.0586 144.247H82.9961V144.716H82.0586V144.247ZM82.5273 145.653V146.122H81.5898V145.653H82.5273ZM80.6523 142.841H81.5898V143.31H80.6523V142.841ZM80.6523 146.591H79.7148V146.122H80.6523V146.591ZM80.1836 144.716V145.185H79.2461V144.716H80.1836ZM78.3086 143.31H79.2461V143.778H78.3086V143.31ZM78.3086 145.653V146.122H77.3711V145.653H78.3086ZM76.4336 144.247H77.3711V144.716H76.4336V144.247ZM73.1746 149.229L72.9771 148.439C72.9447 148.31 72.9499 148.173 72.9923 148.047L73.1351 147.618C73.1865 147.466 73.2883 147.336 73.4237 147.249C73.5591 147.163 73.7199 147.125 73.8797 147.142L77.1078 147.5C77.2611 147.517 77.4159 147.539 77.5681 147.564L78.7045 147.754C79.6838 147.917 80.6834 147.917 81.6627 147.754L82.799 147.564C82.9513 147.539 83.1061 147.518 83.2594 147.501L83.6992 147.452V149.583C83.2034 149.622 82.7117 149.702 82.2293 149.822C80.886 150.157 79.4812 150.157 78.1379 149.822C77.0207 149.542 75.8595 149.482 74.7194 149.646L73.9562 149.755C73.784 149.78 73.6086 149.74 73.4641 149.643C73.3196 149.546 73.2165 149.398 73.1746 149.229ZM76.6823 160.228C76.8244 160.654 76.8108 161.117 76.644 161.534L76.4427 162.037C76.385 162.181 76.2958 162.311 76.1817 162.416C76.0676 162.521 75.9314 162.6 75.7831 162.646C75.6347 162.692 75.478 162.705 75.3242 162.682C75.1705 162.66 75.0236 162.604 74.8944 162.518C74.6783 162.374 74.5237 162.154 74.4607 161.902C74.2185 160.934 74.2576 159.916 74.5734 158.968L74.6557 158.721C74.7711 158.375 74.9655 158.061 75.2235 157.803C75.4816 157.545 75.7961 157.35 76.1423 157.235C76.2814 157.188 76.4311 157.184 76.5724 157.223C76.7138 157.262 76.8405 157.342 76.9366 157.452C77.0326 157.563 77.0937 157.7 77.112 157.845C77.1303 157.991 77.1052 158.138 77.0396 158.269L76.7854 158.778C76.6738 159.001 76.6073 159.244 76.5896 159.493C76.572 159.741 76.6035 159.991 76.6823 160.228ZM78.1712 159.51C78.0479 159.325 77.9978 159.1 78.0306 158.881C78.0634 158.661 78.1768 158.461 78.3487 158.32C78.5206 158.179 78.7388 158.107 78.9608 158.118C79.1828 158.129 79.3929 158.222 79.5501 158.379C79.8923 158.721 80.1502 159.139 80.3032 159.598C80.4563 160.057 80.5003 160.545 80.4319 161.025C80.2724 162.141 79.6933 163.155 78.8126 163.86L78.3345 164.242C78.1616 164.381 77.9422 164.448 77.7214 164.429C77.5006 164.411 77.2952 164.309 77.1475 164.144C76.9997 163.979 76.9208 163.763 76.927 163.542C76.9332 163.32 77.024 163.11 77.1808 162.953C77.6173 162.516 77.9806 162.012 78.2567 161.46L78.2886 161.396C78.4371 161.099 78.5044 160.769 78.4838 160.437C78.4631 160.106 78.3553 159.786 78.1711 159.51L78.1712 159.51ZM85.2732 153.763L84.1111 153.929C83.3868 154.034 82.6486 153.983 81.9453 153.781C81.2284 153.574 80.4776 153.512 79.7363 153.598C78.9951 153.683 78.2782 153.915 77.6272 154.279L75.414 155.575L75.4153 155.577C74.4823 156.131 73.732 157.069 73.3056 158.22C72.7957 156.399 72.7691 154.477 73.2285 152.643L73.8319 150.23C73.8956 150.231 73.9594 150.228 74.0225 150.219L74.7856 150.11C75.8657 149.955 76.9658 150.011 78.0242 150.277C79.4421 150.63 80.925 150.63 82.3429 150.277C82.7882 150.166 83.2418 150.091 83.6992 150.054V153.388H84.168V145.035L86.2773 142.504L88.3867 145.035V150.967C88.2218 150.995 88.0644 151.056 87.9239 151.147C87.7835 151.237 87.6631 151.356 87.5702 151.495L86.6264 152.91C86.4734 153.14 86.2738 153.334 86.0407 153.481C85.8075 153.628 85.546 153.724 85.2732 153.763ZM86.3179 153.859C86.5952 153.679 86.8329 153.445 87.0164 153.17L87.9602 151.755C88.0668 151.594 88.2305 151.481 88.4181 151.437C88.6056 151.393 88.8027 151.423 88.9693 151.519C89.1358 151.616 89.2592 151.773 89.3143 151.957C89.3694 152.142 89.352 152.34 89.2656 152.512L89.1995 152.644C89.0843 152.874 89.0445 153.135 89.0857 153.388C89.1269 153.642 89.247 153.877 89.429 154.058L89.8417 154.471C89.9642 154.593 90.0476 154.75 90.0814 154.919C90.1151 155.089 90.0978 155.265 90.0315 155.425C89.9652 155.585 89.853 155.722 89.709 155.818C89.565 155.914 89.3957 155.966 89.2225 155.966H88.5924C88.3452 155.966 88.0995 156.003 87.8636 156.077C87.7774 155.619 87.5951 155.185 87.3287 154.802C87.0622 154.42 86.7178 154.099 86.318 153.859H86.3179ZM84.7457 161.122L85.3806 162.074C85.5609 162.344 85.8256 162.546 86.1331 162.649C86.2803 162.698 86.4344 162.723 86.5895 162.723C86.861 162.723 87.1272 162.648 87.3585 162.506C87.5897 162.363 87.777 162.16 87.8995 161.918L88.2972 161.122H88.8555V165.341H86.713C86.8249 165.152 86.8848 164.938 86.8867 164.718C86.8886 164.499 86.8325 164.283 86.724 164.093C86.6156 163.902 86.4586 163.744 86.2691 163.634C86.0796 163.524 85.8643 163.466 85.6451 163.466H84.168V161.122H84.7457ZM99.5597 163.98L99.3525 164.808C99.3147 164.96 99.2269 165.096 99.1033 165.192C98.9797 165.289 98.8273 165.341 98.6704 165.341H91.6968C91.5399 165.341 91.3876 165.289 91.2639 165.192C91.1403 165.096 91.0526 164.96 91.0147 164.808L90.8076 163.98C90.7669 163.817 90.7858 163.645 90.8608 163.495L91.1097 162.997H99.2575L99.5063 163.495C99.5814 163.645 99.6003 163.817 99.5597 163.98Z" fill="#8474C7"/>
<path d="M92.0585 148.728C92.2062 149.108 92.471 149.432 92.8147 149.651C92.4615 149.828 92.1816 150.123 92.0236 150.485L91.9123 150.739C91.8999 150.767 91.8932 150.798 91.8926 150.828C91.892 150.859 91.8975 150.89 91.9087 150.918C91.9199 150.947 91.9366 150.973 91.958 150.995C91.9793 151.018 92.0048 151.035 92.033 151.048L92.2873 151.159C92.6488 151.318 93.0548 151.345 93.4339 151.234C93.3306 151.629 93.3555 152.046 93.505 152.426L93.6355 152.76C93.6467 152.788 93.6634 152.815 93.6848 152.837C93.7061 152.859 93.7316 152.877 93.7598 152.889C93.788 152.901 93.8183 152.908 93.8491 152.909C93.8799 152.909 93.9105 152.904 93.9391 152.893L94.2726 152.762C94.653 152.614 94.9766 152.349 95.1965 152.006C95.373 152.359 95.6678 152.639 96.0296 152.797L96.2839 152.908C96.3121 152.921 96.3425 152.927 96.3733 152.928C96.404 152.929 96.4346 152.923 96.4633 152.912C96.492 152.901 96.5182 152.884 96.5403 152.863C96.5625 152.841 96.5803 152.816 96.5926 152.788L96.704 152.533C96.8626 152.172 96.8892 151.766 96.7792 151.387C96.9375 151.428 97.1005 151.45 97.2642 151.45C97.5061 151.449 97.7459 151.404 97.9711 151.316L98.3046 151.185C98.3625 151.162 98.409 151.118 98.4339 151.061C98.4588 151.004 98.4601 150.939 98.4374 150.881L98.307 150.548C98.1592 150.167 97.894 149.844 97.55 149.624C97.9034 149.448 98.1836 149.153 98.3419 148.791L98.4532 148.537C98.4655 148.508 98.4722 148.478 98.4728 148.447C98.4735 148.417 98.468 148.386 98.4568 148.357C98.4456 148.329 98.4288 148.302 98.4075 148.28C98.3862 148.258 98.3607 148.24 98.3325 148.228L98.0782 148.117C97.7166 147.958 97.3108 147.931 96.9316 148.041C97.0349 147.647 97.01 147.229 96.8604 146.849L96.73 146.516C96.7073 146.458 96.6626 146.412 96.6056 146.387C96.5487 146.362 96.4842 146.36 96.4263 146.383L96.0929 146.514C95.7125 146.661 95.3889 146.926 95.169 147.27C94.9925 146.917 94.6977 146.637 94.3359 146.479L94.0815 146.367C94.0533 146.355 94.023 146.348 93.9922 146.348C93.9614 146.347 93.9308 146.353 93.9022 146.364C93.8735 146.375 93.8473 146.392 93.8251 146.413C93.8029 146.434 93.7852 146.46 93.7728 146.488L93.6615 146.742C93.5029 147.104 93.4763 147.51 93.5863 147.889C93.1915 147.786 92.7741 147.811 92.3944 147.96L92.0609 148.091C92.003 148.113 91.9565 148.158 91.9316 148.215C91.9067 148.272 91.9054 148.336 91.928 148.394L92.0585 148.728ZM92.4752 150.73L92.4356 150.712L92.453 150.673C92.5479 150.455 92.7042 150.27 92.9027 150.141C93.1013 150.011 93.3334 149.942 93.5705 149.942C93.6086 150.143 93.6836 150.335 93.7918 150.508C93.6177 150.669 93.4004 150.776 93.1666 150.815C92.9327 150.855 92.6924 150.825 92.4752 150.73ZM94.1019 152.326L93.9867 152.371L93.9415 152.255C93.8527 152.03 93.8215 151.786 93.8509 151.546C93.8802 151.306 93.9692 151.077 94.1097 150.88C94.3604 151.095 94.67 151.231 94.9985 151.269C94.949 151.506 94.8411 151.726 94.6845 151.911C94.5279 152.096 94.3276 152.238 94.1019 152.326ZM96.2746 152.345L96.2572 152.385L96.2176 152.368C96.0003 152.273 95.8154 152.116 95.6857 151.918C95.5559 151.719 95.4869 151.487 95.4872 151.25C95.6878 151.212 95.8796 151.137 96.0529 151.029C96.214 151.203 96.3208 151.42 96.3602 151.654C96.3996 151.888 96.3699 152.128 96.2746 152.345ZM97.8705 150.719L97.9156 150.834L97.8003 150.879C97.5752 150.968 97.3314 150.999 97.0911 150.97C96.8508 150.94 96.6217 150.851 96.4246 150.711C96.6401 150.46 96.7757 150.151 96.8136 149.822C97.0506 149.872 97.2714 149.98 97.4559 150.136C97.6405 150.293 97.783 150.493 97.8705 150.719ZM97.8902 148.546L97.9298 148.563L97.9125 148.603C97.8176 148.82 97.6612 149.005 97.4627 149.135C97.2642 149.265 97.0321 149.334 96.7949 149.333C96.7569 149.133 96.6819 148.941 96.5737 148.768C96.7477 148.607 96.965 148.5 97.1989 148.46C97.4327 148.421 97.673 148.451 97.8902 148.546ZM96.2636 146.95L96.3788 146.905L96.4239 147.02C96.5128 147.245 96.544 147.489 96.5146 147.729C96.4852 147.97 96.3963 148.199 96.2558 148.396C96.005 148.18 95.6955 148.045 95.367 148.007C95.4165 147.77 95.5245 147.549 95.6811 147.365C95.8377 147.18 96.0379 147.038 96.2636 146.95ZM94.0908 146.93L94.1082 146.891L94.1479 146.908C94.3652 147.003 94.5501 147.159 94.6799 147.358C94.8096 147.556 94.8786 147.788 94.8783 148.026C94.6776 148.064 94.4858 148.139 94.3126 148.247C94.1514 148.073 94.0446 147.856 94.0052 147.622C93.9658 147.388 93.9956 147.148 94.0908 146.93ZM92.5651 148.397C92.7903 148.308 93.0341 148.277 93.2744 148.306C93.5146 148.335 93.7438 148.424 93.9409 148.565C93.7253 148.816 93.5898 149.125 93.5518 149.454C93.3149 149.404 93.0941 149.296 92.9095 149.14C92.7249 148.983 92.5824 148.783 92.495 148.557L92.4499 148.442L92.5651 148.397Z" fill="#8474C7"/>
<path d="M92.554 17.7048H60C54.4772 17.7048 50 22.182 50 27.7048V60.2588C50 65.7817 54.4772 70.2588 60 70.2588H92.554C98.0768 70.2588 102.554 65.7817 102.554 60.2588V27.7048C102.554 22.182 98.0768 17.7048 92.554 17.7048Z" fill="#EFF0FE"/>
<g clip-path="url(#clip1_214_95)">
<path fill-rule="evenodd" clip-rule="evenodd" d="M77.095 35.6776C75.2497 35.6776 73.7383 34.1662 73.7383 32.3209C73.7383 30.4755 75.2497 28.9817 77.095 28.9817C78.9404 28.9817 80.4342 30.4755 80.4342 32.3209C80.4342 34.1662 78.9404 35.6776 77.095 35.6776ZM77.095 29.9131C75.7594 29.9131 74.6873 31.0028 74.6873 32.3209C74.6873 33.6566 75.7594 34.7286 77.095 34.7286C78.4131 34.7286 79.5028 33.6566 79.5028 32.3209C79.5028 31.0028 78.4131 29.9131 77.095 29.9131Z" fill="#8474C7"/>
<path fill-rule="evenodd" clip-rule="evenodd" d="M80.0479 56.6266C79.4328 56.6266 78.8528 56.3981 78.4134 55.9587C77.9741 55.5194 77.7456 54.9394 77.7456 54.3243V47.2768C77.7456 46.9078 77.4468 46.609 77.0953 46.609C76.7263 46.609 76.4451 46.9078 76.4451 47.2768V54.3243C76.4451 54.9394 76.199 55.5194 75.7596 55.9587C75.3203 56.3981 74.7403 56.6266 74.1252 56.6266C72.8598 56.6266 71.8229 55.6072 71.8229 54.3243V43.7092C71.8229 43.4807 71.8229 43.2522 71.8405 43.0413C71.8581 42.2505 71.8756 41.5651 71.5944 41.2839C71.4714 41.1433 71.2254 41.073 70.8563 41.073H66.5505C65.7772 41.073 65.1445 40.4403 65.1445 39.667V35.1151C65.1445 34.8691 65.3554 34.6582 65.619 34.6582C65.8651 34.6582 66.076 34.8691 66.076 35.1151V39.667C66.076 39.9306 66.2869 40.1415 66.5505 40.1415H70.8563C71.489 40.1415 71.9459 40.2997 72.2623 40.6336C72.8247 41.196 72.7895 42.0571 72.7719 43.0589C72.7719 43.2698 72.7719 43.4983 72.7719 43.7092L72.7544 54.3243C72.7544 55.08 73.3695 55.6951 74.1252 55.6951C74.4943 55.6951 74.8458 55.5545 75.0918 55.2909C75.3554 55.0273 75.496 54.6934 75.496 54.3243V47.2768C75.496 46.3981 76.2166 45.6775 77.0953 45.6775C77.9741 45.6775 78.677 46.3981 78.677 47.2768V54.3243C78.677 54.6934 78.8176 55.0273 79.0813 55.2909C79.3449 55.5545 79.6788 55.6951 80.0479 55.6951C80.8036 55.6951 81.4187 55.08 81.4187 54.3243V43.7092C81.4187 43.4983 81.4187 43.2698 81.4011 43.0589C81.3835 42.0571 81.366 41.196 81.9108 40.6336C82.2271 40.2997 82.6841 40.1415 83.3168 40.1415H87.6226C87.8862 40.1415 88.0971 39.9306 88.0971 39.667V35.8709C88.0971 35.6072 88.308 35.3963 88.5716 35.3963C88.8176 35.3963 89.0285 35.6072 89.0285 35.8709V39.667C89.0285 40.4403 88.3958 41.073 87.6226 41.073H83.3168C82.9653 41.073 82.7192 41.1433 82.5786 41.2839C82.315 41.5651 82.315 42.2505 82.3502 43.0413C82.3502 43.2522 82.3502 43.4807 82.3502 43.7092V54.3243C82.3502 55.6072 81.3132 56.6266 80.0479 56.6266ZM85.5136 38.0325H68.6595C68.3958 38.0325 68.185 37.8216 68.185 37.5756V35.1151C68.185 34.8691 68.3958 34.6582 68.6595 34.6582C68.9231 34.6582 69.134 34.8691 69.134 35.1151V37.1011H85.0567V35.7127C85.0567 35.4491 85.2676 35.2382 85.5136 35.2382C85.7772 35.2382 85.9881 35.4491 85.9881 35.7127V37.5756C85.9881 37.8216 85.7772 38.0325 85.5136 38.0325Z" fill="#8474C7"/>
<path fill-rule="evenodd" clip-rule="evenodd" d="M69.8011 35.5899H64.476V36.0996C64.476 36.3456 64.2651 36.5565 64.0015 36.5565H62.1562C61.8925 36.5565 61.6816 36.3456 61.6816 36.0996V32.1277C61.6816 31.8641 61.8925 31.6532 62.1562 31.6532H64.0015C64.2651 31.6532 64.476 31.8641 64.476 32.1277V32.6198H69.8011V32.1277C69.8011 31.8641 69.9945 31.6532 70.2581 31.6532H72.1034C72.3671 31.6532 72.5779 31.8641 72.5779 32.1277V36.0996C72.5779 36.3456 72.3671 36.5565 72.1034 36.5565H70.2581C69.9945 36.5565 69.8011 36.3456 69.8011 36.0996V35.5899ZM70.7326 33.0943V35.1154V35.6251H71.6465V32.5846H70.7326V33.0943ZM63.5446 35.1154V33.0943V32.5846H62.6307V35.6251H63.5446V35.1154ZM64.476 34.6584H69.8011V33.5688H64.476V34.6584ZM87.2177 36.5565C85.6359 36.5565 84.4057 35.836 83.8433 34.5882C83.4391 33.6918 83.4918 32.6549 83.9488 31.9168C83.8961 31.8289 83.8785 31.7235 83.8433 31.6005C83.7906 31.372 83.9312 31.1259 84.1772 31.0556C84.2827 31.0205 84.5112 30.8975 84.7221 30.7569C85.2317 30.4581 85.8468 30.1066 86.4795 30.1066C86.6201 30.1066 86.7607 30.1242 86.9013 30.1593C87.1298 29.3509 87.5867 29.0697 87.9558 28.9994C88.2019 28.9467 88.4479 29.1048 88.5006 29.3509C88.5533 29.6145 88.3952 29.8606 88.1491 29.9133C88.0261 29.9309 87.9207 30.0715 87.8504 30.2824C87.9734 30.2648 88.114 30.2472 88.2722 30.2472C88.5709 30.2472 88.8521 30.3175 89.1333 30.4405C89.1685 30.4581 89.186 30.4757 89.2212 30.4932C89.8011 30.9502 90.2054 31.0381 90.2054 31.0381C90.3635 31.0732 90.5041 31.1962 90.5569 31.3368C90.6096 31.495 90.592 31.6532 90.5041 31.7938L90.4338 31.8641C90.715 32.2683 90.8556 32.778 90.8556 33.3228C90.8556 33.7094 90.7853 34.0961 90.6272 34.4827C90.0999 35.7832 88.8345 36.5565 87.2177 36.5565ZM86.8486 31.2665C86.8486 31.2665 86.8486 31.249 86.831 31.249C86.708 31.0556 86.585 31.0381 86.4795 31.0381C86.1105 31.0381 85.6008 31.3368 85.1966 31.5653C85.1087 31.618 85.0208 31.6708 84.9505 31.7235C84.9681 31.7586 84.9857 31.7938 84.9857 31.8289C85.179 32.0398 85.4426 32.1453 85.6711 32.1453C85.759 32.1453 85.882 32.1453 85.9699 32.0574C86.0577 32.0047 86.1456 31.9695 86.2511 31.9695C86.3214 31.9695 86.3741 31.9695 86.4268 32.0047C86.585 32.0574 86.6904 32.198 86.7256 32.3737C86.7783 32.7604 86.954 33.4106 87.2528 33.7797C87.3758 33.5864 87.5516 33.2173 87.5867 32.444C87.5867 32.2683 87.6922 32.1101 87.8679 32.0398C88.0261 31.9695 88.2194 31.9871 88.36 32.0925C88.5006 32.2331 88.6061 32.2331 88.6412 32.2331C88.8521 32.2331 89.1157 31.9871 89.3618 31.7059C89.1685 31.6005 88.94 31.4599 88.6764 31.2665C88.5533 31.2138 88.4127 31.1787 88.2722 31.1787C87.8504 31.1787 87.5164 31.4071 87.5164 31.4071C87.411 31.4774 87.288 31.5126 87.1649 31.4774C87.0419 31.4599 86.9365 31.372 86.8662 31.2665H86.8486ZM84.599 32.7252C84.4584 33.1646 84.476 33.7094 84.7045 34.2015C85.0911 35.1154 86.0226 35.6251 87.2177 35.6251C88.9751 35.6251 89.5727 34.5882 89.766 34.1312C89.8714 33.8676 89.9242 33.5864 89.9242 33.3228C89.9242 33.0767 89.8714 32.8307 89.7836 32.6198C89.4672 32.9186 89.0806 33.1646 88.6412 33.1646C88.5709 33.1646 88.5182 33.1646 88.4479 33.147C88.2019 34.5882 87.411 34.8166 87.3055 34.8518C87.2704 34.8518 87.2352 34.8518 87.2001 34.8518C87.1122 34.8518 87.0243 34.8342 86.954 34.7815C86.3741 34.3948 86.0577 33.6215 85.9171 33.0767C85.4953 33.1295 85.0033 33.024 84.599 32.7252Z" fill="#3F15EE"/>
<path fill-rule="evenodd" clip-rule="evenodd" d="M90.8028 58.9818H61.7519C61.4882 58.9818 61.2773 58.7709 61.2773 58.5073V56.1698C61.2773 55.9062 61.4882 55.6953 61.7519 55.6953H90.8028C91.0664 55.6953 91.2773 55.9062 91.2773 56.1698V58.5073C91.2773 58.7709 91.0664 58.9818 90.8028 58.9818ZM62.2088 58.0327H90.3283V56.6268H62.2088V58.0327Z" fill="#8474C7"/>
<path fill-rule="evenodd" clip-rule="evenodd" d="M85.5133 48.4544C85.3024 48.4544 85.0915 48.4544 84.8806 48.4369C84.8455 48.4369 84.8103 48.4369 84.7928 48.4193C84.7049 48.4017 84.6346 48.3666 84.5819 48.3138C84.4764 48.2084 84.4237 48.0854 84.4237 47.9799C84.1074 46.0994 84.4237 44.5704 85.3552 43.4457C86.9193 41.5827 89.7313 41.4246 90.5573 41.4246C90.6803 41.4246 90.7682 41.4421 90.7682 41.4421C90.9791 41.4421 91.1548 41.6003 91.2075 41.8288C91.2251 41.9342 91.682 44.7286 90.03 46.6794C89.0458 47.8569 87.5168 48.4544 85.5133 48.4544ZM61.7172 54.8341C61.6469 54.8165 61.5766 54.7813 61.5239 54.711C61.4184 54.6232 61.3833 54.5177 61.3657 54.3947C61.1197 52.9536 61.3657 51.7761 62.1038 50.9149C63.2989 49.4562 65.4606 49.3507 66.0933 49.3507C66.1987 49.3507 66.2515 49.3507 66.2515 49.3507C66.4799 49.3683 66.6557 49.5265 66.6908 49.7374C66.7084 49.8253 67.0599 51.987 65.7945 53.4808C65.0212 54.3947 63.8437 54.8692 62.2972 54.8692C62.139 54.8692 61.9808 54.8516 61.8226 54.8516C61.7875 54.8516 61.7523 54.8341 61.7348 54.8341H61.7172ZM62.2093 53.2875L63.6504 51.7585C63.8437 51.5827 64.1249 51.5652 64.3183 51.7409C64.5116 51.9167 64.5116 52.2154 64.3358 52.4087L62.9474 53.885C63.8789 53.7796 64.5994 53.4457 65.074 52.8833C65.777 52.0397 65.8297 50.8973 65.8121 50.2998C65.1267 50.3349 63.6328 50.5283 62.8244 51.5124C62.4378 51.9694 62.2269 52.5669 62.2093 53.2875ZM66.5678 47.5054L64.4413 45.2383C64.2655 45.0625 64.2655 44.7638 64.4589 44.588C64.6522 44.3947 64.9509 44.4123 65.1267 44.6056L67.306 46.9079C67.3587 45.7304 67.0775 44.7813 66.4799 44.0608C65.2849 42.6372 63.1583 42.4087 62.2269 42.3736C62.1741 43.1293 62.2093 44.8516 63.2462 46.0819C63.9668 46.943 65.074 47.4175 66.5678 47.5054ZM68.1144 47.9623C68.1144 48.0854 68.0617 48.2084 67.9738 48.3138C67.9035 48.3666 67.8332 48.4017 67.7453 48.4193C67.7277 48.4369 67.6926 48.4369 67.675 48.4369C67.4641 48.4544 67.2357 48.4544 67.0423 48.4544C65.0388 48.4544 63.5098 47.8569 62.5256 46.6794C60.8736 44.7286 61.3306 41.9342 61.3481 41.8288C61.3833 41.6003 61.5766 41.4421 61.7875 41.4421C61.7875 41.4421 61.8578 41.4246 61.9984 41.4246C62.8244 41.4246 65.6188 41.5827 67.2005 43.4457C68.132 44.5704 68.4483 46.0994 68.1144 47.9623ZM89.6082 53.885L88.2023 52.4087C88.0265 52.2154 88.0441 51.9167 88.2198 51.7409C88.4132 51.5652 88.7119 51.5827 88.8877 51.7585L90.3288 53.2875C90.3288 52.5669 90.1179 51.9694 89.7313 51.5124C88.9228 50.5283 87.429 50.3349 86.7436 50.2998C86.726 50.8973 86.7787 52.0572 87.4817 52.8833C87.9562 53.4457 88.6768 53.7796 89.6082 53.885ZM91.1724 54.3947C91.1724 54.5177 91.1197 54.6232 91.0318 54.711C90.9615 54.7813 90.8912 54.8165 90.8033 54.8341C90.7682 54.8341 90.7506 54.8516 90.733 54.8516C90.5573 54.8516 90.3991 54.8692 90.2409 54.8692C88.6944 54.8692 87.5344 54.3947 86.7611 53.4808C85.4958 51.987 85.8472 49.8253 85.8648 49.7374C85.9 49.5265 86.0757 49.3683 86.3042 49.3507C86.3042 49.3507 86.3569 49.3507 86.4624 49.3507C87.0951 49.3507 89.2392 49.4562 90.4518 50.9149C91.1724 51.7761 91.4184 52.9536 91.1724 54.3947ZM85.2497 46.9079L87.429 44.6056C87.6047 44.4123 87.9035 44.3947 88.0968 44.588C88.2726 44.7638 88.2901 45.0625 88.1144 45.2383L85.9703 47.5054C87.4641 47.4175 88.5889 46.943 89.3095 46.0819C90.3464 44.8516 90.3639 43.1293 90.3112 42.3736C89.3973 42.4087 87.2708 42.6372 86.0757 44.0608C85.4782 44.7813 85.197 45.7304 85.2497 46.9079Z" fill="#3F15EE"/>
</g>
<path d="M342.554 87.7051H310C304.477 87.7051 300 92.1822 300 97.7051V130.259C300 135.782 304.477 140.259 310 140.259H342.554C348.077 140.259 352.554 135.782 352.554 130.259V97.7051C352.554 92.1822 348.077 87.7051 342.554 87.7051Z" fill="#EFF0FE"/>
<path d="M339.42 117.312C339.42 116.844 339.17 116.154 337.982 115.528C337.776 115.42 337.518 115.499 337.409 115.706C337.299 115.913 337.379 116.17 337.587 116.279C338.212 116.608 338.571 116.985 338.571 117.311C338.571 118.191 336.009 119.418 331.837 119.418C327.665 119.418 325.104 118.191 325.104 117.311C325.104 116.984 325.463 116.607 326.088 116.278C326.296 116.169 326.375 115.913 326.266 115.705C326.157 115.498 325.899 115.419 325.693 115.528C324.504 116.153 324.255 116.842 324.255 117.312C324.255 117.359 324.268 117.404 324.272 117.45C324.262 117.514 324.262 117.579 324.283 117.645L324.63 118.724C324.892 119.538 325.293 120.278 325.789 120.939C325.067 121.218 324.313 121.378 323.536 121.421V120.948C323.536 120.714 323.346 120.524 323.112 120.524C322.878 120.524 322.688 120.714 322.688 120.948V121.423C321.636 121.363 320.642 121.087 319.749 120.635L319.987 120.224C320.104 120.021 320.034 119.762 319.831 119.644C319.629 119.526 319.369 119.596 319.251 119.8L319.013 120.212C318.158 119.648 317.426 118.915 316.863 118.059L317.274 117.822C317.477 117.705 317.546 117.445 317.429 117.242C317.311 117.039 317.052 116.969 316.849 117.087L316.441 117.322C315.989 116.43 315.715 115.437 315.655 114.385H316.125C316.36 114.385 316.55 114.195 316.55 113.961C316.55 113.726 316.36 113.537 316.125 113.537H315.655C315.715 112.485 315.989 111.492 316.441 110.6L316.849 110.835C316.916 110.874 316.988 110.892 317.061 110.892C317.207 110.892 317.35 110.817 317.429 110.68C317.546 110.477 317.476 110.218 317.273 110.1L316.864 109.863C317.427 109.008 318.159 108.275 319.014 107.712L319.251 108.122C319.329 108.259 319.472 108.335 319.619 108.335C319.691 108.335 319.764 108.316 319.83 108.278C320.034 108.161 320.103 107.901 319.986 107.698L319.749 107.289C320.642 106.837 321.635 106.562 322.687 106.502V106.974C322.687 107.208 322.877 107.398 323.111 107.398C323.345 107.398 323.535 107.208 323.535 106.974V106.502C324.583 106.562 325.577 106.838 326.471 107.293L326.236 107.698C326.119 107.902 326.189 108.161 326.392 108.278C326.458 108.317 326.531 108.335 326.603 108.335C326.75 108.335 326.893 108.26 326.971 108.123L327.206 107.716C328.06 108.279 328.789 109.014 329.354 109.866L328.949 110.101C328.745 110.218 328.676 110.477 328.793 110.681C328.872 110.817 329.015 110.893 329.161 110.893C329.233 110.893 329.307 110.875 329.373 110.836L329.78 110.601C330.251 111.524 330.536 112.552 330.582 113.641C330.528 113.698 330.47 113.75 330.425 113.814C329.924 113.576 329.33 113.588 328.822 113.868C328.325 114.145 328.015 114.639 327.967 115.173C327.414 115.217 326.899 115.517 326.61 115.998C326.419 116.322 326.345 116.688 326.398 117.055C326.431 117.287 326.642 117.449 326.878 117.415C327.11 117.382 327.272 117.168 327.238 116.936C327.214 116.76 327.249 116.585 327.338 116.432C327.533 116.109 327.937 115.949 328.326 116.043C328.471 116.076 328.625 116.034 328.73 115.927C328.835 115.819 328.875 115.665 328.836 115.519C328.741 115.167 328.905 114.793 329.234 114.611C329.576 114.42 330.013 114.475 330.296 114.742C330.404 114.843 330.557 114.882 330.699 114.843C330.842 114.804 330.954 114.694 330.995 114.552C331.1 114.193 331.444 113.941 331.833 113.941C332.224 113.941 332.57 114.192 332.675 114.551C332.716 114.694 332.828 114.804 332.971 114.843C333.113 114.882 333.266 114.843 333.374 114.741C333.657 114.474 334.091 114.42 334.431 114.609C334.763 114.793 334.929 115.168 334.834 115.519C334.795 115.664 334.835 115.819 334.94 115.926C335.045 116.033 335.197 116.074 335.345 116.041C335.728 115.946 336.133 116.108 336.328 116.432C336.421 116.585 336.456 116.759 336.432 116.934C336.398 117.166 336.56 117.381 336.792 117.414C336.812 117.417 336.832 117.418 336.852 117.418C337.06 117.418 337.242 117.265 337.272 117.054C337.325 116.682 337.25 116.315 337.055 115.994C336.767 115.516 336.254 115.216 335.703 115.172C335.655 114.639 335.344 114.145 334.846 113.868C334.349 113.591 333.749 113.582 333.248 113.815C333.197 113.744 333.133 113.685 333.072 113.623C332.893 108.293 328.466 103.983 323.113 103.983C317.611 103.983 313.135 108.459 313.135 113.962C313.135 119.46 317.611 123.932 323.113 123.932C324.74 123.932 326.337 123.521 327.761 122.764C328.41 123.176 329.12 123.504 329.89 123.706L329.981 123.73C330.608 123.895 331.253 123.977 331.898 123.977C332.543 123.977 333.187 123.895 333.814 123.73C336.338 123.067 338.372 121.102 339.121 118.602L339.392 117.697C339.413 117.626 339.41 117.557 339.395 117.489C339.405 117.431 339.42 117.373 339.42 117.312ZM323.115 123.084C318.081 123.084 313.985 118.992 313.985 113.962C313.985 108.928 318.081 104.832 323.115 104.832C327.839 104.832 331.773 108.503 332.192 113.136C332.076 113.111 331.957 113.092 331.835 113.092C331.686 113.092 331.54 113.114 331.4 113.15C330.987 108.95 327.402 105.632 323.114 105.632C318.521 105.632 314.784 109.369 314.784 113.962C314.784 118.556 318.521 122.293 323.114 122.293C324.245 122.293 325.335 122.06 326.365 121.62C326.561 121.825 326.768 122.017 326.986 122.198C325.782 122.769 324.462 123.084 323.115 123.084ZM333.6 122.91C332.488 123.203 331.312 123.203 330.2 122.91L330.108 122.886C328.106 122.36 326.498 120.96 325.684 119.089C327.152 119.862 329.54 120.267 331.838 120.267C334.169 120.267 336.589 119.849 338.051 119.054C337.246 120.936 335.599 122.385 333.6 122.91Z" fill="#8474C7"/>
<path d="M322.906 117.059C323.14 117.059 323.33 116.869 323.33 116.635V116.049C323.404 115.997 323.467 115.935 323.519 115.86H326.203C326.437 115.86 326.627 115.671 326.627 115.436C326.627 115.202 326.437 115.012 326.203 115.012H323.519C323.467 114.937 323.405 114.875 323.33 114.823V110.944C323.33 110.709 323.14 110.52 322.906 110.52C322.671 110.52 322.482 110.709 322.482 110.944V114.823C322.407 114.875 322.345 114.937 322.293 115.011H321.756C321.522 115.011 321.332 115.201 321.332 115.436C321.332 115.67 321.522 115.86 321.756 115.86H322.293C322.345 115.935 322.407 115.997 322.482 116.048V116.634C322.482 116.869 322.671 117.059 322.906 117.059Z" fill="#8474C7"/>
<path d="M217.554 50.7048H185C179.477 50.7048 175 55.182 175 60.7048V93.2588C175 98.7817 179.477 103.259 185 103.259H217.554C223.077 103.259 227.554 98.7817 227.554 93.2588V60.7048C227.554 55.182 223.077 50.7048 217.554 50.7048Z" fill="#EFF0FE"/>
<g clip-path="url(#clip2_214_95)">
<path d="M206.376 76.7298L205.496 75.85V74.8319L206.296 74.0317C206.48 73.8484 206.48 73.5522 206.296 73.3689C206.113 73.1856 205.817 73.1856 205.633 73.3689L205.027 73.975L204.421 73.3689C204.238 73.1856 203.942 73.1856 203.758 73.3689C203.575 73.5522 203.575 73.8484 203.758 74.0317L204.559 74.8319V75.85L203.679 76.7298C202.748 77.6603 202.215 78.948 202.215 80.2628C202.215 81.0109 202.506 81.7173 203.038 82.2555C203.573 82.7842 204.279 83.0753 205.027 83.0753C205.775 83.0753 206.482 82.7842 207.02 82.2517C207.549 81.7169 207.84 81.0109 207.84 80.2628C207.84 79.6061 207.711 78.9625 207.457 78.3494C207.206 77.74 206.842 77.1953 206.376 76.7298ZM206.357 81.5889C206 81.9428 205.527 82.1378 205.027 82.1378C204.528 82.1378 204.055 81.9428 203.701 81.5927C203.347 81.2345 203.152 80.7625 203.152 80.2628C203.152 79.195 203.586 78.1487 204.342 77.3927L205.027 76.7069L205.713 77.3927C206.091 77.7709 206.387 78.213 206.591 78.708C206.797 79.2062 206.902 79.7298 206.902 80.2628C206.902 80.762 206.707 81.2345 206.357 81.5889Z" fill="#8474C7"/>
<path d="M215.873 85.5233L204.492 65.719C203.834 64.5706 202.602 63.8567 201.277 63.8567C200.629 63.8567 199.987 64.0292 199.421 64.355C198.855 64.6817 198.385 65.1537 198.063 65.7181L186.681 85.5242C186.417 85.9864 186.277 86.5123 186.277 87.0458C186.277 87.912 186.568 88.6601 187.118 89.21C187.704 89.7968 188.548 90.1067 189.559 90.1067H212.996C214.959 90.1067 216.277 88.8767 216.277 87.0458C216.277 86.5123 216.138 85.9864 215.873 85.5233ZM198.876 66.1845C199.117 65.7631 199.467 65.4115 199.889 65.1673C200.313 64.9231 200.793 64.7942 201.277 64.7942C202.267 64.7942 203.187 65.3272 203.678 66.1854L205.572 69.4817H202.458L200.958 67.3381C200.782 67.0873 200.365 67.0873 200.189 67.3381L198.689 69.4817H196.981L198.876 66.1845ZM202.215 71.2676C202.215 72.0781 201.463 72.7629 200.574 72.7629C200.152 72.7629 199.73 72.5993 199.419 72.3143C199.106 72.0275 198.934 71.6558 198.934 71.2676C198.934 71.0197 199.121 70.5097 199.319 70.2172L200.574 68.4247L201.827 70.2143C202.026 70.5068 202.215 71.0187 202.215 71.2676ZM195.652 84.0129C194.36 84.0129 193.309 82.9615 193.309 81.6692C193.309 80.3768 194.36 79.3254 195.652 79.3254C196.945 79.3254 197.996 80.3768 197.996 81.6692C197.996 82.9615 196.945 84.0129 195.652 84.0129ZM197.944 79.3254H199.825C199.743 79.8214 199.505 80.5784 198.861 80.9881C198.725 80.344 198.399 79.7698 197.944 79.3254ZM205.027 89.1692H201.746V88.2317C201.746 86.4228 203.218 84.9504 205.027 84.9504H206.6C205.642 85.7243 205.027 86.907 205.027 88.2317V89.1692ZM212.527 89.1692H205.965V88.2317C205.965 86.4228 207.437 84.9504 209.246 84.9504C211.055 84.9504 212.527 86.4228 212.527 88.2317V89.1692ZM197.944 84.0129C198.476 83.4926 198.832 82.7947 198.915 82.0156C200.402 81.4334 200.809 79.7314 200.809 78.8567C200.809 78.5975 200.599 78.3879 200.34 78.3879H196.121V77.4504C196.121 77.1912 195.911 76.9817 195.652 76.9817C195.394 76.9817 195.184 77.1912 195.184 77.4504V78.4254C193.596 78.6542 192.371 80.0197 192.371 81.6692C192.371 82.587 192.751 83.4167 193.361 84.0129H188.631L193.211 76.0442H203.039L203.621 75.462V75.2206L203.096 74.6951C202.83 74.4293 202.684 74.0764 202.684 73.7009C202.684 73.3254 202.83 72.972 203.096 72.7067C203.361 72.4409 203.714 72.2947 204.09 72.2947C204.439 72.2947 204.769 72.4212 205.027 72.6528C205.286 72.4212 205.616 72.2947 205.965 72.2947C206.34 72.2947 206.694 72.4409 206.959 72.7067C207.225 72.9725 207.371 73.3254 207.371 73.7009C207.371 74.0764 207.225 74.4298 206.959 74.6951L206.434 75.2206V75.462L207.016 76.0442H209.344L213.923 84.0129H197.944Z" fill="#8474C7"/>
<path d="M211.121 88.2314C211.38 88.2314 211.59 88.0216 211.59 87.7627C211.59 87.5038 211.38 87.2939 211.121 87.2939C210.862 87.2939 210.652 87.5038 210.652 87.7627C210.652 88.0216 210.862 88.2314 211.121 88.2314Z" fill="#8474C7"/>
<path d="M209.715 86.8252C209.974 86.8252 210.184 86.6153 210.184 86.3564C210.184 86.0976 209.974 85.8877 209.715 85.8877C209.456 85.8877 209.246 86.0976 209.246 86.3564C209.246 86.6153 209.456 86.8252 209.715 86.8252Z" fill="#8474C7"/>
</g>
</g>
<defs>
<clipPath id="clip0_214_95">
<rect width="404" height="280" fill="white" transform="translate(-2 0.889893)"/>
</clipPath>
<clipPath id="clip1_214_95">
<rect width="30" height="30" fill="white" transform="translate(61.2773 28.9817)"/>
</clipPath>
<clipPath id="clip2_214_95">
<rect width="30" height="30" fill="white" transform="translate(186.277 61.9817)"/>
</clipPath>
</defs>
</svg>
