<svg width="400" height="281" viewBox="0 0 400 281" fill="none" xmlns="http://www.w3.org/2000/svg">
<g clip-path="url(#clip0_214_1110)">
<mask id="mask0_214_1110" style="mask-type:luminance" maskUnits="userSpaceOnUse" x="-2" y="0" width="404" height="281">
<path d="M-1.33203 0.0751953H401.335V280.075H-1.33203V0.0751953Z" fill="white"/>
</mask>
<g mask="url(#mask0_214_1110)">
<path d="M196.999 415.411C267.233 415.411 324.168 358.476 324.168 288.242C324.168 218.009 267.233 161.073 196.999 161.073C126.766 161.073 69.8301 218.009 69.8301 288.242C69.8301 358.476 126.766 415.411 196.999 415.411Z" stroke="#E1E4FE" stroke-width="1.5" stroke-dasharray="4 4"/>
<path d="M196.999 463.38C293.725 463.38 372.137 384.969 372.137 288.242C372.137 191.516 293.725 113.104 196.999 113.104C100.273 113.104 21.8613 191.516 21.8613 288.242C21.8613 384.969 100.273 463.38 196.999 463.38Z" stroke="#E1E4FE" stroke-width="1.5" stroke-dasharray="4 4"/>
<path d="M197.001 506.021C317.276 506.021 414.779 408.519 414.779 288.243C414.779 167.968 317.276 70.4653 197.001 70.4653C76.7252 70.4653 -20.7773 167.968 -20.7773 288.243C-20.7773 408.519 76.7252 506.021 197.001 506.021Z" stroke="#E1E4FE" stroke-width="1.5" stroke-dasharray="4 4"/>
<path d="M195.668 551.325C340.229 551.325 457.418 434.136 457.418 289.575C457.418 145.015 340.229 27.8252 195.668 27.8252C51.1074 27.8252 -66.082 145.015 -66.082 289.575C-66.082 434.136 51.1074 551.325 195.668 551.325Z" stroke="#E1E4FE" stroke-width="1.5" stroke-dasharray="4 4"/>
<path d="M216.222 90.0752H183.668C178.145 90.0752 173.668 94.5523 173.668 100.075V132.629C173.668 138.152 178.145 142.629 183.668 142.629H216.222C221.745 142.629 226.222 138.152 226.222 132.629V100.075C226.222 94.5523 221.745 90.0752 216.222 90.0752Z" fill="#EFF0FE"/>
<path d="M213.594 127.656L213.305 127.078V110.668C213.305 110.358 213.237 110.053 213.106 109.773C212.975 109.493 212.784 109.245 212.546 109.047L211.083 107.828C210.898 107.674 210.749 107.482 210.647 107.264C210.545 107.046 210.492 106.808 210.492 106.568V105.571H210.489C210.635 105.462 210.754 105.321 210.836 105.158C210.918 104.995 210.961 104.816 210.961 104.633V103.696C210.961 103.385 210.837 103.087 210.617 102.868C210.398 102.648 210.1 102.524 209.789 102.524H207.914C207.603 102.524 207.306 102.648 207.086 102.868C206.866 103.087 206.743 103.385 206.742 103.696V104.633C206.742 104.816 206.785 104.995 206.867 105.158C206.949 105.321 207.068 105.462 207.214 105.571H207.211V106.568C207.211 106.808 207.158 107.046 207.056 107.264C206.954 107.482 206.806 107.674 206.621 107.828L206.277 108.115L204.867 106.423V104.165C204.867 104.102 204.842 104.043 204.799 103.999C204.755 103.955 204.695 103.93 204.633 103.93H199.945C199.883 103.93 199.824 103.955 199.78 103.999C199.736 104.043 199.711 104.102 199.711 104.165V106.423L198.74 107.588L198.331 107.261C197.926 106.936 197.471 106.678 196.985 106.495L195.488 105.934C194.432 105.539 193.273 105.518 192.203 105.873L191.804 106.006C191.222 106.2 190.681 106.501 190.21 106.894L188.988 107.913C188.36 108.436 187.873 109.108 187.569 109.866L187.071 111.109L187.075 111.11C186.908 111.17 186.757 111.267 186.633 111.393C186.509 111.52 186.415 111.673 186.358 111.841L186.216 112.269C186.145 112.48 186.136 112.707 186.19 112.924L186.388 113.714C186.43 113.885 186.511 114.045 186.625 114.181C186.738 114.317 186.881 114.425 187.042 114.498L186.442 116.9C185.916 118.997 186.001 121.201 186.686 123.252L186.736 123.402C186.636 123.858 186.586 124.323 186.586 124.79C186.586 127.762 188.584 130.18 191.039 130.18C191.597 130.179 192.148 130.054 192.652 129.814L194.572 129.371C195.473 129.165 196.318 128.763 197.047 128.194L196.759 127.824C196.084 128.351 195.301 128.723 194.466 128.914L193.726 129.085C194.798 128.1 195.492 126.541 195.492 124.79C195.492 121.817 193.495 119.399 191.039 119.399C191.006 119.399 190.974 119.4 190.941 119.4L191.527 119.057C192.124 118.724 192.781 118.512 193.46 118.434C194.14 118.355 194.828 118.413 195.485 118.603C196.251 118.823 197.056 118.878 197.845 118.764L199.007 118.598C199.164 118.575 199.318 118.537 199.467 118.485L199.57 118.536C199.972 118.739 200.321 119.036 200.585 119.402C200.849 119.768 201.021 120.192 201.088 120.638C200.888 120.748 200.705 120.886 200.543 121.048C199.705 121.883 199.151 122.96 198.959 124.127L198.957 124.138C198.935 124.27 198.908 124.402 198.877 124.533L199.333 124.641C199.367 124.501 199.396 124.358 199.419 124.215L199.421 124.204C199.598 123.133 200.106 122.145 200.875 121.379C201.191 121.061 201.608 120.862 202.055 120.816V125.024H197.602C197.539 125.024 197.48 125.049 197.436 125.093C197.392 125.137 197.367 125.196 197.367 125.258V129.946C197.367 130.008 197.392 130.068 197.436 130.112C197.48 130.155 197.539 130.18 197.602 130.18H212.338C212.6 130.18 212.854 130.093 213.06 129.932C213.266 129.771 213.412 129.546 213.475 129.292L213.682 128.464C213.75 128.193 213.719 127.906 213.594 127.656H213.594ZM212.836 126.899H204.867V125.493H212.836V126.899ZM204.021 128.464L204.228 129.293C204.266 129.444 204.334 129.587 204.428 129.711H202.992V125.493H204.398V127.078L204.11 127.656C203.985 127.906 203.953 128.193 204.021 128.464ZM212.836 110.668V117.524H204.867V110.668C204.867 110.609 204.87 110.551 204.877 110.493H212.827C212.833 110.551 212.836 110.609 212.836 110.668H212.836ZM212.836 125.024H204.867V123.618H212.836V125.024ZM212.836 123.149H204.867V121.743H212.836V123.149ZM212.836 121.274H204.867V119.868H212.836V121.274ZM212.836 119.399H204.867V117.993H212.836V119.399ZM206.921 108.188C207.159 107.99 207.35 107.743 207.481 107.463C207.612 107.182 207.68 106.877 207.68 106.568V105.782C207.757 105.797 207.835 105.805 207.914 105.805H209.789C209.868 105.805 209.946 105.797 210.023 105.782V106.568C210.023 106.877 210.091 107.182 210.222 107.463C210.353 107.743 210.545 107.99 210.782 108.188L212.246 109.407C212.445 109.574 212.602 109.785 212.704 110.024H204.999C205.101 109.785 205.258 109.574 205.458 109.407L206.921 108.188ZM205.916 108.415L205.157 109.047C205.142 109.06 205.128 109.073 205.113 109.086H202.399L200.446 106.743H204.523L205.916 108.415ZM204.398 104.399V106.274H200.18V104.399H204.398ZM195.727 108.618H196.664V109.086H195.727V108.618ZM196.195 110.024V110.493H195.258V110.024H196.195ZM194.32 107.211H195.258V107.68H194.32V107.211ZM194.32 110.961H193.383V110.493H194.32V110.961ZM193.852 109.086V109.555H192.914V109.086H193.852ZM191.977 107.68H192.914V108.149H191.977V107.68ZM191.977 110.024V110.493H191.039V110.024H191.977ZM190.102 108.618H191.039V109.086H190.102V108.618ZM186.843 113.6L186.645 112.81C186.613 112.68 186.618 112.544 186.66 112.417L186.803 111.989C186.854 111.837 186.956 111.706 187.092 111.62C187.227 111.533 187.388 111.495 187.548 111.512L190.776 111.871C190.929 111.888 191.084 111.91 191.236 111.935L192.372 112.124C193.352 112.288 194.351 112.288 195.331 112.124L196.467 111.935C196.619 111.91 196.774 111.888 196.927 111.871L197.367 111.822V113.954C196.871 113.992 196.38 114.072 195.897 114.193C194.554 114.527 193.149 114.527 191.806 114.193C190.689 113.912 189.527 113.853 188.387 114.016L187.624 114.125C187.452 114.15 187.277 114.111 187.132 114.013C186.988 113.916 186.884 113.769 186.843 113.6ZM190.35 124.598C190.492 125.024 190.479 125.487 190.312 125.904L190.111 126.408C190.053 126.552 189.964 126.681 189.85 126.787C189.736 126.892 189.599 126.971 189.451 127.017C189.303 127.063 189.146 127.075 188.992 127.053C188.838 127.031 188.692 126.975 188.562 126.888C188.346 126.744 188.192 126.525 188.129 126.273C187.886 125.304 187.926 124.286 188.241 123.339L188.324 123.092C188.439 122.746 188.633 122.431 188.891 122.173C189.15 121.915 189.464 121.721 189.81 121.605C189.949 121.559 190.099 121.555 190.24 121.594C190.382 121.632 190.508 121.712 190.605 121.823C190.701 121.934 190.762 122.07 190.78 122.216C190.798 122.361 190.773 122.509 190.708 122.64L190.453 123.148C190.342 123.372 190.275 123.614 190.258 123.863C190.24 124.112 190.271 124.362 190.35 124.598ZM191.839 123.88C191.716 123.695 191.666 123.471 191.699 123.251C191.731 123.031 191.845 122.832 192.017 122.691C192.189 122.55 192.407 122.478 192.629 122.489C192.851 122.5 193.061 122.593 193.218 122.75C193.56 123.092 193.818 123.509 193.971 123.968C194.124 124.428 194.168 124.916 194.1 125.395C193.94 126.512 193.361 127.526 192.481 128.23L192.002 128.613C191.83 128.751 191.61 128.818 191.389 128.8C191.169 128.782 190.963 128.679 190.815 128.514C190.668 128.349 190.589 128.134 190.595 127.912C190.601 127.691 190.692 127.48 190.849 127.324C191.285 126.887 191.649 126.383 191.925 125.831L191.957 125.767C192.105 125.47 192.172 125.139 192.152 124.808C192.131 124.477 192.023 124.157 191.839 123.88L191.839 123.88ZM198.941 118.134L197.779 118.3C197.055 118.404 196.317 118.354 195.613 118.152C194.896 117.945 194.146 117.883 193.404 117.968C192.663 118.054 191.946 118.285 191.295 118.65L189.082 119.945L189.083 119.948C188.15 120.502 187.4 121.44 186.974 122.591C186.464 120.77 186.437 118.848 186.896 117.014L187.5 114.6C187.564 114.602 187.627 114.598 187.69 114.59L188.454 114.481C189.534 114.325 190.634 114.382 191.692 114.648C193.11 115.001 194.593 115.001 196.011 114.648C196.456 114.536 196.91 114.462 197.367 114.424V117.758H197.836V109.406L199.945 106.874L202.055 109.406V115.338C201.89 115.366 201.732 115.427 201.592 115.517C201.451 115.608 201.331 115.726 201.238 115.865L200.294 117.281C200.141 117.51 199.942 117.705 199.709 117.852C199.475 117.998 199.214 118.095 198.941 118.134ZM199.986 118.23C200.263 118.05 200.501 117.816 200.684 117.541L201.628 116.125C201.735 115.965 201.899 115.851 202.086 115.808C202.274 115.764 202.471 115.793 202.637 115.89C202.804 115.987 202.927 116.143 202.982 116.328C203.037 116.512 203.02 116.711 202.934 116.883L202.867 117.015C202.752 117.245 202.712 117.505 202.754 117.759C202.795 118.013 202.915 118.247 203.097 118.429L203.51 118.842C203.632 118.964 203.716 119.12 203.749 119.29C203.783 119.46 203.766 119.636 203.699 119.796C203.633 119.956 203.521 120.093 203.377 120.189C203.233 120.285 203.064 120.336 202.89 120.336H202.26C202.013 120.336 201.767 120.374 201.532 120.448C201.445 119.99 201.263 119.555 200.997 119.173C200.73 118.791 200.386 118.469 199.986 118.23H199.986ZM198.414 125.493L199.049 126.445C199.229 126.715 199.494 126.917 199.801 127.02C199.948 127.069 200.102 127.094 200.257 127.094C200.529 127.094 200.795 127.019 201.026 126.876C201.258 126.734 201.445 126.53 201.567 126.288L201.965 125.493H202.523V129.711H200.381C200.493 129.523 200.553 129.308 200.555 129.089C200.557 128.87 200.5 128.654 200.392 128.464C200.284 128.273 200.127 128.115 199.937 128.005C199.748 127.894 199.532 127.836 199.313 127.836H197.836V125.493H198.414ZM213.228 128.35L213.021 129.179C212.983 129.331 212.895 129.466 212.771 129.563C212.648 129.659 212.495 129.712 212.338 129.711H205.365C205.208 129.712 205.056 129.659 204.932 129.563C204.808 129.466 204.721 129.331 204.683 129.179L204.476 128.35C204.435 128.188 204.454 128.016 204.529 127.865L204.778 127.368H212.925L213.174 127.865C213.249 128.016 213.268 128.188 213.228 128.35Z" fill="#8474C7"/>
<path d="M205.726 113.098C205.874 113.479 206.139 113.802 206.483 114.022C206.13 114.199 205.85 114.494 205.692 114.855L205.58 115.11C205.568 115.138 205.561 115.168 205.561 115.199C205.56 115.23 205.565 115.26 205.577 115.289C205.588 115.318 205.605 115.344 205.626 115.366C205.647 115.388 205.673 115.406 205.701 115.418L205.955 115.53C206.317 115.689 206.723 115.715 207.102 115.605C206.999 116 207.023 116.417 207.173 116.797L207.303 117.13C207.315 117.159 207.331 117.185 207.353 117.207C207.374 117.23 207.4 117.247 207.428 117.26C207.456 117.272 207.486 117.279 207.517 117.279C207.548 117.28 207.578 117.274 207.607 117.263L207.941 117.133C208.321 116.985 208.645 116.72 208.864 116.376C209.041 116.73 209.336 117.01 209.698 117.168L209.952 117.279C209.98 117.291 210.01 117.298 210.041 117.299C210.072 117.299 210.103 117.294 210.131 117.283C210.16 117.271 210.186 117.255 210.208 117.233C210.231 117.212 210.248 117.186 210.261 117.158L210.372 116.904C210.531 116.542 210.557 116.136 210.447 115.757C210.605 115.799 210.768 115.82 210.932 115.82C211.174 115.82 211.414 115.775 211.639 115.686L211.973 115.556C212.03 115.533 212.077 115.488 212.102 115.431C212.127 115.374 212.128 115.31 212.105 115.252L211.975 114.919C211.827 114.538 211.562 114.214 211.218 113.994C211.571 113.818 211.852 113.523 212.01 113.162L212.121 112.907C212.134 112.879 212.14 112.849 212.141 112.818C212.141 112.787 212.136 112.757 212.125 112.728C212.114 112.699 212.097 112.673 212.075 112.651C212.054 112.629 212.029 112.611 212 112.599L211.746 112.487C211.385 112.329 210.979 112.302 210.6 112.412C210.703 112.017 210.678 111.6 210.528 111.22L210.398 110.887C210.375 110.829 210.331 110.782 210.274 110.757C210.217 110.732 210.152 110.731 210.094 110.754L209.761 110.884C209.38 111.032 209.057 111.297 208.837 111.641C208.66 111.287 208.366 111.007 208.004 110.849L207.749 110.738C207.721 110.726 207.691 110.719 207.66 110.718C207.629 110.718 207.599 110.723 207.57 110.734C207.541 110.746 207.515 110.762 207.493 110.784C207.471 110.805 207.453 110.83 207.441 110.859L207.329 111.113C207.171 111.475 207.144 111.88 207.254 112.26C206.859 112.156 206.442 112.181 206.062 112.331L205.729 112.461C205.671 112.484 205.624 112.529 205.6 112.586C205.575 112.642 205.573 112.707 205.596 112.765L205.726 113.098ZM206.143 115.1L206.104 115.083L206.121 115.043C206.216 114.826 206.372 114.641 206.571 114.511C206.769 114.382 207.001 114.313 207.238 114.313C207.277 114.514 207.352 114.705 207.46 114.879C207.286 115.04 207.068 115.147 206.835 115.186C206.601 115.225 206.36 115.196 206.143 115.1ZM207.77 116.696L207.655 116.741L207.61 116.626C207.521 116.401 207.489 116.157 207.519 115.917C207.548 115.677 207.637 115.447 207.778 115.25C208.028 115.466 208.338 115.601 208.666 115.639C208.617 115.876 208.509 116.097 208.352 116.282C208.196 116.466 207.996 116.609 207.77 116.696ZM209.943 116.716L209.925 116.756L209.886 116.738C209.668 116.643 209.483 116.487 209.354 116.289C209.224 116.09 209.155 115.858 209.155 115.621C209.356 115.583 209.548 115.508 209.721 115.399C209.882 115.573 209.989 115.791 210.028 116.025C210.068 116.258 210.038 116.499 209.943 116.716ZM211.538 115.089L211.584 115.205L211.468 115.25C211.243 115.338 210.999 115.37 210.759 115.34C210.519 115.311 210.29 115.222 210.093 115.081C210.308 114.831 210.444 114.521 210.482 114.193C210.719 114.242 210.939 114.35 211.124 114.507C211.308 114.663 211.451 114.864 211.538 115.089ZM211.558 112.917L211.598 112.934L211.58 112.974C211.486 113.191 211.329 113.376 211.131 113.506C210.932 113.635 210.7 113.704 210.463 113.704C210.425 113.503 210.35 113.312 210.242 113.138C210.416 112.977 210.633 112.87 210.867 112.831C211.101 112.792 211.341 112.821 211.558 112.917ZM209.932 111.321L210.047 111.276L210.092 111.391C210.181 111.616 210.212 111.86 210.183 112.1C210.153 112.34 210.064 112.569 209.924 112.767C209.673 112.551 209.363 112.416 209.035 112.378C209.084 112.141 209.192 111.92 209.349 111.735C209.506 111.551 209.706 111.408 209.932 111.321ZM207.759 111.301L207.776 111.261L207.816 111.279C208.033 111.374 208.218 111.53 208.348 111.728C208.478 111.927 208.547 112.159 208.546 112.396C208.346 112.434 208.154 112.509 207.981 112.617C207.819 112.443 207.713 112.226 207.673 111.992C207.634 111.758 207.664 111.518 207.759 111.301ZM206.233 112.767C206.458 112.678 206.702 112.647 206.942 112.677C207.183 112.706 207.412 112.795 207.609 112.935C207.393 113.186 207.258 113.496 207.22 113.824C206.983 113.775 206.762 113.667 206.577 113.51C206.393 113.354 206.25 113.153 206.163 112.928L206.118 112.812L206.233 112.767Z" fill="#8474C7"/>
<path d="M216.222 0.0751953H183.668C178.145 0.0751953 173.668 4.55235 173.668 10.0752V42.6292C173.668 48.152 178.145 52.6292 183.668 52.6292H216.222C221.745 52.6292 226.222 48.152 226.222 42.6292V10.0752C226.222 4.55235 221.745 0.0751953 216.222 0.0751953Z" fill="#EFF0FE"/>
<g clip-path="url(#clip1_214_1110)">
<path fill-rule="evenodd" clip-rule="evenodd" d="M200.763 18.048C198.918 18.048 197.406 16.5366 197.406 14.6912C197.406 12.8459 198.918 11.3521 200.763 11.3521C202.608 11.3521 204.102 12.8459 204.102 14.6912C204.102 16.5366 202.608 18.048 200.763 18.048ZM200.763 12.2835C199.427 12.2835 198.355 13.3731 198.355 14.6912C198.355 16.0269 199.427 17.099 200.763 17.099C202.081 17.099 203.171 16.0269 203.171 14.6912C203.171 13.3731 202.081 12.2835 200.763 12.2835Z" fill="#8474C7"/>
<path fill-rule="evenodd" clip-rule="evenodd" d="M203.716 38.9967C203.101 38.9967 202.521 38.7682 202.081 38.3288C201.642 37.8895 201.414 37.3095 201.414 36.6944V29.6469C201.414 29.2779 201.115 28.9791 200.763 28.9791C200.394 28.9791 200.113 29.2779 200.113 29.6469V36.6944C200.113 37.3095 199.867 37.8895 199.428 38.3288C198.988 38.7682 198.408 38.9967 197.793 38.9967C196.528 38.9967 195.491 37.9774 195.491 36.6944V26.0793C195.491 25.8508 195.491 25.6223 195.508 25.4114C195.526 24.6206 195.544 23.9352 195.262 23.654C195.139 23.5134 194.893 23.4431 194.524 23.4431H190.218C189.445 23.4431 188.812 22.8104 188.812 22.0371V17.4853C188.812 17.2392 189.023 17.0283 189.287 17.0283C189.533 17.0283 189.744 17.2392 189.744 17.4853V22.0371C189.744 22.3007 189.955 22.5116 190.218 22.5116H194.524C195.157 22.5116 195.614 22.6698 195.93 23.0037C196.493 23.5661 196.457 24.4273 196.44 25.429C196.44 25.6399 196.44 25.8684 196.44 26.0793L196.422 36.6944C196.422 37.4501 197.037 38.0652 197.793 38.0652C198.162 38.0652 198.514 37.9246 198.76 37.661C199.023 37.3974 199.164 37.0635 199.164 36.6944V29.6469C199.164 28.7682 199.885 28.0477 200.763 28.0477C201.642 28.0477 202.345 28.7682 202.345 29.6469V36.6944C202.345 37.0635 202.486 37.3974 202.749 37.661C203.013 37.9246 203.347 38.0652 203.716 38.0652C204.472 38.0652 205.087 37.4501 205.087 36.6944V26.0793C205.087 25.8684 205.087 25.6399 205.069 25.429C205.052 24.4273 205.034 23.5661 205.579 23.0037C205.895 22.6698 206.352 22.5116 206.985 22.5116H211.291C211.554 22.5116 211.765 22.3007 211.765 22.0371V18.241C211.765 17.9774 211.976 17.7665 212.24 17.7665C212.486 17.7665 212.697 17.9774 212.697 18.241V22.0371C212.697 22.8104 212.064 23.4431 211.291 23.4431H206.985C206.633 23.4431 206.387 23.5134 206.247 23.654C205.983 23.9352 205.983 24.6206 206.018 25.4114C206.018 25.6223 206.018 25.8508 206.018 26.0793V36.6944C206.018 37.9774 204.981 38.9967 203.716 38.9967ZM209.182 20.4027H192.327C192.064 20.4027 191.853 20.1918 191.853 19.9457V17.4853C191.853 17.2392 192.064 17.0283 192.327 17.0283C192.591 17.0283 192.802 17.2392 192.802 17.4853V19.4712H208.725V18.0828C208.725 17.8192 208.936 17.6083 209.182 17.6083C209.445 17.6083 209.656 17.8192 209.656 18.0828V19.9457C209.656 20.1918 209.445 20.4027 209.182 20.4027Z" fill="#8474C7"/>
<path fill-rule="evenodd" clip-rule="evenodd" d="M193.469 17.96H188.144V18.4697C188.144 18.7157 187.933 18.9266 187.669 18.9266H185.824C185.561 18.9266 185.35 18.7157 185.35 18.4697V14.4978C185.35 14.2342 185.561 14.0233 185.824 14.0233H187.669C187.933 14.0233 188.144 14.2342 188.144 14.4978V14.9899H193.469V14.4978C193.469 14.2342 193.662 14.0233 193.926 14.0233H195.771C196.035 14.0233 196.246 14.2342 196.246 14.4978V18.4697C196.246 18.7157 196.035 18.9266 195.771 18.9266H193.926C193.662 18.9266 193.469 18.7157 193.469 18.4697V17.96ZM194.401 15.4644V17.4855V17.9952H195.314V14.9548H194.401V15.4644ZM187.213 17.4855V15.4644V14.9548H186.299V17.9952H187.213V17.4855ZM188.144 17.0286H193.469V15.9389H188.144V17.0286ZM210.886 18.9266C209.304 18.9266 208.074 18.2061 207.511 16.9583C207.107 16.062 207.16 15.0251 207.617 14.2869C207.564 14.199 207.546 14.0936 207.511 13.9706C207.459 13.7421 207.599 13.4961 207.845 13.4258C207.951 13.3906 208.179 13.2676 208.39 13.127C208.9 12.8282 209.515 12.4767 210.147 12.4767C210.288 12.4767 210.429 12.4943 210.569 12.5294C210.798 11.721 211.255 11.4398 211.624 11.3695C211.87 11.3168 212.116 11.475 212.169 11.721C212.221 11.9846 212.063 12.2307 211.817 12.2834C211.694 12.301 211.589 12.4416 211.518 12.6525C211.641 12.6349 211.782 12.6173 211.94 12.6173C212.239 12.6173 212.52 12.6876 212.801 12.8106C212.836 12.8282 212.854 12.8458 212.889 12.8634C213.469 13.3203 213.873 13.4082 213.873 13.4082C214.032 13.4433 214.172 13.5664 214.225 13.7069C214.278 13.8651 214.26 14.0233 214.172 14.1639L214.102 14.2342C214.383 14.6384 214.524 15.1481 214.524 15.6929C214.524 16.0795 214.453 16.4662 214.295 16.8528C213.768 18.1533 212.503 18.9266 210.886 18.9266ZM210.517 13.6367C210.517 13.6367 210.517 13.6191 210.499 13.6191C210.376 13.4258 210.253 13.4082 210.147 13.4082C209.778 13.4082 209.269 13.7069 208.865 13.9354C208.777 13.9881 208.689 14.0409 208.619 14.0936C208.636 14.1287 208.654 14.1639 208.654 14.199C208.847 14.4099 209.111 14.5154 209.339 14.5154C209.427 14.5154 209.55 14.5154 209.638 14.4275C209.726 14.3748 209.814 14.3396 209.919 14.3396C209.989 14.3396 210.042 14.3396 210.095 14.3748C210.253 14.4275 210.358 14.5681 210.394 14.7439C210.446 15.1305 210.622 15.7808 210.921 16.1498C211.044 15.9565 211.22 15.5874 211.255 14.8142C211.255 14.6384 211.36 14.4802 211.536 14.4099C211.694 14.3396 211.887 14.3572 212.028 14.4627C212.169 14.6033 212.274 14.6033 212.309 14.6033C212.52 14.6033 212.784 14.3572 213.03 14.076C212.836 13.9706 212.608 13.83 212.344 13.6367C212.221 13.5839 212.081 13.5488 211.94 13.5488C211.518 13.5488 211.184 13.7772 211.184 13.7772C211.079 13.8475 210.956 13.8827 210.833 13.8475C210.71 13.83 210.604 13.7421 210.534 13.6367H210.517ZM208.267 15.0954C208.126 15.5347 208.144 16.0795 208.372 16.5716C208.759 17.4855 209.691 17.9952 210.886 17.9952C212.643 17.9952 213.241 16.9583 213.434 16.5013C213.539 16.2377 213.592 15.9565 213.592 15.6929C213.592 15.4468 213.539 15.2008 213.452 14.9899C213.135 15.2887 212.749 15.5347 212.309 15.5347C212.239 15.5347 212.186 15.5347 212.116 15.5171C211.87 16.9583 211.079 17.1867 210.974 17.2219C210.938 17.2219 210.903 17.2219 210.868 17.2219C210.78 17.2219 210.692 17.2043 210.622 17.1516C210.042 16.7649 209.726 15.9917 209.585 15.4468C209.163 15.4996 208.671 15.3941 208.267 15.0954Z" fill="#3F15EE"/>
<path fill-rule="evenodd" clip-rule="evenodd" d="M214.471 41.3519H185.42C185.156 41.3519 184.945 41.141 184.945 40.8774V38.5399C184.945 38.2763 185.156 38.0654 185.42 38.0654H214.471C214.734 38.0654 214.945 38.2763 214.945 38.5399V40.8774C214.945 41.141 214.734 41.3519 214.471 41.3519ZM185.877 40.4029H213.996V38.9969H185.877V40.4029Z" fill="#8474C7"/>
<path fill-rule="evenodd" clip-rule="evenodd" d="M209.181 30.8248C208.97 30.8248 208.76 30.8248 208.549 30.8072C208.513 30.8072 208.478 30.8072 208.461 30.7896C208.373 30.7721 208.303 30.7369 208.25 30.6842C208.144 30.5788 208.092 30.4557 208.092 30.3503C207.775 28.4698 208.092 26.9408 209.023 25.816C210.587 23.9531 213.399 23.7949 214.225 23.7949C214.348 23.7949 214.436 23.8125 214.436 23.8125C214.647 23.8125 214.823 23.9707 214.875 24.1991C214.893 24.3046 215.35 27.099 213.698 29.0498C212.714 30.2273 211.185 30.8248 209.181 30.8248ZM185.385 37.2044C185.315 37.1868 185.245 37.1517 185.192 37.0814C185.086 36.9935 185.051 36.8881 185.034 36.765C184.788 35.3239 185.034 34.1464 185.772 33.2853C186.967 31.8266 189.129 31.7211 189.761 31.7211C189.867 31.7211 189.919 31.7211 189.919 31.7211C190.148 31.7387 190.324 31.8969 190.359 32.1078C190.376 32.1956 190.728 34.3573 189.462 35.8512C188.689 36.765 187.512 37.2396 185.965 37.2396C185.807 37.2396 185.649 37.222 185.491 37.222C185.455 37.222 185.42 37.2044 185.403 37.2044H185.385ZM185.877 35.6578L187.318 34.1288C187.512 33.9531 187.793 33.9355 187.986 34.1113C188.18 34.287 188.18 34.5858 188.004 34.7791L186.615 36.2554C187.547 36.1499 188.267 35.816 188.742 35.2536C189.445 34.41 189.498 33.2677 189.48 32.6701C188.795 32.7053 187.301 32.8986 186.492 33.8828C186.106 34.3397 185.895 34.9373 185.877 35.6578ZM190.236 29.8758L188.109 27.6086C187.933 27.4329 187.933 27.1341 188.127 26.9584C188.32 26.765 188.619 26.7826 188.795 26.9759L190.974 29.2782C191.027 28.1007 190.745 27.1517 190.148 26.4311C188.953 25.0076 186.826 24.7791 185.895 24.744C185.842 25.4997 185.877 27.222 186.914 28.4522C187.635 29.3134 188.742 29.7879 190.236 29.8758ZM191.782 30.3327C191.782 30.4557 191.73 30.5788 191.642 30.6842C191.571 30.7369 191.501 30.7721 191.413 30.7896C191.396 30.8072 191.361 30.8072 191.343 30.8072C191.132 30.8248 190.904 30.8248 190.71 30.8248C188.707 30.8248 187.178 30.2273 186.194 29.0498C184.542 27.099 184.999 24.3046 185.016 24.1991C185.051 23.9707 185.245 23.8125 185.455 23.8125C185.455 23.8125 185.526 23.7949 185.666 23.7949C186.492 23.7949 189.287 23.9531 190.868 25.816C191.8 26.9408 192.116 28.4698 191.782 30.3327ZM213.276 36.2554L211.87 34.7791C211.694 34.5858 211.712 34.287 211.888 34.1113C212.081 33.9355 212.38 33.9531 212.556 34.1288L213.997 35.6578C213.997 34.9373 213.786 34.3397 213.399 33.8828C212.591 32.8986 211.097 32.7053 210.412 32.6701C210.394 33.2677 210.447 34.4276 211.15 35.2536C211.624 35.816 212.345 36.1499 213.276 36.2554ZM214.84 36.765C214.84 36.8881 214.788 36.9935 214.7 37.0814C214.629 37.1517 214.559 37.1868 214.471 37.2044C214.436 37.2044 214.419 37.222 214.401 37.222C214.225 37.222 214.067 37.2396 213.909 37.2396C212.362 37.2396 211.202 36.765 210.429 35.8512C209.164 34.3573 209.515 32.1956 209.533 32.1078C209.568 31.8969 209.744 31.7387 209.972 31.7211C209.972 31.7211 210.025 31.7211 210.13 31.7211C210.763 31.7211 212.907 31.8266 214.12 33.2853C214.84 34.1464 215.086 35.3239 214.84 36.765ZM208.918 29.2782L211.097 26.9759C211.273 26.7826 211.571 26.765 211.765 26.9584C211.941 27.1341 211.958 27.4329 211.782 27.6086L209.638 29.8758C211.132 29.7879 212.257 29.3134 212.977 28.4522C214.014 27.222 214.032 25.4997 213.979 24.744C213.065 24.7791 210.939 25.0076 209.744 26.4311C209.146 27.1517 208.865 28.1007 208.918 29.2782Z" fill="#3F15EE"/>
</g>
<path d="M96.222 73.0752H63.668C58.1451 73.0752 53.668 77.5523 53.668 83.0752V115.629C53.668 121.152 58.1451 125.629 63.668 125.629H96.222C101.745 125.629 106.222 121.152 106.222 115.629V83.0752C106.222 77.5523 101.745 73.0752 96.222 73.0752Z" fill="#EFF0FE"/>
<path d="M93.0879 102.683C93.0879 102.215 92.8383 101.525 91.65 100.899C91.4438 100.791 91.1859 100.87 91.077 101.077C90.9674 101.284 91.0471 101.541 91.2545 101.65C91.8797 101.979 92.2389 102.356 92.2389 102.682C92.2389 103.562 89.6771 104.789 85.5053 104.789C81.3334 104.789 78.7717 103.562 78.7717 102.682C78.7717 102.355 79.1309 101.978 79.7561 101.649C79.9635 101.54 80.0432 101.284 79.9336 101.076C79.8252 100.869 79.5668 100.79 79.3605 100.899C78.1723 101.524 77.9227 102.213 77.9227 102.683C77.9227 102.73 77.9355 102.775 77.9402 102.821C77.9303 102.885 77.9303 102.951 77.9514 103.016L78.2982 104.095C78.5602 104.909 78.9609 105.649 79.4566 106.31C78.7348 106.589 77.9812 106.749 77.2043 106.792V106.319C77.2043 106.085 77.0145 105.895 76.7801 105.895C76.5457 105.895 76.3559 106.085 76.3559 106.319V106.794C75.3035 106.734 74.3098 106.459 73.4174 106.006L73.6547 105.596C73.7719 105.392 73.7021 105.133 73.4994 105.015C73.2973 104.897 73.0371 104.967 72.9193 105.171L72.6814 105.583C71.826 105.019 71.0936 104.286 70.5311 103.43L70.9418 103.193C71.1445 103.076 71.2143 102.816 71.0971 102.613C70.9793 102.41 70.7197 102.34 70.517 102.458L70.1086 102.693C69.6574 101.801 69.3826 100.808 69.3234 99.7561H69.7934C70.0277 99.7561 70.2176 99.5662 70.2176 99.3318C70.2176 99.0975 70.0277 98.9076 69.7934 98.9076H69.3229C69.3826 97.8559 69.6574 96.8627 70.1092 95.9709L70.517 96.2064C70.5838 96.2451 70.6564 96.2633 70.7285 96.2633C70.875 96.2633 71.018 96.1877 71.0965 96.0512C71.2137 95.8479 71.1439 95.5889 70.9412 95.4711L70.5316 95.2344C71.0947 94.3789 71.8266 93.6465 72.682 93.0834L72.9188 93.4936C72.9973 93.6301 73.1402 93.7057 73.2867 93.7057C73.3588 93.7057 73.432 93.6875 73.4982 93.6488C73.7016 93.5316 73.7707 93.2721 73.6535 93.0687L73.4174 92.6604C74.3098 92.2086 75.3029 91.9332 76.3547 91.8734V92.3451C76.3547 92.5795 76.5445 92.7693 76.7789 92.7693C77.0133 92.7693 77.2031 92.5795 77.2031 92.3451V91.8734C78.2514 91.9332 79.2445 92.2092 80.1387 92.6639L79.9043 93.0693C79.7871 93.2727 79.8568 93.5316 80.0596 93.6494C80.1264 93.6881 80.199 93.7062 80.2711 93.7062C80.4176 93.7062 80.5605 93.6307 80.6391 93.4941L80.874 93.0869C81.7277 93.65 82.4572 94.3848 83.0221 95.2373L82.6166 95.4717C82.4133 95.5889 82.3441 95.8484 82.4613 96.0518C82.5398 96.1883 82.6828 96.2639 82.8293 96.2639C82.9014 96.2639 82.9746 96.2457 83.0408 96.207L83.448 95.9721C83.9191 96.8949 84.2039 97.9232 84.2502 99.0125C84.1963 99.0693 84.1383 99.1215 84.0926 99.1848C83.5916 98.9475 82.998 98.9586 82.49 99.2393C81.9932 99.5164 81.6826 100.01 81.6346 100.544C81.082 100.588 80.567 100.888 80.2775 101.369C80.0865 101.693 80.0133 102.059 80.066 102.426C80.0988 102.658 80.3098 102.82 80.5459 102.787C80.7779 102.753 80.9396 102.539 80.9063 102.307C80.8816 102.131 80.9168 101.956 81.0064 101.803C81.201 101.48 81.6053 101.32 81.9938 101.414C82.1385 101.447 82.2932 101.405 82.398 101.298C82.5029 101.19 82.5434 101.036 82.5041 100.89C82.4092 100.538 82.5732 100.164 82.902 99.9816C83.2441 99.7912 83.6812 99.8463 83.9643 100.113C84.0715 100.214 84.225 100.254 84.3668 100.214C84.5098 100.176 84.6223 100.065 84.6633 99.923C84.7682 99.5639 85.1121 99.3125 85.5012 99.3125C85.892 99.3125 86.2383 99.5633 86.3426 99.9225C86.3836 100.065 86.4961 100.175 86.6385 100.214C86.7814 100.253 86.9338 100.214 87.0416 100.112C87.3246 99.8451 87.7588 99.7912 88.0992 99.9799C88.4309 100.164 88.5967 100.539 88.5018 100.89C88.4631 101.035 88.5029 101.19 88.6084 101.297C88.7127 101.404 88.865 101.445 89.0127 101.413C89.3959 101.318 89.8008 101.479 89.9959 101.803C90.0885 101.956 90.1242 102.13 90.0996 102.305C90.0662 102.538 90.2279 102.753 90.46 102.785C90.4805 102.788 90.5004 102.789 90.5203 102.789C90.7283 102.789 90.91 102.637 90.9404 102.425C90.9932 102.054 90.9182 101.686 90.723 101.365C90.4354 100.887 89.9221 100.587 89.3713 100.544C89.3227 100.01 89.0115 99.5164 88.5135 99.2393C88.0172 98.9621 87.4166 98.9533 86.9156 99.1859C86.8652 99.115 86.8008 99.0564 86.7404 98.9943C86.5611 93.6641 82.1338 89.3545 76.7812 89.3545C71.2787 89.3545 66.8027 93.8305 66.8027 99.333C66.8027 104.831 71.2787 109.303 76.7812 109.303C78.4084 109.303 80.0051 108.892 81.4289 108.135C82.0781 108.547 82.7883 108.875 83.5576 109.077L83.649 109.101C84.276 109.266 84.9205 109.348 85.5656 109.348C86.2107 109.348 86.8553 109.266 87.4822 109.101C90.0064 108.438 92.0396 106.473 92.7891 103.973L93.0604 103.068C93.0814 102.997 93.0779 102.928 93.0633 102.86C93.0727 102.802 93.0879 102.744 93.0879 102.683ZM76.783 108.455C71.7486 108.455 67.6529 104.363 67.6529 99.3336C67.6529 94.2992 71.7486 90.2035 76.783 90.2035C81.5074 90.2035 85.4414 93.8744 85.8598 98.5068C85.7437 98.4822 85.6254 98.4635 85.5029 98.4635C85.3535 98.4635 85.2076 98.4852 85.0676 98.5215C84.6545 94.3215 81.0703 91.0033 76.7824 91.0033C72.1887 91.0033 68.4521 94.7404 68.4521 99.3336C68.4521 103.927 72.1893 107.664 76.7824 107.664C77.9127 107.664 79.0031 107.431 80.0332 106.991C80.2289 107.196 80.4363 107.388 80.6543 107.57C79.4496 108.14 78.1295 108.455 76.783 108.455ZM87.2684 108.281C86.1557 108.574 84.9797 108.574 83.8676 108.281L83.7762 108.257C81.774 107.731 80.1662 106.331 79.3523 104.461C80.8201 105.233 83.2078 105.638 85.5059 105.638C87.8367 105.638 90.2572 105.22 91.7186 104.425C90.9135 106.307 89.267 107.756 87.2684 108.281Z" fill="#8474C7"/>
<path d="M76.5738 102.43C76.8082 102.43 76.998 102.24 76.998 102.006V101.42C77.0725 101.368 77.1346 101.306 77.1867 101.231H79.8709C80.1053 101.231 80.2951 101.042 80.2951 100.807C80.2951 100.573 80.1053 100.383 79.8709 100.383H77.1867C77.1346 100.308 77.073 100.246 76.998 100.194V96.3148C76.998 96.0805 76.8082 95.8906 76.5738 95.8906C76.3395 95.8906 76.1496 96.0805 76.1496 96.3148V100.194C76.0746 100.246 76.0125 100.308 75.9609 100.382H75.4242C75.1898 100.382 75 100.572 75 100.807C75 101.041 75.1898 101.231 75.4242 101.231H75.9609C76.0131 101.306 76.0752 101.368 76.1496 101.42V102.005C76.1496 102.24 76.3389 102.43 76.5738 102.43Z" fill="#8474C7"/>
<path d="M343.222 83.0752H310.668C305.145 83.0752 300.668 87.5523 300.668 93.0752V125.629C300.668 131.152 305.145 135.629 310.668 135.629H343.222C348.745 135.629 353.222 131.152 353.222 125.629V93.0752C353.222 87.5523 348.745 83.0752 343.222 83.0752Z" fill="#EFF0FE"/>
<g clip-path="url(#clip2_214_1110)">
<path d="M332.044 109.1L331.164 108.221V107.202L331.964 106.402C332.148 106.219 332.148 105.923 331.964 105.74C331.781 105.556 331.485 105.556 331.301 105.74L330.695 106.346L330.089 105.74C329.906 105.556 329.61 105.556 329.426 105.74C329.243 105.923 329.243 106.219 329.426 106.402L330.227 107.202V108.221L329.347 109.1C328.416 110.031 327.883 111.319 327.883 112.633C327.883 113.382 328.174 114.088 328.706 114.626C329.241 115.155 329.947 115.446 330.695 115.446C331.443 115.446 332.15 115.155 332.688 114.622C333.217 114.087 333.508 113.382 333.508 112.633C333.508 111.977 333.379 111.333 333.125 110.72C332.874 110.111 332.51 109.566 332.044 109.1ZM332.025 113.96C331.668 114.313 331.195 114.508 330.695 114.508C330.196 114.508 329.723 114.313 329.369 113.963C329.015 113.605 328.82 113.133 328.82 112.633C328.82 111.566 329.254 110.519 330.01 109.763L330.695 109.077L331.381 109.763C331.759 110.142 332.055 110.584 332.259 111.079C332.465 111.577 332.57 112.1 332.57 112.633C332.57 113.133 332.375 113.605 332.025 113.96Z" fill="#8474C7"/>
<path d="M341.541 117.894L330.16 98.0894C329.502 96.941 328.27 96.2271 326.945 96.2271C326.297 96.2271 325.655 96.3996 325.089 96.7253C324.523 97.0521 324.053 97.5241 323.731 98.0885L312.349 117.895C312.085 118.357 311.945 118.883 311.945 119.416C311.945 120.282 312.236 121.03 312.786 121.58C313.372 122.167 314.216 122.477 315.227 122.477H338.664C340.627 122.477 341.945 121.247 341.945 119.416C341.945 118.883 341.806 118.357 341.541 117.894ZM324.544 98.5549C324.785 98.1335 325.135 97.7819 325.557 97.5377C325.981 97.2935 326.461 97.1646 326.945 97.1646C327.935 97.1646 328.855 97.6975 329.346 98.5558L331.24 101.852H328.126L326.626 99.7085C326.45 99.4577 326.033 99.4577 325.857 99.7085L324.357 101.852H322.649L324.544 98.5549ZM327.883 103.638C327.883 104.448 327.131 105.133 326.242 105.133C325.82 105.133 325.398 104.97 325.087 104.685C324.774 104.398 324.602 104.026 324.602 103.638C324.602 103.39 324.789 102.88 324.987 102.588L326.242 100.795L327.495 102.585C327.694 102.877 327.883 103.389 327.883 103.638ZM321.32 116.383C320.028 116.383 318.977 115.332 318.977 114.04C318.977 112.747 320.028 111.696 321.32 111.696C322.613 111.696 323.664 112.747 323.664 114.04C323.664 115.332 322.613 116.383 321.32 116.383ZM323.612 111.696H325.493C325.411 112.192 325.173 112.949 324.529 113.358C324.393 112.714 324.067 112.14 323.612 111.696ZM330.695 121.54H327.414V120.602C327.414 118.793 328.886 117.321 330.695 117.321H332.268C331.31 118.095 330.695 119.277 330.695 120.602V121.54ZM338.195 121.54H331.633V120.602C331.633 118.793 333.105 117.321 334.914 117.321C336.723 117.321 338.195 118.793 338.195 120.602V121.54ZM323.612 116.383C324.144 115.863 324.5 115.165 324.583 114.386C326.07 113.804 326.477 112.102 326.477 111.227C326.477 110.968 326.267 110.758 326.008 110.758H321.789V109.821C321.789 109.562 321.579 109.352 321.32 109.352C321.062 109.352 320.852 109.562 320.852 109.821V110.796C319.264 111.025 318.039 112.39 318.039 114.04C318.039 114.957 318.419 115.787 319.029 116.383H314.299L318.879 108.415H328.707L329.289 107.832V107.591L328.764 107.065C328.498 106.8 328.352 106.447 328.352 106.071C328.352 105.696 328.498 105.342 328.764 105.077C329.029 104.811 329.382 104.665 329.758 104.665C330.107 104.665 330.437 104.792 330.695 105.023C330.954 104.792 331.284 104.665 331.633 104.665C332.008 104.665 332.362 104.811 332.627 105.077C332.893 105.343 333.039 105.696 333.039 106.071C333.039 106.447 332.893 106.8 332.627 107.065L332.102 107.591V107.832L332.684 108.415H335.012L339.591 116.383H323.612Z" fill="#8474C7"/>
<path d="M336.789 120.602C337.048 120.602 337.258 120.392 337.258 120.133C337.258 119.874 337.048 119.665 336.789 119.665C336.53 119.665 336.32 119.874 336.32 120.133C336.32 120.392 336.53 120.602 336.789 120.602Z" fill="#8474C7"/>
<path d="M335.383 119.196C335.642 119.196 335.852 118.986 335.852 118.727C335.852 118.468 335.642 118.258 335.383 118.258C335.124 118.258 334.914 118.468 334.914 118.727C334.914 118.986 335.124 119.196 335.383 119.196Z" fill="#8474C7"/>
</g>
</g>
</g>
<defs>
<clipPath id="clip0_214_1110">
<rect width="404" height="280" fill="white" transform="translate(-2 0.0751953)"/>
</clipPath>
<clipPath id="clip1_214_1110">
<rect width="30" height="30" fill="white" transform="translate(184.945 11.3521)"/>
</clipPath>
<clipPath id="clip2_214_1110">
<rect width="30" height="30" fill="white" transform="translate(311.945 94.3521)"/>
</clipPath>
</defs>
</svg>
