<svg width="400" height="281" viewBox="0 0 400 281" fill="none" xmlns="http://www.w3.org/2000/svg">
<g clip-path="url(#clip0_214_924)">
<g clip-path="url(#clip1_214_924)">
<g clip-path="url(#clip2_214_924)">
<g clip-path="url(#clip3_214_924)">
<g filter="url(#filter0_d_214_924)">
<path d="M251.851 87.2725H47.323C42.0198 87.2725 37.7207 91.5715 37.7207 96.8747V123.761C37.7207 129.064 42.0198 133.363 47.323 133.363H251.851C257.155 133.363 261.454 129.064 261.454 123.761V96.8747C261.454 91.5715 257.155 87.2725 251.851 87.2725Z" fill="url(#paint0_linear_214_924)"/>
<path d="M251.852 87.7524H47.3233C42.2853 87.7524 38.2012 91.8366 38.2012 96.8746V123.761C38.2012 128.799 42.2853 132.883 47.3233 132.883H251.852C256.89 132.883 260.974 128.799 260.974 123.761V96.8746C260.974 91.8366 256.89 87.7524 251.852 87.7524Z" stroke="#E1E4FE" stroke-width="0.960227"/>
<g clip-path="url(#clip4_214_924)">
<path d="M74.7892 102.385C74.313 101.759 64.8236 101.692 60.7656 101.692C59.665 101.692 58.1636 101.697 56.552 101.716C56.5675 101.604 56.5764 101.491 56.5764 101.381C56.5764 100.515 56.1526 99.7472 55.5039 99.2687L57.0025 97.7743C57.1478 97.861 57.3123 97.9102 57.4858 97.9102C57.7398 97.9102 57.978 97.8118 58.1575 97.6322C58.337 97.4527 58.4355 97.2146 58.4355 96.961C58.4355 96.7074 58.337 96.4688 58.1575 96.2893C57.7994 95.9312 57.1736 95.9307 56.8145 96.2893C56.6355 96.4683 56.5366 96.7069 56.5366 96.961C56.5366 97.1363 56.5867 97.3027 56.6748 97.449L55.097 99.0221C54.7497 98.8524 54.3616 98.7544 53.9495 98.7544C53.5853 98.7544 53.2384 98.829 52.923 98.963L51.7661 97.8066C51.9836 97.4419 51.9391 96.9629 51.6255 96.6493C51.2551 96.279 50.6528 96.279 50.2825 96.6493C49.9122 97.0196 49.9126 97.6215 50.2825 97.9922C50.4676 98.1774 50.7105 98.2697 50.9537 98.2697C51.1225 98.2697 51.2903 98.2224 51.4398 98.1329L52.4992 99.1918C51.7886 99.6624 51.3184 100.467 51.3184 101.381C51.3184 101.537 51.3372 101.69 51.3653 101.842C48.9006 101.942 46.9506 102.11 46.7411 102.385C46.0651 103.274 46.0651 120.526 46.7411 121.415C46.8372 121.542 47.3069 121.645 48.0212 121.73V124.385C48.0212 124.513 48.1244 124.616 48.2519 124.616H73.2789C73.4064 124.616 73.5095 124.513 73.5095 124.385V121.73C74.2234 121.645 74.6931 121.542 74.7892 121.415C75.4651 120.526 75.4651 103.274 74.7892 102.385ZM57.1408 96.6155C57.2359 96.5204 57.3611 96.4726 57.4862 96.4726C57.6114 96.4726 57.7361 96.5204 57.8312 96.6155C58.0216 96.8058 58.0216 97.1157 57.8312 97.306C57.6461 97.4916 57.3489 97.4926 57.1576 97.3172C57.1511 97.3093 57.1464 97.2999 57.1384 97.2924C57.1351 97.2891 57.1309 97.2887 57.1272 97.2858C56.9542 97.0941 56.9561 96.8002 57.1408 96.6155ZM50.6087 97.666C50.4184 97.4757 50.4184 97.1654 50.6087 96.9755C50.7991 96.7852 51.1098 96.7857 51.2992 96.9755C51.4853 97.1616 51.4862 97.4602 51.3086 97.6515C51.3058 97.6538 51.3016 97.6533 51.2987 97.6562C51.2926 97.6618 51.2903 97.6697 51.2847 97.6758C51.0939 97.853 50.7944 97.8521 50.6087 97.6665V97.666ZM51.7797 101.381C51.7797 100.187 52.7533 99.2162 53.9495 99.2162C55.1458 99.2162 56.1147 100.187 56.1147 101.381C56.1147 101.493 56.1016 101.608 56.0819 101.723C54.6648 101.742 53.1864 101.774 51.8326 101.823C51.8012 101.678 51.7797 101.531 51.7797 101.38V101.381ZM73.0483 124.154H48.4834V121.779C51.5148 122.07 57.6944 122.108 60.7656 122.108C63.8369 122.108 70.0169 122.07 73.0483 121.779V124.155V124.154ZM74.4301 121.12C74.2895 121.193 73.9 121.258 73.3187 121.316C73.3051 121.314 73.293 121.308 73.2789 121.308C73.2451 121.308 73.2133 121.316 73.1842 121.33C68.5623 121.76 52.9994 121.763 48.3794 121.351C48.3423 121.327 48.3006 121.308 48.2528 121.308C48.2186 121.308 48.1862 121.317 48.1572 121.33C47.5942 121.274 47.2262 121.211 47.1119 121.14C46.5381 120.19 46.5381 103.61 47.0828 102.69C47.3687 102.511 49.1289 102.376 51.6287 102.285C51.6372 102.286 51.6437 102.292 51.6522 102.292C51.6747 102.292 51.6976 102.289 51.7201 102.282C51.7206 102.282 51.7211 102.281 51.7216 102.281C53.0669 102.233 54.6212 102.197 56.2731 102.175C56.2876 102.175 56.3026 102.177 56.3167 102.174C57.8167 102.154 59.3955 102.143 60.9709 102.143C67.45 102.143 73.8648 102.317 74.4198 102.66C74.9903 103.604 74.9931 119.982 74.4301 121.12Z" fill="#8474C7"/>
<path d="M66.2183 103.952H49.7581C49.1094 103.952 48.582 104.48 48.582 105.129V118.671C48.582 119.32 49.1094 119.847 49.7581 119.847H66.2183C66.867 119.847 67.3944 119.32 67.3944 118.671V105.129C67.3944 104.48 66.867 103.952 66.2183 103.952ZM66.9331 118.671C66.9331 119.065 66.6125 119.386 66.2183 119.386H49.7581C49.3639 119.386 49.0433 119.065 49.0433 118.671V105.129C49.0433 104.734 49.3639 104.413 49.7581 104.413H66.2183C66.6125 104.413 66.9331 104.734 66.9331 105.129V118.671ZM71.2213 104.723C70.1572 104.723 69.2914 105.589 69.2914 106.653C69.2914 107.717 70.1572 108.582 71.2213 108.582C72.2853 108.582 73.1511 107.717 73.1511 106.653C73.1511 105.589 72.2853 104.723 71.2213 104.723ZM71.2213 108.121C70.4113 108.121 69.7527 107.462 69.7527 106.652C69.7527 105.842 70.4113 105.184 71.2213 105.184C72.0312 105.184 72.6898 105.842 72.6898 106.652C72.6898 107.462 72.0312 108.121 71.2213 108.121ZM72.628 111.488C72.628 110.712 71.997 110.081 71.2213 110.081C70.4455 110.081 69.8141 110.712 69.8141 111.488C69.8141 112.264 70.445 112.895 71.2213 112.895C71.9975 112.895 72.628 112.264 72.628 111.488ZM70.2753 111.488C70.2753 110.967 70.6995 110.542 71.2213 110.542C71.743 110.542 72.1667 110.967 72.1667 111.488C72.1667 112.009 71.7425 112.434 71.2213 112.434C70.7 112.434 70.2753 112.009 70.2753 111.488ZM72.92 115.244H69.522C69.3945 115.244 69.2914 115.347 69.2914 115.474C69.2914 115.602 69.3945 115.705 69.522 115.705H72.92C73.0475 115.705 73.1506 115.602 73.1506 115.474C73.1506 115.347 73.0475 115.244 72.92 115.244ZM72.92 117.139H69.522C69.3945 117.139 69.2914 117.242 69.2914 117.37C69.2914 117.497 69.3945 117.6 69.522 117.6H72.92C73.0475 117.6 73.1506 117.497 73.1506 117.37C73.1506 117.242 73.0475 117.139 72.92 117.139ZM72.92 119.034H69.522C69.3945 119.034 69.2914 119.137 69.2914 119.264C69.2914 119.392 69.3945 119.495 69.522 119.495H72.92C73.0475 119.495 73.1506 119.392 73.1506 119.264C73.1506 119.137 73.0475 119.034 72.92 119.034Z" fill="#8474C7"/>
</g>
</g>
<g filter="url(#filter1_d_214_924)">
<path d="M359.879 143.926H155.35C150.047 143.926 145.748 148.225 145.748 153.528V180.414C145.748 185.718 150.047 190.017 155.35 190.017H359.879C365.182 190.017 369.481 185.718 369.481 180.414V153.528C369.481 148.225 365.182 143.926 359.879 143.926Z" fill="url(#paint1_linear_214_924)"/>
<path d="M359.879 144.406H155.351C150.313 144.406 146.229 148.49 146.229 153.528V180.414C146.229 185.452 150.313 189.536 155.351 189.536H359.879C364.917 189.536 369.001 185.452 369.001 180.414V153.528C369.001 148.49 364.917 144.406 359.879 144.406Z" stroke="#E1E4FE" stroke-width="0.960227"/>
<g clip-path="url(#clip5_214_924)">
<path d="M168.228 152.581C160.593 152.869 154.383 159.476 154.383 167.309V170.527C154.383 171.676 155.177 172.636 156.243 172.905V174.172C156.244 174.656 156.437 175.121 156.779 175.464C157.122 175.807 157.587 175.999 158.072 176H159.219C159.31 176.385 159.528 176.728 159.838 176.974C160.148 177.22 160.532 177.355 160.928 177.356C161.395 177.355 161.843 177.17 162.173 176.839C162.503 176.509 162.689 176.062 162.69 175.595V166.889C162.689 166.422 162.503 165.974 162.173 165.644C161.843 165.314 161.395 165.128 160.928 165.128C160.532 165.129 160.148 165.263 159.838 165.509C159.528 165.755 159.31 166.098 159.219 166.484H158.071C157.857 166.484 157.654 166.528 157.462 166.596C157.668 160.374 162.915 155.402 169.219 155.64C175.011 155.859 179.748 160.709 180.088 166.592C179.898 166.523 179.696 166.486 179.493 166.484H178.346C178.255 166.099 178.037 165.756 177.727 165.51C177.417 165.264 177.033 165.129 176.637 165.128C176.17 165.129 175.722 165.315 175.392 165.645C175.062 165.975 174.876 166.422 174.876 166.889V175.595C174.876 176.062 175.062 176.51 175.392 176.84C175.722 177.17 176.17 177.356 176.637 177.356C177.032 177.355 177.416 177.221 177.727 176.975C178.037 176.729 178.255 176.386 178.346 176H179.493C180.088 176 180.612 175.711 180.946 175.269V175.72C180.946 176.506 180.633 177.259 180.077 177.815C179.522 178.371 178.768 178.683 177.982 178.684H170.964C170.634 177.816 169.615 177.194 168.363 177.194C166.835 177.194 165.639 178.112 165.639 179.282C165.639 180.454 166.835 181.37 168.363 181.37C169.614 181.37 170.631 180.751 170.962 179.884H177.982C179.086 179.882 180.145 179.443 180.925 178.662C181.706 177.882 182.145 176.823 182.146 175.72V172.526C183.445 171.596 183.183 170.515 183.183 166.97C183.183 158.846 176.443 152.291 168.228 152.581ZM168.363 180.17C167.464 180.17 166.839 179.702 166.839 179.282C166.839 178.862 167.464 178.394 168.363 178.394C169.261 178.394 169.887 178.862 169.887 179.282C169.887 179.702 169.261 180.17 168.363 180.17ZM160.366 166.889C160.366 166.74 160.426 166.597 160.531 166.492C160.636 166.387 160.779 166.327 160.928 166.327C161.077 166.327 161.219 166.387 161.325 166.492C161.43 166.597 161.489 166.74 161.489 166.889V175.595C161.484 175.74 161.423 175.879 161.318 175.98C161.214 176.081 161.073 176.138 160.928 176.138C160.782 176.138 160.642 176.081 160.537 175.98C160.432 175.879 160.371 175.74 160.366 175.595V166.889ZM158.071 167.684H159.166V174.8H158.071C157.725 174.8 157.443 174.518 157.443 174.172V168.312C157.443 167.966 157.725 167.684 158.071 167.684ZM169.265 154.441C169.103 154.435 168.942 154.432 168.781 154.432C161.868 154.432 156.243 160.057 156.243 166.97V171.635C156.043 171.527 155.876 171.367 155.76 171.172C155.644 170.977 155.582 170.754 155.582 170.527V167.309C155.582 160.114 161.275 154.045 168.273 153.781C168.442 153.774 168.612 153.771 168.782 153.771C176.061 153.771 181.982 159.692 181.982 166.971V170.528C181.982 171.006 181.714 171.423 181.321 171.637V167.264C181.321 160.444 175.913 154.692 169.265 154.441ZM177.198 175.595C177.198 175.743 177.139 175.886 177.033 175.991C176.928 176.097 176.785 176.156 176.637 176.156C176.488 176.156 176.345 176.097 176.24 175.991C176.135 175.886 176.076 175.743 176.076 175.595V166.889C176.076 166.74 176.135 166.597 176.24 166.492C176.345 166.387 176.488 166.328 176.637 166.328C176.785 166.328 176.928 166.387 177.033 166.492C177.139 166.597 177.198 166.74 177.198 166.889V175.595ZM180.121 174.172C180.121 174.518 179.839 174.8 179.493 174.8H178.398V167.684H179.493C179.839 167.684 180.121 167.966 180.121 168.312V174.172Z" fill="#8474C7"/>
</g>
</g>
<g filter="url(#filter2_d_214_924)">
<path d="M324.35 33.0195H119.821C114.783 33.0195 110.699 37.1037 110.699 42.1417V69.0281C110.699 74.0661 114.783 78.1502 119.821 78.1502H324.35C329.388 78.1502 333.472 74.0661 333.472 69.0281V42.1417C333.472 37.1037 329.388 33.0195 324.35 33.0195Z" stroke="#E1E4FE" stroke-width="0.960227"/>
<path d="M146.696 45.5825C142.434 46.2695 138.383 45.5291 134.312 43.3199C132.903 42.5495 131.184 43.4177 130.913 44.9597L130.158 49.2401C127.899 49.7285 125.613 49.8041 123.309 49.4315C121.696 49.1723 120.363 50.5751 120.638 52.1309L121.555 57.3335C122.733 64.0151 129.079 67.4075 131.753 68.5559C132.169 68.7357 132.63 68.7896 133.077 68.7108C133.524 68.632 133.938 68.424 134.268 68.1125C135.314 67.1274 136.264 66.045 137.104 64.8797C137.178 64.8869 137.253 64.8959 137.328 64.8959C137.642 64.8959 137.956 64.8335 138.252 64.7081C140.927 63.5543 147.275 60.1517 148.451 53.4851L149.362 48.2849C149.651 46.6739 148.251 45.3275 146.696 45.5825ZM133.446 67.2377C133.286 67.3878 133.085 67.488 132.868 67.5262C132.651 67.5643 132.428 67.5387 132.226 67.4525C129.732 66.3815 123.813 63.2303 122.737 57.1247L121.819 51.9227C121.694 51.2111 122.251 50.6015 122.93 50.6015C122.992 50.6015 123.054 50.6063 123.119 50.6165C127.775 51.3671 132.222 50.4161 136.263 48.2231C136.42 48.1382 136.595 48.0917 136.774 48.0877C136.952 48.0836 137.129 48.122 137.29 48.1997C137.451 48.2774 137.591 48.3922 137.698 48.5346C137.806 48.6769 137.878 48.8429 137.909 49.0187L138.838 54.2861C139.914 60.3923 135.426 65.3783 133.446 67.2377ZM141.218 56.8565C140.979 57.1475 140.593 57.3725 140.124 57.5171C140.155 57.2393 140.177 56.9585 140.189 56.6741L141.218 56.8565ZM148.181 48.0749L147.269 53.2763C146.225 59.1947 140.613 62.3411 138.009 63.5015C138.83 62.1305 139.542 60.5477 139.918 58.8017C141.401 58.5407 142.463 57.6737 142.668 56.5019C142.695 56.3453 142.659 56.1844 142.568 56.0543C142.476 55.9243 142.337 55.8358 142.181 55.8083L140.178 55.4543C140.123 54.5159 140.102 54.5477 139.091 48.8105C138.815 47.2415 137.085 46.4135 135.692 47.1689C134.339 47.9056 132.911 48.4939 131.433 48.9233L132.095 45.1685C132.126 44.9929 132.198 44.8271 132.305 44.6848C132.413 44.5425 132.553 44.4278 132.713 44.3502C132.874 44.2726 133.051 44.2343 133.229 44.2385C133.407 44.2426 133.582 44.2891 133.739 44.3741C137.994 46.6829 142.418 47.4875 146.889 46.7669C147.067 46.7366 147.249 46.7497 147.421 46.805C147.593 46.8603 147.748 46.9562 147.875 47.0846C148.002 47.2129 148.096 47.37 148.149 47.5424C148.202 47.7148 148.213 47.8974 148.181 48.0749Z" fill="#8474C7"/>
<path d="M141.147 51.4081C141.082 51.4529 141.026 51.5103 140.983 51.5768C140.94 51.6433 140.91 51.7177 140.896 51.7957C140.882 51.8737 140.883 51.9537 140.9 52.0312C140.917 52.1086 140.949 52.182 140.995 52.2469C141.04 52.3119 141.098 52.3672 141.165 52.4097C141.232 52.4522 141.306 52.481 141.385 52.4944C141.463 52.5079 141.543 52.5057 141.62 52.488C141.697 52.4704 141.77 52.4376 141.835 52.3915C142.04 52.2467 142.273 52.1441 142.518 52.0897C142.764 52.0353 143.018 52.0302 143.265 52.0747C143.513 52.1176 143.75 52.2091 143.962 52.3442C144.173 52.4792 144.357 52.655 144.5 52.8613C144.591 52.9917 144.731 53.0806 144.887 53.1082C145.044 53.1359 145.205 53.1002 145.336 53.0089C145.466 52.9177 145.555 52.7783 145.583 52.6216C145.61 52.4649 145.575 52.3035 145.483 52.1731C145.249 51.8379 144.951 51.5522 144.606 51.3323C144.261 51.1124 143.877 50.9626 143.474 50.8916C143.071 50.8205 142.658 50.8296 142.259 50.9182C141.86 51.0068 141.482 51.1733 141.147 51.4081ZM129.001 56.0941C129.092 55.9638 129.128 55.8025 129.1 55.6458C129.073 55.4891 128.984 55.3498 128.854 55.2583C128.519 55.0235 128.141 54.8569 127.742 54.7682C127.343 54.6794 126.93 54.6703 126.527 54.7412C126.125 54.8122 125.74 54.9618 125.395 55.1816C125.05 55.4014 124.752 55.687 124.518 56.0221C124.455 56.1122 124.418 56.2175 124.411 56.3269C124.404 56.4363 124.427 56.5455 124.478 56.6427C124.528 56.74 124.605 56.8216 124.698 56.8788C124.791 56.9359 124.899 56.9665 125.008 56.9671C125.105 56.9673 125.2 56.9441 125.286 56.8996C125.371 56.8551 125.445 56.7906 125.5 56.7115C125.644 56.5051 125.827 56.3293 126.039 56.1941C126.251 56.059 126.488 55.9673 126.736 55.9243C126.983 55.8798 127.237 55.8848 127.482 55.9392C127.728 55.9936 127.96 56.0962 128.165 56.2411C128.23 56.2864 128.302 56.3184 128.379 56.3355C128.456 56.3526 128.536 56.3544 128.613 56.3408C128.691 56.3271 128.765 56.2983 128.832 56.256C128.898 56.2137 128.956 56.1587 129.001 56.0941ZM134.458 53.3437C134.055 53.4138 133.67 53.5632 133.325 53.783C132.98 54.0029 132.682 54.289 132.448 54.6247C132.386 54.7146 132.349 54.82 132.342 54.9293C132.335 55.0386 132.358 55.1478 132.408 55.245C132.459 55.3422 132.535 55.4238 132.629 55.4808C132.722 55.5378 132.83 55.5682 132.939 55.5685C133.036 55.5687 133.131 55.5455 133.217 55.5009C133.302 55.4563 133.376 55.3916 133.431 55.3123C133.575 55.1059 133.758 54.9301 133.97 54.795C134.182 54.66 134.418 54.5685 134.666 54.5257C134.914 54.4813 135.167 54.4864 135.413 54.5407C135.659 54.5951 135.891 54.6977 136.096 54.8425C136.227 54.9319 136.387 54.9662 136.543 54.9379C136.699 54.9096 136.837 54.821 136.927 54.6914C137.018 54.5618 137.054 54.4016 137.027 54.2458C137 54.0899 136.913 53.951 136.784 53.8591C136.45 53.6236 136.072 53.4568 135.673 53.3684C135.273 53.2799 134.86 53.2715 134.458 53.3437ZM135.374 58.5067C135.31 58.4614 135.237 58.4293 135.16 58.4123C135.083 58.3953 135.003 58.3937 134.926 58.4077L127.819 59.6605C127.663 59.6882 127.524 59.7769 127.432 59.9072C127.341 60.0375 127.305 60.1987 127.333 60.3553C128.038 64.3681 136.33 62.9227 135.621 58.8943C135.607 58.8166 135.578 58.7424 135.536 58.6759C135.494 58.6093 135.439 58.5519 135.374 58.5067ZM128.784 60.7087L134.38 59.7217C133.736 61.5457 130.019 62.1967 128.784 60.7087Z" fill="#8474C7"/>
</g>
<g filter="url(#filter3_d_214_924)">
<path d="M248.012 197.699H43.4831C38.1799 197.699 33.8809 201.998 33.8809 207.301V234.187C33.8809 239.491 38.1799 243.79 43.4831 243.79H248.012C253.315 243.79 257.614 239.491 257.614 234.187V207.301C257.614 201.998 253.315 197.699 248.012 197.699Z" fill="url(#paint2_linear_214_924)"/>
<path d="M248.012 198.179H43.4835C38.4455 198.179 34.3613 202.263 34.3613 207.301V234.187C34.3613 239.225 38.4455 243.309 43.4835 243.309H248.012C253.05 243.309 257.134 239.225 257.134 234.187V207.301C257.134 202.263 253.05 198.179 248.012 198.179Z" stroke="#E1E4FE" stroke-width="0.960227"/>
<g clip-path="url(#clip6_214_924)">
<path d="M68.4147 208.855H45.4365C43.7564 208.855 42.3943 210.217 42.3943 211.897V229.592C42.3943 231.272 43.7564 232.634 45.4365 232.634H68.4147C70.0948 232.634 71.4568 231.272 71.4568 229.592V211.897C71.4568 210.217 70.0948 208.855 68.4147 208.855Z" fill="#8474C7"/>
<path d="M45.4365 209.763H68.4147C69.5912 209.763 70.5489 210.72 70.5489 211.897V213.569H43.3028V211.897C43.3028 210.72 44.2605 209.763 45.437 209.763H45.4365Z" fill="white"/>
<path d="M68.4146 231.726H45.4365C44.26 231.726 43.3023 230.768 43.3023 229.591V214.478H70.5484V229.591C70.5484 230.768 69.5912 231.726 68.4146 231.726Z" fill="#E4DEFC"/>
<path d="M61.3629 212.952C62.0623 212.952 62.6314 212.383 62.6314 211.684C62.6314 210.985 62.0623 210.416 61.3629 210.416C60.6636 210.416 60.0945 210.985 60.0945 211.684C60.0945 212.383 60.6636 212.952 61.3629 212.952ZM61.3629 211.324C61.5612 211.324 61.7229 211.486 61.7229 211.684C61.7229 211.882 61.5612 212.044 61.3629 212.044C61.1647 212.044 61.0025 211.883 61.0025 211.684C61.0025 211.485 61.1642 211.324 61.3629 211.324ZM64.8514 212.952C65.5508 212.952 66.1198 212.383 66.1198 211.684C66.1198 210.985 65.5508 210.416 64.8514 210.416C64.152 210.416 63.5829 210.985 63.5829 211.684C63.5829 212.383 64.152 212.952 64.8514 212.952ZM64.8514 211.324C65.0497 211.324 65.2114 211.486 65.2114 211.684C65.2114 211.882 65.0497 212.044 64.8514 212.044C64.6531 212.044 64.4909 211.883 64.4909 211.684C64.4909 211.485 64.6526 211.324 64.8514 211.324ZM68.3398 212.952C69.0392 212.952 69.6083 212.383 69.6083 211.684C69.6083 210.985 69.0392 210.416 68.3398 210.416C67.6404 210.416 67.0714 210.985 67.0714 211.684C67.0714 212.383 67.6404 212.952 68.3398 212.952ZM68.3398 211.324C68.5381 211.324 68.6998 211.486 68.6998 211.684C68.6998 211.882 68.5381 212.044 68.3398 212.044C68.1415 212.044 67.9794 211.883 67.9794 211.684C67.9794 211.485 68.1411 211.324 68.3398 211.324ZM45.0204 212.138H56.0839C56.3347 212.138 56.5381 211.934 56.5381 211.683C56.5381 211.433 56.3347 211.229 56.0839 211.229H45.0204C44.7697 211.229 44.5662 211.433 44.5662 211.683C44.5662 211.934 44.7697 212.138 45.0204 212.138ZM52.8308 226.826C52.6381 226.714 52.3995 226.714 52.2073 226.826L51.0017 227.522V226.712C51.0017 226.461 50.7983 226.257 50.5475 226.257C50.2967 226.257 50.0933 226.461 50.0933 226.712V230.1C50.0933 230.351 50.2967 230.554 50.5475 230.554C50.7983 230.554 51.0017 230.351 51.0017 230.1V229.29L52.2073 229.986C52.3034 230.042 52.4112 230.07 52.519 230.07C52.6268 230.07 52.7347 230.042 52.8308 229.987C53.0229 229.876 53.1425 229.669 53.1425 229.447V227.366C53.1425 227.144 53.0229 226.937 52.8308 226.826ZM52.2345 228.954L51.2862 228.406L52.2345 227.859V228.954ZM63.305 226.258C63.0542 226.258 62.8508 226.461 62.8508 226.712V227.522L61.6451 226.826C61.4529 226.715 61.2139 226.715 61.0217 226.826C60.8295 226.937 60.71 227.144 60.71 227.366V229.447C60.71 229.669 60.8295 229.876 61.0217 229.987C61.1178 230.042 61.2256 230.07 61.3334 230.07C61.4412 230.07 61.549 230.042 61.6451 229.987L62.8508 229.291V230.101C62.8508 230.351 63.0542 230.555 63.305 230.555C63.5558 230.555 63.7592 230.351 63.7592 230.101V226.712C63.7592 226.461 63.5558 226.258 63.305 226.258ZM61.6179 228.954V227.859L62.5662 228.406L61.6179 228.954ZM56.9262 225.402C55.2701 225.402 53.922 226.75 53.922 228.406C53.922 230.063 55.2697 231.41 56.9262 231.41C58.5828 231.41 59.9304 230.063 59.9304 228.406C59.9304 226.75 58.5828 225.402 56.9262 225.402ZM56.9262 230.502C55.7708 230.502 54.8304 229.562 54.8304 228.406C54.8304 227.251 55.7708 226.31 56.9262 226.31C58.0817 226.31 59.022 227.251 59.022 228.406C59.022 229.562 58.0817 230.502 56.9262 230.502Z" fill="#8474C7"/>
<path d="M58.1079 228.013L56.1982 226.911C56.0576 226.83 55.8846 226.83 55.744 226.911C55.6033 226.992 55.5171 227.142 55.5171 227.304V229.509C55.5171 229.671 55.6033 229.821 55.744 229.902C55.8143 229.943 55.8926 229.963 55.9708 229.963C56.0491 229.963 56.1274 229.943 56.1977 229.902L58.1074 228.8C58.248 228.719 58.3343 228.569 58.3343 228.407C58.3343 228.244 58.2485 228.094 58.1079 228.013ZM56.4255 228.723V228.091L56.9726 228.407L56.4255 228.723ZM56.9261 215.325C54.2388 215.325 52.0526 217.511 52.0526 220.199C52.0526 222.886 54.2388 225.072 56.9261 225.072C59.6135 225.072 61.7997 222.886 61.7997 220.199C61.7997 217.511 59.6135 215.325 56.9261 215.325ZM56.9261 224.164C54.7399 224.164 52.9605 222.386 52.9605 220.199C52.9605 218.012 54.7394 216.233 56.9261 216.233C59.1129 216.233 60.8918 218.012 60.8918 220.199C60.8918 222.386 59.1129 224.164 56.9261 224.164Z" fill="#8474C7"/>
<path d="M58.3419 219.478L55.3785 217.767C55.1179 217.617 54.8071 217.617 54.5465 217.767C54.2858 217.917 54.1307 218.187 54.1307 218.487V221.909C54.1307 222.21 54.2863 222.48 54.5469 222.63C54.6772 222.705 54.8202 222.743 54.9627 222.743C55.1052 222.743 55.2486 222.705 55.379 222.63L58.3424 220.919C58.603 220.768 58.7582 220.499 58.7582 220.198C58.7582 219.897 58.6026 219.628 58.3419 219.478ZM55.0386 221.778V218.62L57.7738 220.199L55.0386 221.778ZM59.2654 217.655C59.0146 217.655 58.8111 217.858 58.8111 218.109V222.288C58.8111 222.539 59.0146 222.742 59.2654 222.742C59.5161 222.742 59.7196 222.539 59.7196 222.288V218.109C59.7196 217.858 59.5161 217.655 59.2654 217.655Z" fill="#8474C7"/>
</g>
</g>
</g>
</g>
</g>
<path d="M157.959 51.1629H159.557L162.335 57.947H162.438L165.216 51.1629H166.814V59.8901H165.561V53.5748H165.48L162.906 59.8774H161.866L159.293 53.5705H159.212V59.8901H157.959V51.1629ZM171.007 60.0222C170.362 60.0222 169.807 59.8845 169.341 59.6089C168.878 59.3305 168.52 58.9399 168.267 58.437C168.017 57.9313 167.892 57.339 167.892 56.66C167.892 55.9896 168.017 55.3987 168.267 54.8873C168.52 54.3759 168.872 53.9768 169.324 53.6899C169.778 53.4029 170.31 53.2595 170.918 53.2595C171.287 53.2595 171.645 53.3205 171.991 53.4427C172.338 53.5649 172.649 53.7566 172.925 54.018C173.2 54.2793 173.418 54.6188 173.577 55.0364C173.736 55.4512 173.815 55.9555 173.815 56.5492V57.0009H168.612V56.0464H172.567C172.567 55.7112 172.499 55.4143 172.362 55.1558C172.226 54.8944 172.034 54.6884 171.787 54.5379C171.543 54.3873 171.256 54.312 170.926 54.312C170.568 54.312 170.256 54.4001 169.989 54.5762C169.724 54.7495 169.52 54.9768 169.375 55.258C169.233 55.5364 169.162 55.839 169.162 56.1657V56.9114C169.162 57.3489 169.239 57.7211 169.392 58.0279C169.548 58.3347 169.766 58.5691 170.044 58.731C170.322 58.8901 170.648 58.9697 171.02 58.9697C171.261 58.9697 171.482 58.9356 171.68 58.8674C171.879 58.7964 172.051 58.6913 172.196 58.5521C172.341 58.4129 172.452 58.241 172.528 58.0364L173.734 58.2538C173.638 58.6089 173.464 58.92 173.214 59.187C172.967 59.4512 172.656 59.6572 172.281 59.8049C171.909 59.9498 171.484 60.0222 171.007 60.0222ZM177.239 60.018C176.711 60.018 176.239 59.883 175.825 59.6131C175.413 59.3404 175.089 58.9526 174.853 58.4498C174.62 57.9441 174.504 57.3376 174.504 56.6302C174.504 55.9228 174.621 55.3177 174.857 54.8149C175.096 54.312 175.423 53.9271 175.837 53.66C176.252 53.393 176.722 53.2595 177.248 53.2595C177.654 53.2595 177.981 53.3276 178.228 53.464C178.478 53.5975 178.671 53.7538 178.808 53.9328C178.947 54.1117 179.055 54.2694 179.131 54.4058H179.208V51.1629H180.482V59.8901H179.238V58.8717H179.131C179.055 59.0109 178.944 59.17 178.799 59.3489C178.657 59.5279 178.461 59.6842 178.211 59.8177C177.961 59.9512 177.637 60.018 177.239 60.018ZM177.521 58.9313C177.887 58.9313 178.197 58.8347 178.45 58.6416C178.705 58.4455 178.898 58.1742 179.029 57.8276C179.163 57.481 179.229 57.0776 179.229 56.6174C179.229 56.1629 179.164 55.7651 179.033 55.4242C178.903 55.0833 178.711 54.8177 178.458 54.6274C178.205 54.437 177.893 54.3418 177.521 54.3418C177.137 54.3418 176.817 54.4413 176.562 54.6401C176.306 54.839 176.113 55.1103 175.982 55.4541C175.854 55.7978 175.79 56.1856 175.79 56.6174C175.79 57.0549 175.856 57.4484 175.986 57.7978C176.117 58.1472 176.31 58.4242 176.566 58.6288C176.825 58.8305 177.143 58.9313 177.521 58.9313ZM181.861 59.8901V53.3447H183.135V59.8901H181.861ZM182.504 52.3347C182.283 52.3347 182.092 52.2609 181.933 52.1131C181.777 51.9626 181.699 51.7836 181.699 51.5762C181.699 51.366 181.777 51.187 181.933 51.0393C182.092 50.8887 182.283 50.8134 182.504 50.8134C182.726 50.8134 182.915 50.8887 183.071 51.0393C183.23 51.187 183.31 51.366 183.31 51.5762C183.31 51.7836 183.23 51.9626 183.071 52.1131C182.915 52.2609 182.726 52.3347 182.504 52.3347ZM186.314 60.035C185.899 60.035 185.524 59.9583 185.189 59.8049C184.854 59.6487 184.588 59.4228 184.392 59.1274C184.199 58.8319 184.102 58.4697 184.102 58.0407C184.102 57.6714 184.173 57.3674 184.315 57.1288C184.457 56.8901 184.649 56.7012 184.891 56.562C185.132 56.4228 185.402 56.3177 185.7 56.2467C185.999 56.1756 186.302 56.1217 186.612 56.0847C187.004 56.0393 187.322 56.0024 187.567 55.9739C187.811 55.9427 187.989 55.893 188.099 55.8248C188.21 55.7566 188.266 55.6458 188.266 55.4924V55.4626C188.266 55.0904 188.16 54.8021 187.95 54.5975C187.743 54.393 187.433 54.2907 187.021 54.2907C186.592 54.2907 186.254 54.3859 186.007 54.5762C185.763 54.7637 185.594 54.9725 185.5 55.2026L184.302 54.9299C184.445 54.5322 184.652 54.2112 184.925 53.9668C185.2 53.7197 185.517 53.5407 185.875 53.4299C186.233 53.3163 186.609 53.2595 187.004 53.2595C187.266 53.2595 187.543 53.2907 187.835 53.3532C188.131 53.4129 188.406 53.5237 188.662 53.6856C188.92 53.8475 189.132 54.0791 189.297 54.3802C189.462 54.6785 189.544 55.0663 189.544 55.5435V59.8901H188.3V58.9953H188.249C188.166 59.16 188.043 59.322 187.878 59.481C187.713 59.6401 187.501 59.7722 187.243 59.8774C186.984 59.9825 186.675 60.035 186.314 60.035ZM186.591 59.0123C186.943 59.0123 187.244 58.9427 187.494 58.8035C187.747 58.6643 187.939 58.4825 188.07 58.258C188.203 58.0308 188.27 57.7879 188.27 57.5293V56.6856C188.224 56.731 188.136 56.7737 188.006 56.8134C187.878 56.8504 187.731 56.883 187.567 56.9114C187.402 56.937 187.241 56.9612 187.085 56.9839C186.929 57.0038 186.798 57.0208 186.693 57.035C186.446 57.0663 186.22 57.1188 186.016 57.1927C185.814 57.2666 185.652 57.3731 185.53 57.5123C185.41 57.6487 185.351 57.8305 185.351 58.0578C185.351 58.3731 185.467 58.6117 185.7 58.7737C185.933 58.9328 186.23 59.0123 186.591 59.0123ZM196.077 60.0137C195.491 60.0137 194.987 59.9072 194.564 59.6941C194.143 59.481 193.82 59.1913 193.592 58.8248C193.365 58.4555 193.251 58.0379 193.251 57.572C193.251 57.2168 193.325 56.9015 193.473 56.6259C193.621 56.3475 193.827 56.0904 194.091 55.8546C194.355 55.6188 194.66 55.3816 195.007 55.143L196.413 54.1501C196.652 53.9938 196.838 53.8291 196.972 53.6558C197.105 53.4796 197.172 53.2623 197.172 53.0038C197.172 52.7992 197.084 52.6032 196.908 52.4157C196.731 52.2282 196.496 52.1345 196.2 52.1345C195.996 52.1345 195.815 52.1842 195.659 52.2836C195.506 52.383 195.385 52.5109 195.297 52.6671C195.212 52.8205 195.169 52.9825 195.169 53.1529C195.169 53.3518 195.223 53.5521 195.331 53.7538C195.442 53.9555 195.584 54.1643 195.757 54.3802C195.93 54.5933 196.112 54.8149 196.302 55.045L200.355 59.8901H198.915L195.561 55.9484C195.28 55.616 195.018 55.3035 194.777 55.0109C194.535 54.7154 194.339 54.4171 194.189 54.116C194.041 53.812 193.967 53.4839 193.967 53.1316C193.967 52.731 194.058 52.3759 194.24 52.0663C194.425 51.7538 194.682 51.5095 195.011 51.3333C195.341 51.1572 195.727 51.0691 196.17 51.0691C196.619 51.0691 197.004 51.1572 197.325 51.3333C197.649 51.5066 197.898 51.7381 198.071 52.0279C198.247 52.3149 198.335 52.6288 198.335 52.9697C198.335 53.3845 198.231 53.7509 198.024 54.0691C197.82 54.3845 197.537 54.6742 197.176 54.9384L195.425 56.2296C195.084 56.4796 194.847 56.7268 194.713 56.9711C194.582 57.2126 194.517 57.4015 194.517 57.5379C194.517 57.7879 194.581 58.0194 194.709 58.2325C194.839 58.4455 195.021 58.616 195.254 58.7438C195.49 58.8717 195.766 58.9356 196.081 58.9356C196.405 58.9356 196.72 58.866 197.027 58.7268C197.337 58.5847 197.616 58.3816 197.866 58.1174C198.119 57.8532 198.32 57.5364 198.467 57.1671C198.615 56.7978 198.689 56.3845 198.689 55.9271H199.839C199.839 56.4896 199.775 56.9654 199.648 57.3546C199.52 57.741 199.365 58.0563 199.183 58.3006C199.004 58.5421 198.835 58.731 198.676 58.8674C198.625 58.9129 198.577 58.9583 198.531 59.0038C198.486 59.0492 198.437 59.0947 198.386 59.1401C198.091 59.4384 197.733 59.6586 197.312 59.8006C196.895 59.9427 196.483 60.0137 196.077 60.0137ZM206.577 59.8901H203.751V51.1629H206.666C207.521 51.1629 208.256 51.3376 208.869 51.687C209.483 52.0336 209.953 52.5322 210.28 53.1828C210.609 53.8305 210.774 54.6075 210.774 55.5137C210.774 56.4228 210.608 57.2041 210.275 57.8575C209.946 58.5109 209.469 59.0137 208.844 59.366C208.219 59.7154 207.463 59.8901 206.577 59.8901ZM205.068 58.7396H206.504C207.169 58.7396 207.721 58.6146 208.162 58.3646C208.602 58.1117 208.932 57.7467 209.15 57.2694C209.369 56.7893 209.479 56.2041 209.479 55.5137C209.479 54.8291 209.369 54.2481 209.15 53.7708C208.935 53.2935 208.612 52.9313 208.183 52.6842C207.754 52.437 207.221 52.3134 206.585 52.3134H205.068V58.7396ZM211.869 59.8901V53.3447H213.143V59.8901H211.869ZM212.513 52.3347C212.291 52.3347 212.101 52.2609 211.942 52.1131C211.785 51.9626 211.707 51.7836 211.707 51.5762C211.707 51.366 211.785 51.187 211.942 51.0393C212.101 50.8887 212.291 50.8134 212.513 50.8134C212.734 50.8134 212.923 50.8887 213.079 51.0393C213.239 51.187 213.318 51.366 213.318 51.5762C213.318 51.7836 213.239 51.9626 213.079 52.1131C212.923 52.2609 212.734 52.3347 212.513 52.3347ZM217.162 62.481C216.642 62.481 216.194 62.4129 215.819 62.2765C215.447 62.1401 215.143 61.9597 214.908 61.7353C214.672 61.5109 214.496 61.2651 214.379 60.9981L215.474 60.5464C215.551 60.6714 215.653 60.8035 215.781 60.9427C215.912 61.0847 216.088 61.2055 216.31 61.3049C216.534 61.4043 216.822 61.4541 217.175 61.4541C217.658 61.4541 218.057 61.3362 218.372 61.1004C218.687 60.8674 218.845 60.4953 218.845 59.9839V58.697H218.764C218.687 58.8362 218.577 58.991 218.432 59.1614C218.29 59.3319 218.094 59.4796 217.844 59.6046C217.594 59.7296 217.268 59.7921 216.868 59.7921C216.351 59.7921 215.885 59.6714 215.47 59.4299C215.058 59.1856 214.731 58.8262 214.49 58.3518C214.251 57.8745 214.132 57.2879 214.132 56.5918C214.132 55.8958 214.25 55.2992 214.486 54.8021C214.724 54.3049 215.051 53.9242 215.466 53.66C215.881 53.393 216.351 53.2595 216.876 53.2595C217.283 53.2595 217.611 53.3276 217.861 53.464C218.111 53.5975 218.305 53.7538 218.444 53.9328C218.587 54.1117 218.696 54.2694 218.773 54.4058H218.866V53.3447H220.115V60.035C220.115 60.5975 219.984 61.0592 219.723 61.42C219.462 61.7808 219.108 62.0478 218.662 62.2211C218.219 62.3944 217.719 62.481 217.162 62.481ZM217.149 58.7353C217.515 58.7353 217.825 58.6501 218.078 58.4796C218.334 58.3063 218.527 58.0592 218.658 57.7381C218.791 57.4143 218.858 57.0265 218.858 56.5748C218.858 56.1345 218.792 55.7467 218.662 55.4114C218.531 55.0762 218.339 54.8149 218.087 54.6274C217.834 54.437 217.521 54.3418 217.149 54.3418C216.765 54.3418 216.446 54.4413 216.19 54.6401C215.935 54.8362 215.741 55.1032 215.611 55.4413C215.483 55.7793 215.419 56.1572 215.419 56.5748C215.419 57.0038 215.484 57.3802 215.615 57.7041C215.746 58.0279 215.939 58.2808 216.194 58.4626C216.453 58.6444 216.771 58.7353 217.149 58.7353ZM221.384 59.8901V53.3447H222.658V59.8901H221.384ZM222.027 52.3347C221.806 52.3347 221.615 52.2609 221.456 52.1131C221.3 51.9626 221.222 51.7836 221.222 51.5762C221.222 51.366 221.3 51.187 221.456 51.0393C221.615 50.8887 221.806 50.8134 222.027 50.8134C222.249 50.8134 222.438 50.8887 222.594 51.0393C222.753 51.187 222.833 51.366 222.833 51.5762C222.833 51.7836 222.753 51.9626 222.594 52.1131C222.438 52.2609 222.249 52.3347 222.027 52.3347ZM226.987 53.3447V54.3674H223.412V53.3447H226.987ZM224.371 51.7765H225.645V57.9683C225.645 58.2154 225.682 58.4015 225.756 58.5265C225.83 58.6487 225.925 58.7325 226.041 58.7779C226.161 58.8205 226.29 58.8418 226.429 58.8418C226.531 58.8418 226.621 58.8347 226.698 58.8205C226.774 58.8063 226.834 58.795 226.877 58.7864L227.107 59.839C227.033 59.8674 226.928 59.8958 226.791 59.9242C226.655 59.9555 226.485 59.9725 226.28 59.9754C225.945 59.981 225.632 59.9214 225.343 59.7964C225.053 59.6714 224.818 59.4782 224.639 59.2168C224.46 58.9555 224.371 58.6274 224.371 58.2325V51.7765ZM229.862 60.035C229.447 60.035 229.072 59.9583 228.737 59.8049C228.401 59.6487 228.136 59.4228 227.94 59.1274C227.747 58.8319 227.65 58.4697 227.65 58.0407C227.65 57.6714 227.721 57.3674 227.863 57.1288C228.005 56.8901 228.197 56.7012 228.438 56.562C228.68 56.4228 228.95 56.3177 229.248 56.2467C229.546 56.1756 229.85 56.1217 230.16 56.0847C230.552 56.0393 230.87 56.0024 231.115 55.9739C231.359 55.9427 231.536 55.893 231.647 55.8248C231.758 55.7566 231.813 55.6458 231.813 55.4924V55.4626C231.813 55.0904 231.708 54.8021 231.498 54.5975C231.291 54.393 230.981 54.2907 230.569 54.2907C230.14 54.2907 229.802 54.3859 229.555 54.5762C229.311 54.7637 229.142 54.9725 229.048 55.2026L227.85 54.9299C227.992 54.5322 228.2 54.2112 228.472 53.9668C228.748 53.7197 229.065 53.5407 229.423 53.4299C229.781 53.3163 230.157 53.2595 230.552 53.2595C230.813 53.2595 231.09 53.2907 231.383 53.3532C231.678 53.4129 231.954 53.5237 232.21 53.6856C232.468 53.8475 232.68 54.0791 232.845 54.3802C233.009 54.6785 233.092 55.0663 233.092 55.5435V59.8901H231.847V58.9953H231.796C231.714 59.16 231.59 59.322 231.426 59.481C231.261 59.6401 231.049 59.7722 230.791 59.8774C230.532 59.9825 230.222 60.035 229.862 60.035ZM230.139 59.0123C230.491 59.0123 230.792 58.9427 231.042 58.8035C231.295 58.6643 231.487 58.4825 231.617 58.258C231.751 58.0308 231.818 57.7879 231.818 57.5293V56.6856C231.772 56.731 231.684 56.7737 231.553 56.8134C231.426 56.8504 231.279 56.883 231.115 56.9114C230.95 56.937 230.789 56.9612 230.633 56.9839C230.477 57.0038 230.346 57.0208 230.241 57.035C229.994 57.0663 229.768 57.1188 229.563 57.1927C229.362 57.2666 229.2 57.3731 229.078 57.5123C228.958 57.6487 228.899 57.8305 228.899 58.0578C228.899 58.3731 229.015 58.6117 229.248 58.7737C229.481 58.9328 229.778 59.0123 230.139 59.0123ZM235.623 51.1629V59.8901H234.349V51.1629H235.623Z" fill="#191919"/>
<path d="M93.5398 110.527C93.5398 111.458 93.3693 112.259 93.0284 112.93C92.6875 113.598 92.2202 114.112 91.6264 114.473C91.0355 114.83 90.3636 115.009 89.6108 115.009C88.8551 115.009 88.1804 114.83 87.5866 114.473C86.9957 114.112 86.5298 113.596 86.1889 112.926C85.848 112.255 85.6776 111.455 85.6776 110.527C85.6776 109.595 85.848 108.795 86.1889 108.127C86.5298 107.457 86.9957 106.943 87.5866 106.585C88.1804 106.224 88.8551 106.044 89.6108 106.044C90.3636 106.044 91.0355 106.224 91.6264 106.585C92.2202 106.943 92.6875 107.457 93.0284 108.127C93.3693 108.795 93.5398 109.595 93.5398 110.527ZM92.2358 110.527C92.2358 109.816 92.1207 109.218 91.8906 108.732C91.6634 108.244 91.3509 107.875 90.9531 107.625C90.5582 107.372 90.1108 107.245 89.6108 107.245C89.108 107.245 88.6591 107.372 88.2642 107.625C87.8693 107.875 87.5568 108.244 87.3267 108.732C87.0994 109.218 86.9858 109.816 86.9858 110.527C86.9858 111.237 87.0994 111.836 87.3267 112.325C87.5568 112.811 87.8693 113.18 88.2642 113.433C88.6591 113.683 89.108 113.808 89.6108 113.808C90.1108 113.808 90.5582 113.683 90.9531 113.433C91.3509 113.18 91.6634 112.811 91.8906 112.325C92.1207 111.836 92.2358 111.237 92.2358 110.527ZM95.9133 111.004V114.89H94.6392V108.345H95.8622V109.41H95.9432C96.0937 109.063 96.3295 108.785 96.6506 108.575C96.9744 108.365 97.3821 108.259 97.8736 108.259C98.3196 108.259 98.7102 108.353 99.0454 108.541C99.3807 108.725 99.6406 109.001 99.8253 109.367C100.01 109.734 100.102 110.187 100.102 110.727V114.89H98.8281V110.88C98.8281 110.406 98.7045 110.035 98.4574 109.768C98.2102 109.498 97.8707 109.363 97.4389 109.363C97.1435 109.363 96.8807 109.427 96.6506 109.555C96.4233 109.683 96.2429 109.87 96.1094 110.117C95.9787 110.362 95.9133 110.657 95.9133 111.004ZM102.645 106.163V114.89H101.371V106.163H102.645ZM103.919 114.89V108.345H105.193V114.89H103.919ZM104.563 107.335C104.341 107.335 104.151 107.261 103.992 107.113C103.836 106.963 103.757 106.784 103.757 106.576C103.757 106.366 103.836 106.187 103.992 106.039C104.151 105.889 104.341 105.813 104.563 105.813C104.784 105.813 104.973 105.889 105.13 106.039C105.289 106.187 105.368 106.366 105.368 106.576C105.368 106.784 105.289 106.963 105.13 107.113C104.973 107.261 104.784 107.335 104.563 107.335ZM107.742 111.004V114.89H106.468V108.345H107.691V109.41H107.772C107.922 109.063 108.158 108.785 108.479 108.575C108.803 108.365 109.211 108.259 109.702 108.259C110.148 108.259 110.539 108.353 110.874 108.541C111.209 108.725 111.469 109.001 111.654 109.367C111.838 109.734 111.931 110.187 111.931 110.727V114.89H110.657V110.88C110.657 110.406 110.533 110.035 110.286 109.768C110.039 109.498 109.699 109.363 109.267 109.363C108.972 109.363 108.709 109.427 108.479 109.555C108.252 109.683 108.071 109.87 107.938 110.117C107.807 110.362 107.742 110.657 107.742 111.004ZM116.021 115.022C115.376 115.022 114.82 114.884 114.354 114.609C113.891 114.33 113.533 113.94 113.28 113.437C113.03 112.931 112.905 112.339 112.905 111.66C112.905 110.99 113.03 110.399 113.28 109.887C113.533 109.376 113.886 108.977 114.337 108.69C114.792 108.403 115.323 108.259 115.931 108.259C116.3 108.259 116.658 108.321 117.005 108.443C117.351 108.565 117.663 108.757 117.938 109.018C118.214 109.279 118.431 109.619 118.59 110.036C118.749 110.451 118.829 110.955 118.829 111.549V112.001H113.626V111.046H117.58C117.58 110.711 117.512 110.414 117.376 110.156C117.239 109.894 117.048 109.688 116.8 109.538C116.556 109.387 116.269 109.312 115.94 109.312C115.582 109.312 115.269 109.4 115.002 109.576C114.738 109.75 114.533 109.977 114.388 110.258C114.246 110.536 114.175 110.839 114.175 111.166V111.911C114.175 112.349 114.252 112.721 114.405 113.028C114.562 113.335 114.779 113.569 115.057 113.731C115.336 113.89 115.661 113.97 116.033 113.97C116.275 113.97 116.495 113.936 116.694 113.867C116.893 113.796 117.065 113.691 117.209 113.552C117.354 113.413 117.465 113.241 117.542 113.036L118.748 113.254C118.651 113.609 118.478 113.92 118.228 114.187C117.981 114.451 117.67 114.657 117.295 114.805C116.923 114.95 116.498 115.022 116.021 115.022ZM123.378 114.89H121.98L125.121 106.163H126.642L129.783 114.89H128.385L125.918 107.748H125.849L123.378 114.89ZM123.612 111.473H128.146V112.58H123.612V111.473ZM132.845 115.018C132.317 115.018 131.845 114.883 131.431 114.613C131.019 114.34 130.695 113.953 130.459 113.45C130.226 112.944 130.11 112.338 130.11 111.63C130.11 110.923 130.228 110.318 130.463 109.815C130.702 109.312 131.029 108.927 131.443 108.66C131.858 108.393 132.328 108.259 132.854 108.259C133.26 108.259 133.587 108.328 133.834 108.464C134.084 108.598 134.277 108.754 134.414 108.933C134.553 109.112 134.661 109.269 134.737 109.406H134.814V106.163H136.088V114.89H134.844V113.872H134.737C134.661 114.011 134.55 114.17 134.405 114.349C134.263 114.528 134.067 114.684 133.817 114.818C133.567 114.951 133.243 115.018 132.845 115.018ZM133.127 113.931C133.493 113.931 133.803 113.835 134.056 113.642C134.311 113.446 134.505 113.174 134.635 112.828C134.769 112.481 134.835 112.078 134.835 111.617C134.835 111.163 134.77 110.765 134.639 110.424C134.509 110.083 134.317 109.818 134.064 109.627C133.811 109.437 133.499 109.342 133.127 109.342C132.743 109.342 132.424 109.441 132.168 109.64C131.912 109.839 131.719 110.11 131.588 110.454C131.46 110.798 131.397 111.186 131.397 111.617C131.397 112.055 131.462 112.448 131.593 112.798C131.723 113.147 131.916 113.424 132.172 113.629C132.431 113.83 132.749 113.931 133.127 113.931ZM142.372 109.943L141.217 110.147C141.169 110 141.092 109.859 140.987 109.725C140.884 109.592 140.745 109.482 140.569 109.397C140.393 109.312 140.173 109.269 139.909 109.269C139.548 109.269 139.247 109.35 139.005 109.512C138.764 109.671 138.643 109.877 138.643 110.13C138.643 110.349 138.724 110.525 138.886 110.659C139.048 110.792 139.309 110.902 139.67 110.987L140.71 111.225C141.312 111.365 141.761 111.579 142.056 111.869C142.352 112.159 142.5 112.535 142.5 112.998C142.5 113.39 142.386 113.74 142.159 114.046C141.934 114.35 141.62 114.589 141.217 114.762C140.816 114.936 140.352 115.022 139.823 115.022C139.09 115.022 138.492 114.866 138.029 114.553C137.566 114.238 137.282 113.791 137.177 113.211L138.409 113.024C138.485 113.345 138.643 113.588 138.882 113.752C139.12 113.914 139.431 113.995 139.815 113.995C140.232 113.995 140.566 113.909 140.816 113.735C141.066 113.559 141.191 113.345 141.191 113.092C141.191 112.887 141.115 112.715 140.961 112.576C140.811 112.437 140.579 112.332 140.267 112.261L139.159 112.018C138.548 111.879 138.096 111.657 137.803 111.353C137.514 111.049 137.369 110.664 137.369 110.198C137.369 109.812 137.477 109.474 137.693 109.184C137.909 108.894 138.207 108.669 138.588 108.507C138.968 108.342 139.404 108.259 139.896 108.259C140.603 108.259 141.16 108.413 141.566 108.72C141.973 109.024 142.241 109.431 142.372 109.943Z" fill="#191919"/>
<path d="M193.959 171.89V163.163H199.43V164.296H195.276V166.955H199.145V168.085H195.276V170.757H199.482V171.89H193.959ZM201.921 168.004V171.89H200.647V165.345H201.87V166.41H201.951C202.102 166.063 202.337 165.785 202.658 165.575C202.982 165.365 203.39 165.259 203.881 165.259C204.327 165.259 204.718 165.353 205.053 165.541C205.388 165.725 205.648 166.001 205.833 166.367C206.018 166.734 206.11 167.187 206.11 167.727V171.89H204.836V167.88C204.836 167.406 204.712 167.035 204.465 166.768C204.218 166.498 203.879 166.363 203.447 166.363C203.151 166.363 202.888 166.427 202.658 166.555C202.431 166.683 202.251 166.87 202.117 167.117C201.986 167.362 201.921 167.657 201.921 168.004ZM209.829 172.018C209.301 172.018 208.829 171.883 208.414 171.613C208.002 171.34 207.679 170.953 207.443 170.45C207.21 169.944 207.093 169.338 207.093 168.63C207.093 167.923 207.211 167.318 207.447 166.815C207.686 166.312 208.012 165.927 208.427 165.66C208.842 165.393 209.312 165.259 209.838 165.259C210.244 165.259 210.571 165.328 210.818 165.464C211.068 165.598 211.261 165.754 211.397 165.933C211.537 166.112 211.645 166.269 211.721 166.406H211.798V163.163H213.072V171.89H211.828V170.872H211.721C211.645 171.011 211.534 171.17 211.389 171.349C211.247 171.528 211.051 171.684 210.801 171.818C210.551 171.951 210.227 172.018 209.829 172.018ZM210.11 170.931C210.477 170.931 210.787 170.835 211.039 170.642C211.295 170.446 211.488 170.174 211.619 169.828C211.752 169.481 211.819 169.078 211.819 168.617C211.819 168.163 211.754 167.765 211.623 167.424C211.493 167.083 211.301 166.818 211.048 166.627C210.795 166.437 210.483 166.342 210.11 166.342C209.727 166.342 209.407 166.441 209.152 166.64C208.896 166.839 208.703 167.11 208.572 167.454C208.444 167.798 208.38 168.186 208.38 168.617C208.38 169.055 208.446 169.448 208.576 169.798C208.707 170.147 208.9 170.424 209.156 170.629C209.414 170.83 209.733 170.931 210.11 170.931ZM215.725 163.163V171.89H214.451V163.163H215.725ZM219.82 172.022C219.175 172.022 218.62 171.884 218.154 171.609C217.691 171.33 217.333 170.94 217.08 170.437C216.83 169.931 216.705 169.339 216.705 168.66C216.705 167.99 216.83 167.399 217.08 166.887C217.333 166.376 217.685 165.977 218.137 165.69C218.591 165.403 219.122 165.259 219.73 165.259C220.1 165.259 220.458 165.321 220.804 165.443C221.151 165.565 221.462 165.757 221.738 166.018C222.013 166.279 222.23 166.619 222.39 167.036C222.549 167.451 222.628 167.955 222.628 168.549V169.001H217.425V168.046H221.38C221.38 167.711 221.311 167.414 221.175 167.156C221.039 166.894 220.847 166.688 220.6 166.538C220.355 166.387 220.068 166.312 219.739 166.312C219.381 166.312 219.068 166.4 218.801 166.576C218.537 166.75 218.333 166.977 218.188 167.258C218.046 167.536 217.975 167.839 217.975 168.166V168.911C217.975 169.349 218.051 169.721 218.205 170.028C218.361 170.335 218.578 170.569 218.857 170.731C219.135 170.89 219.461 170.97 219.833 170.97C220.074 170.97 220.294 170.936 220.493 170.867C220.692 170.796 220.864 170.691 221.009 170.552C221.154 170.413 221.265 170.241 221.341 170.036L222.547 170.254C222.451 170.609 222.277 170.92 222.027 171.187C221.78 171.451 221.469 171.657 221.094 171.805C220.722 171.95 220.297 172.022 219.82 172.022ZM228.507 166.943L227.352 167.147C227.304 167 227.227 166.859 227.122 166.725C227.019 166.592 226.88 166.482 226.704 166.397C226.528 166.312 226.308 166.269 226.044 166.269C225.683 166.269 225.382 166.35 225.14 166.512C224.899 166.671 224.778 166.877 224.778 167.13C224.778 167.349 224.859 167.525 225.021 167.659C225.183 167.792 225.444 167.902 225.805 167.987L226.845 168.225C227.447 168.365 227.896 168.579 228.191 168.869C228.487 169.159 228.635 169.535 228.635 169.998C228.635 170.39 228.521 170.74 228.294 171.046C228.069 171.35 227.755 171.589 227.352 171.762C226.951 171.936 226.487 172.022 225.958 172.022C225.225 172.022 224.627 171.866 224.164 171.553C223.701 171.238 223.417 170.791 223.312 170.211L224.544 170.024C224.62 170.345 224.778 170.588 225.017 170.752C225.255 170.914 225.566 170.995 225.95 170.995C226.367 170.995 226.701 170.909 226.951 170.735C227.201 170.559 227.326 170.345 227.326 170.092C227.326 169.887 227.25 169.715 227.096 169.576C226.946 169.437 226.714 169.332 226.402 169.261L225.294 169.018C224.683 168.879 224.231 168.657 223.938 168.353C223.649 168.049 223.504 167.664 223.504 167.198C223.504 166.812 223.612 166.474 223.828 166.184C224.044 165.894 224.342 165.669 224.723 165.507C225.103 165.342 225.539 165.259 226.031 165.259C226.738 165.259 227.295 165.413 227.701 165.72C228.108 166.024 228.376 166.431 228.507 166.943ZM234.5 166.943L233.345 167.147C233.297 167 233.22 166.859 233.115 166.725C233.013 166.592 232.874 166.482 232.698 166.397C232.522 166.312 232.301 166.269 232.037 166.269C231.676 166.269 231.375 166.35 231.134 166.512C230.892 166.671 230.772 166.877 230.772 167.13C230.772 167.349 230.853 167.525 231.014 167.659C231.176 167.792 231.438 167.902 231.799 167.987L232.838 168.225C233.441 168.365 233.889 168.579 234.185 168.869C234.48 169.159 234.628 169.535 234.628 169.998C234.628 170.39 234.514 170.74 234.287 171.046C234.063 171.35 233.749 171.589 233.345 171.762C232.945 171.936 232.48 172.022 231.952 172.022C231.219 172.022 230.621 171.866 230.158 171.553C229.695 171.238 229.411 170.791 229.306 170.211L230.537 170.024C230.614 170.345 230.772 170.588 231.01 170.752C231.249 170.914 231.56 170.995 231.943 170.995C232.361 170.995 232.695 170.909 232.945 170.735C233.195 170.559 233.32 170.345 233.32 170.092C233.32 169.887 233.243 169.715 233.09 169.576C232.939 169.437 232.708 169.332 232.395 169.261L231.287 169.018C230.676 168.879 230.225 168.657 229.932 168.353C229.642 168.049 229.497 167.664 229.497 167.198C229.497 166.812 229.605 166.474 229.821 166.184C230.037 165.894 230.335 165.669 230.716 165.507C231.097 165.342 231.533 165.259 232.024 165.259C232.732 165.259 233.289 165.413 233.695 165.72C234.101 166.024 234.37 166.431 234.5 166.943ZM238.427 171.89V163.163H243.899V164.296H239.744V166.955H243.613V168.085H239.744V170.757H243.95V171.89H238.427ZM246.389 168.004V171.89H245.115V165.345H246.338V166.41H246.419C246.57 166.063 246.806 165.785 247.127 165.575C247.451 165.365 247.858 165.259 248.35 165.259C248.796 165.259 249.186 165.353 249.522 165.541C249.857 165.725 250.117 166.001 250.301 166.367C250.486 166.734 250.578 167.187 250.578 167.727V171.89H249.304V167.88C249.304 167.406 249.181 167.035 248.933 166.768C248.686 166.498 248.347 166.363 247.915 166.363C247.62 166.363 247.357 166.427 247.127 166.555C246.899 166.683 246.719 166.87 246.585 167.117C246.455 167.362 246.389 167.657 246.389 168.004ZM254.903 165.345V166.367H251.327V165.345H254.903ZM252.286 163.777H253.56V169.968C253.56 170.215 253.597 170.402 253.671 170.527C253.745 170.649 253.84 170.732 253.957 170.778C254.076 170.821 254.205 170.842 254.344 170.842C254.447 170.842 254.536 170.835 254.613 170.821C254.689 170.806 254.749 170.795 254.792 170.786L255.022 171.839C254.948 171.867 254.843 171.896 254.707 171.924C254.57 171.955 254.4 171.973 254.195 171.975C253.86 171.981 253.547 171.921 253.258 171.796C252.968 171.671 252.734 171.478 252.555 171.217C252.376 170.955 252.286 170.627 252.286 170.232V163.777ZM258.623 172.022C257.978 172.022 257.422 171.884 256.957 171.609C256.493 171.33 256.135 170.94 255.883 170.437C255.633 169.931 255.508 169.339 255.508 168.66C255.508 167.99 255.633 167.399 255.883 166.887C256.135 166.376 256.488 165.977 256.939 165.69C257.394 165.403 257.925 165.259 258.533 165.259C258.903 165.259 259.26 165.321 259.607 165.443C259.954 165.565 260.265 165.757 260.54 166.018C260.816 166.279 261.033 166.619 261.192 167.036C261.351 167.451 261.431 167.955 261.431 168.549V169.001H256.228V168.046H260.182C260.182 167.711 260.114 167.414 259.978 167.156C259.841 166.894 259.65 166.688 259.403 166.538C259.158 166.387 258.871 166.312 258.542 166.312C258.184 166.312 257.871 166.4 257.604 166.576C257.34 166.75 257.135 166.977 256.991 167.258C256.849 167.536 256.778 167.839 256.778 168.166V168.911C256.778 169.349 256.854 169.721 257.008 170.028C257.164 170.335 257.381 170.569 257.66 170.731C257.938 170.89 258.263 170.97 258.635 170.97C258.877 170.97 259.097 170.936 259.296 170.867C259.495 170.796 259.667 170.691 259.812 170.552C259.957 170.413 260.067 170.241 260.144 170.036L261.35 170.254C261.253 170.609 261.08 170.92 260.83 171.187C260.583 171.451 260.272 171.657 259.897 171.805C259.525 171.95 259.1 172.022 258.623 172.022ZM262.405 171.89V165.345H263.636V166.384H263.704C263.824 166.032 264.034 165.755 264.335 165.553C264.639 165.349 264.983 165.247 265.366 165.247C265.446 165.247 265.54 165.25 265.648 165.255C265.758 165.261 265.845 165.268 265.908 165.277V166.495C265.856 166.481 265.765 166.465 265.635 166.448C265.504 166.428 265.373 166.419 265.243 166.419C264.942 166.419 264.673 166.482 264.437 166.61C264.204 166.735 264.02 166.91 263.883 167.134C263.747 167.356 263.679 167.609 263.679 167.893V171.89H262.405ZM270.012 165.345V166.367H266.437V165.345H270.012ZM267.396 163.777H268.67V169.968C268.67 170.215 268.707 170.402 268.781 170.527C268.855 170.649 268.95 170.732 269.066 170.778C269.186 170.821 269.315 170.842 269.454 170.842C269.556 170.842 269.646 170.835 269.722 170.821C269.799 170.806 269.859 170.795 269.901 170.786L270.132 171.839C270.058 171.867 269.953 171.896 269.816 171.924C269.68 171.955 269.509 171.973 269.305 171.975C268.97 171.981 268.657 171.921 268.367 171.796C268.078 171.671 267.843 171.478 267.664 171.217C267.485 170.955 267.396 170.627 267.396 170.232V163.777ZM272.887 172.035C272.472 172.035 272.097 171.958 271.762 171.805C271.426 171.649 271.161 171.423 270.965 171.127C270.771 170.832 270.675 170.47 270.675 170.041C270.675 169.671 270.746 169.367 270.888 169.129C271.03 168.89 271.222 168.701 271.463 168.562C271.705 168.423 271.975 168.318 272.273 168.247C272.571 168.176 272.875 168.122 273.185 168.085C273.577 168.039 273.895 168.002 274.139 167.974C274.384 167.943 274.561 167.893 274.672 167.825C274.783 167.757 274.838 167.646 274.838 167.492V167.463C274.838 167.09 274.733 166.802 274.523 166.598C274.315 166.393 274.006 166.291 273.594 166.291C273.165 166.291 272.827 166.386 272.58 166.576C272.335 166.764 272.166 166.973 272.073 167.203L270.875 166.93C271.017 166.532 271.225 166.211 271.497 165.967C271.773 165.72 272.09 165.541 272.448 165.43C272.806 165.316 273.182 165.259 273.577 165.259C273.838 165.259 274.115 165.291 274.408 165.353C274.703 165.413 274.979 165.524 275.235 165.686C275.493 165.848 275.705 166.079 275.869 166.38C276.034 166.678 276.117 167.066 276.117 167.544V171.89H274.872V170.995H274.821C274.739 171.16 274.615 171.322 274.45 171.481C274.286 171.64 274.074 171.772 273.815 171.877C273.557 171.982 273.247 172.035 272.887 172.035ZM273.164 171.012C273.516 171.012 273.817 170.943 274.067 170.803C274.32 170.664 274.512 170.482 274.642 170.258C274.776 170.031 274.842 169.788 274.842 169.529V168.686C274.797 168.731 274.709 168.774 274.578 168.813C274.45 168.85 274.304 168.883 274.139 168.911C273.975 168.937 273.814 168.961 273.658 168.984C273.502 169.004 273.371 169.021 273.266 169.035C273.019 169.066 272.793 169.119 272.588 169.193C272.387 169.267 272.225 169.373 272.102 169.512C271.983 169.649 271.923 169.83 271.923 170.058C271.923 170.373 272.04 170.612 272.273 170.774C272.506 170.933 272.803 171.012 273.164 171.012ZM277.374 171.89V165.345H278.648V171.89H277.374ZM278.017 164.335C277.796 164.335 277.605 164.261 277.446 164.113C277.29 163.963 277.212 163.784 277.212 163.576C277.212 163.366 277.29 163.187 277.446 163.039C277.605 162.889 277.796 162.813 278.017 162.813C278.239 162.813 278.428 162.889 278.584 163.039C278.743 163.187 278.823 163.366 278.823 163.576C278.823 163.784 278.743 163.963 278.584 164.113C278.428 164.261 278.239 164.335 278.017 164.335ZM281.196 168.004V171.89H279.922V165.345H281.145V166.41H281.226C281.377 166.063 281.612 165.785 281.933 165.575C282.257 165.365 282.665 165.259 283.156 165.259C283.602 165.259 283.993 165.353 284.328 165.541C284.663 165.725 284.923 166.001 285.108 166.367C285.293 166.734 285.385 167.187 285.385 167.727V171.89H284.111V167.88C284.111 167.406 283.987 167.035 283.74 166.768C283.493 166.498 283.154 166.363 282.722 166.363C282.426 166.363 282.163 166.427 281.933 166.555C281.706 166.683 281.526 166.87 281.392 167.117C281.261 167.362 281.196 167.657 281.196 168.004ZM286.654 171.89V165.345H287.877V166.41H287.958C288.094 166.049 288.317 165.768 288.627 165.566C288.937 165.362 289.307 165.259 289.739 165.259C290.177 165.259 290.543 165.362 290.839 165.566C291.137 165.771 291.357 166.052 291.499 166.41H291.567C291.723 166.061 291.972 165.782 292.313 165.575C292.654 165.365 293.06 165.259 293.532 165.259C294.125 165.259 294.61 165.446 294.985 165.818C295.363 166.19 295.552 166.751 295.552 167.501V171.89H294.277V167.62C294.277 167.177 294.157 166.856 293.915 166.657C293.674 166.458 293.385 166.359 293.05 166.359C292.635 166.359 292.313 166.487 292.083 166.742C291.853 166.995 291.738 167.321 291.738 167.718V171.89H290.468V167.539C290.468 167.184 290.357 166.899 290.135 166.683C289.914 166.467 289.625 166.359 289.27 166.359C289.029 166.359 288.806 166.423 288.601 166.551C288.4 166.676 288.236 166.85 288.111 167.075C287.989 167.299 287.928 167.559 287.928 167.855V171.89H286.654ZM299.64 172.022C298.995 172.022 298.44 171.884 297.974 171.609C297.511 171.33 297.153 170.94 296.9 170.437C296.65 169.931 296.525 169.339 296.525 168.66C296.525 167.99 296.65 167.399 296.9 166.887C297.153 166.376 297.505 165.977 297.957 165.69C298.412 165.403 298.943 165.259 299.551 165.259C299.92 165.259 300.278 165.321 300.625 165.443C300.971 165.565 301.282 165.757 301.558 166.018C301.834 166.279 302.051 166.619 302.21 167.036C302.369 167.451 302.449 167.955 302.449 168.549V169.001H297.245V168.046H301.2C301.2 167.711 301.132 167.414 300.995 167.156C300.859 166.894 300.667 166.688 300.42 166.538C300.176 166.387 299.889 166.312 299.559 166.312C299.201 166.312 298.889 166.4 298.622 166.576C298.358 166.75 298.153 166.977 298.008 167.258C297.866 167.536 297.795 167.839 297.795 168.166V168.911C297.795 169.349 297.872 169.721 298.025 170.028C298.182 170.335 298.399 170.569 298.677 170.731C298.956 170.89 299.281 170.97 299.653 170.97C299.895 170.97 300.115 170.936 300.314 170.867C300.513 170.796 300.684 170.691 300.829 170.552C300.974 170.413 301.085 170.241 301.162 170.036L302.368 170.254C302.271 170.609 302.098 170.92 301.848 171.187C301.601 171.451 301.29 171.657 300.915 171.805C300.542 171.95 300.118 172.022 299.64 172.022ZM304.696 168.004V171.89H303.422V165.345H304.645V166.41H304.726C304.877 166.063 305.113 165.785 305.434 165.575C305.758 165.365 306.165 165.259 306.657 165.259C307.103 165.259 307.493 165.353 307.829 165.541C308.164 165.725 308.424 166.001 308.608 166.367C308.793 166.734 308.885 167.187 308.885 167.727V171.89H307.611V167.88C307.611 167.406 307.488 167.035 307.24 166.768C306.993 166.498 306.654 166.363 306.222 166.363C305.927 166.363 305.664 166.427 305.434 166.555C305.206 166.683 305.026 166.87 304.892 167.117C304.762 167.362 304.696 167.657 304.696 168.004ZM313.21 165.345V166.367H309.634V165.345H313.21ZM310.593 163.777H311.867V169.968C311.867 170.215 311.904 170.402 311.978 170.527C312.052 170.649 312.147 170.732 312.264 170.778C312.383 170.821 312.512 170.842 312.651 170.842C312.754 170.842 312.843 170.835 312.92 170.821C312.997 170.806 313.056 170.795 313.099 170.786L313.329 171.839C313.255 171.867 313.15 171.896 313.014 171.924C312.877 171.955 312.707 171.973 312.502 171.975C312.167 171.981 311.854 171.921 311.565 171.796C311.275 171.671 311.041 171.478 310.862 171.217C310.683 170.955 310.593 170.627 310.593 170.232V163.777Z" fill="#191919"/>
<path d="M81.9588 224.89V216.163H83.2756V219.955H87.6264V216.163H88.9474V224.89H87.6264V221.085H83.2756V224.89H81.9588ZM93.1438 225.022C92.4989 225.022 91.9435 224.884 91.4776 224.609C91.0145 224.33 90.6566 223.94 90.4038 223.437C90.1538 222.931 90.0288 222.339 90.0288 221.66C90.0288 220.99 90.1538 220.399 90.4038 219.887C90.6566 219.376 91.0089 218.977 91.4606 218.69C91.9151 218.403 92.4464 218.259 93.0543 218.259C93.4236 218.259 93.7816 218.321 94.1282 218.443C94.4748 218.565 94.7859 218.757 95.0614 219.018C95.337 219.279 95.5543 219.619 95.7134 220.036C95.8725 220.451 95.952 220.955 95.952 221.549V222.001H90.7489V221.046H94.7035C94.7035 220.711 94.6353 220.414 94.4989 220.156C94.3626 219.894 94.1708 219.688 93.9236 219.538C93.6793 219.387 93.3924 219.312 93.0628 219.312C92.7049 219.312 92.3924 219.4 92.1253 219.576C91.8611 219.75 91.6566 219.977 91.5117 220.258C91.3697 220.536 91.2986 220.839 91.2986 221.166V221.911C91.2986 222.349 91.3753 222.721 91.5288 223.028C91.685 223.335 91.9023 223.569 92.1807 223.731C92.4591 223.89 92.7844 223.97 93.1566 223.97C93.3981 223.97 93.6182 223.936 93.8171 223.867C94.016 223.796 94.1878 223.691 94.3327 223.552C94.4776 223.413 94.5884 223.241 94.6651 223.036L95.8711 223.254C95.7745 223.609 95.6012 223.92 95.3512 224.187C95.104 224.451 94.793 224.657 94.418 224.805C94.0458 224.95 93.6211 225.022 93.1438 225.022ZM98.8306 225.035C98.4158 225.035 98.0408 224.958 97.7056 224.805C97.3704 224.649 97.1047 224.423 96.9087 224.127C96.7155 223.832 96.6189 223.47 96.6189 223.041C96.6189 222.671 96.69 222.367 96.832 222.129C96.974 221.89 97.1658 221.701 97.4073 221.562C97.6488 221.423 97.9187 221.318 98.2169 221.247C98.5152 221.176 98.8192 221.122 99.1289 221.085C99.5209 221.039 99.8391 221.002 100.083 220.974C100.328 220.943 100.505 220.893 100.616 220.825C100.727 220.757 100.782 220.646 100.782 220.492V220.463C100.782 220.09 100.677 219.802 100.467 219.598C100.26 219.393 99.9499 219.291 99.538 219.291C99.109 219.291 98.7709 219.386 98.5238 219.576C98.2794 219.764 98.1104 219.973 98.0167 220.203L96.8192 219.93C96.9613 219.532 97.1687 219.211 97.4414 218.967C97.7169 218.72 98.0337 218.541 98.3917 218.43C98.7496 218.316 99.126 218.259 99.5209 218.259C99.7823 218.259 100.059 218.291 100.352 218.353C100.647 218.413 100.923 218.524 101.179 218.686C101.437 218.848 101.649 219.079 101.814 219.38C101.978 219.678 102.061 220.066 102.061 220.544V224.89H100.816V223.995H100.765C100.683 224.16 100.559 224.322 100.395 224.481C100.23 224.64 100.018 224.772 99.7596 224.877C99.501 224.982 99.1914 225.035 98.8306 225.035ZM99.1076 224.012C99.4598 224.012 99.761 223.943 100.011 223.803C100.264 223.664 100.456 223.482 100.586 223.258C100.72 223.031 100.787 222.788 100.787 222.529V221.686C100.741 221.731 100.653 221.774 100.522 221.813C100.395 221.85 100.248 221.883 100.083 221.911C99.9187 221.937 99.7581 221.961 99.6019 221.984C99.4456 222.004 99.315 222.021 99.2098 222.035C98.9627 222.066 98.7368 222.119 98.5323 222.193C98.3306 222.267 98.1687 222.373 98.0465 222.512C97.9272 222.649 97.8675 222.83 97.8675 223.058C97.8675 223.373 97.984 223.612 98.2169 223.774C98.4499 223.933 98.7468 224.012 99.1076 224.012ZM104.592 216.163V224.89H103.318V216.163H104.592ZM108.921 218.345V219.367H105.346V218.345H108.921ZM106.305 216.777H107.579V222.968C107.579 223.215 107.616 223.402 107.69 223.527C107.764 223.649 107.859 223.732 107.975 223.778C108.095 223.821 108.224 223.842 108.363 223.842C108.465 223.842 108.555 223.835 108.632 223.821C108.708 223.806 108.768 223.795 108.811 223.786L109.041 224.839C108.967 224.867 108.862 224.896 108.725 224.924C108.589 224.955 108.419 224.973 108.214 224.975C107.879 224.981 107.566 224.921 107.277 224.796C106.987 224.671 106.752 224.478 106.573 224.217C106.394 223.955 106.305 223.627 106.305 223.232V216.777ZM111.306 221.004V224.89H110.032V216.163H111.289V219.41H111.37C111.523 219.058 111.757 218.778 112.073 218.571C112.388 218.363 112.8 218.259 113.309 218.259C113.757 218.259 114.149 218.352 114.485 218.536C114.823 218.721 115.084 218.997 115.269 219.363C115.456 219.727 115.55 220.181 115.55 220.727V224.89H114.276V220.88C114.276 220.4 114.152 220.028 113.905 219.764C113.658 219.497 113.314 219.363 112.874 219.363C112.573 219.363 112.303 219.427 112.064 219.555C111.828 219.683 111.642 219.87 111.506 220.117C111.372 220.362 111.306 220.657 111.306 221.004ZM119.567 225.022C118.934 225.022 118.388 224.879 117.931 224.592C117.476 224.302 117.127 223.903 116.883 223.394C116.638 222.886 116.516 222.303 116.516 221.647C116.516 220.982 116.641 220.396 116.891 219.887C117.141 219.376 117.494 218.977 117.948 218.69C118.403 218.403 118.938 218.259 119.555 218.259C120.052 218.259 120.495 218.352 120.884 218.536C121.273 218.718 121.587 218.974 121.826 219.303C122.067 219.633 122.211 220.018 122.256 220.458H121.016C120.948 220.152 120.792 219.887 120.548 219.666C120.306 219.444 119.982 219.333 119.576 219.333C119.221 219.333 118.91 219.427 118.643 219.615C118.378 219.799 118.173 220.063 118.025 220.407C117.877 220.748 117.803 221.152 117.803 221.617C117.803 222.095 117.876 222.507 118.021 222.853C118.165 223.2 118.37 223.468 118.634 223.659C118.901 223.849 119.215 223.944 119.576 223.944C119.817 223.944 120.036 223.9 120.232 223.812C120.431 223.721 120.597 223.592 120.731 223.424C120.867 223.257 120.962 223.055 121.016 222.819H122.256C122.211 223.242 122.073 223.62 121.843 223.953C121.613 224.285 121.305 224.546 120.918 224.737C120.535 224.927 120.084 225.022 119.567 225.022ZM125.084 225.035C124.669 225.035 124.294 224.958 123.959 224.805C123.623 224.649 123.358 224.423 123.162 224.127C122.969 223.832 122.872 223.47 122.872 223.041C122.872 222.671 122.943 222.367 123.085 222.129C123.227 221.89 123.419 221.701 123.66 221.562C123.902 221.423 124.172 221.318 124.47 221.247C124.768 221.176 125.072 221.122 125.382 221.085C125.774 221.039 126.092 221.002 126.337 220.974C126.581 220.943 126.758 220.893 126.869 220.825C126.98 220.757 127.035 220.646 127.035 220.492V220.463C127.035 220.09 126.93 219.802 126.72 219.598C126.513 219.393 126.203 219.291 125.791 219.291C125.362 219.291 125.024 219.386 124.777 219.576C124.533 219.764 124.364 219.973 124.27 220.203L123.072 219.93C123.214 219.532 123.422 219.211 123.695 218.967C123.97 218.72 124.287 218.541 124.645 218.43C125.003 218.316 125.379 218.259 125.774 218.259C126.035 218.259 126.312 218.291 126.605 218.353C126.9 218.413 127.176 218.524 127.432 218.686C127.69 218.848 127.902 219.079 128.067 219.38C128.231 219.678 128.314 220.066 128.314 220.544V224.89H127.07V223.995H127.018C126.936 224.16 126.812 224.322 126.648 224.481C126.483 224.64 126.271 224.772 126.013 224.877C125.754 224.982 125.445 225.035 125.084 225.035ZM125.361 224.012C125.713 224.012 126.014 223.943 126.264 223.803C126.517 223.664 126.709 223.482 126.839 223.258C126.973 223.031 127.04 222.788 127.04 222.529V221.686C126.994 221.731 126.906 221.774 126.775 221.813C126.648 221.85 126.501 221.883 126.337 221.911C126.172 221.937 126.011 221.961 125.855 221.984C125.699 222.004 125.568 222.021 125.463 222.035C125.216 222.066 124.99 222.119 124.785 222.193C124.584 222.267 124.422 222.373 124.3 222.512C124.18 222.649 124.121 222.83 124.121 223.058C124.121 223.373 124.237 223.612 124.47 223.774C124.703 223.933 125 224.012 125.361 224.012ZM129.571 224.89V218.345H130.802V219.384H130.871C130.99 219.032 131.2 218.755 131.501 218.553C131.805 218.349 132.149 218.247 132.533 218.247C132.612 218.247 132.706 218.25 132.814 218.255C132.925 218.261 133.011 218.268 133.074 218.277V219.495C133.023 219.481 132.932 219.465 132.801 219.448C132.67 219.428 132.54 219.419 132.409 219.419C132.108 219.419 131.839 219.482 131.604 219.61C131.371 219.735 131.186 219.91 131.05 220.134C130.913 220.356 130.845 220.609 130.845 220.893V224.89H129.571ZM136.323 225.022C135.678 225.022 135.123 224.884 134.657 224.609C134.194 224.33 133.836 223.94 133.583 223.437C133.333 222.931 133.208 222.339 133.208 221.66C133.208 220.99 133.333 220.399 133.583 219.887C133.836 219.376 134.188 218.977 134.64 218.69C135.094 218.403 135.626 218.259 136.234 218.259C136.603 218.259 136.961 218.321 137.307 218.443C137.654 218.565 137.965 218.757 138.241 219.018C138.516 219.279 138.734 219.619 138.893 220.036C139.052 220.451 139.131 220.955 139.131 221.549V222.001H133.928V221.046H137.883C137.883 220.711 137.815 220.414 137.678 220.156C137.542 219.894 137.35 219.688 137.103 219.538C136.859 219.387 136.572 219.312 136.242 219.312C135.884 219.312 135.572 219.4 135.305 219.576C135.04 219.75 134.836 219.977 134.691 220.258C134.549 220.536 134.478 220.839 134.478 221.166V221.911C134.478 222.349 134.555 222.721 134.708 223.028C134.864 223.335 135.082 223.569 135.36 223.731C135.638 223.89 135.964 223.97 136.336 223.97C136.577 223.97 136.797 223.936 136.996 223.867C137.195 223.796 137.367 223.691 137.512 223.552C137.657 223.413 137.768 223.241 137.844 223.036L139.05 223.254C138.954 223.609 138.78 223.92 138.53 224.187C138.283 224.451 137.972 224.657 137.597 224.805C137.225 224.95 136.8 225.022 136.323 225.022ZM145.768 224.89H142.943V216.163H145.858C146.713 216.163 147.447 216.338 148.061 216.687C148.675 217.034 149.145 217.532 149.471 218.183C149.801 218.83 149.966 219.607 149.966 220.514C149.966 221.423 149.8 222.204 149.467 222.857C149.138 223.511 148.66 224.014 148.035 224.366C147.41 224.715 146.655 224.89 145.768 224.89ZM144.26 223.74H145.696C146.361 223.74 146.913 223.615 147.354 223.365C147.794 223.112 148.123 222.747 148.342 222.269C148.561 221.789 148.67 221.204 148.67 220.514C148.67 219.829 148.561 219.248 148.342 218.771C148.126 218.294 147.804 217.931 147.375 217.684C146.946 217.437 146.413 217.313 145.777 217.313H144.26V223.74ZM152.966 225.035C152.551 225.035 152.176 224.958 151.841 224.805C151.506 224.649 151.24 224.423 151.044 224.127C150.851 223.832 150.754 223.47 150.754 223.041C150.754 222.671 150.825 222.367 150.967 222.129C151.109 221.89 151.301 221.701 151.542 221.562C151.784 221.423 152.054 221.318 152.352 221.247C152.65 221.176 152.954 221.122 153.264 221.085C153.656 221.039 153.974 221.002 154.219 220.974C154.463 220.943 154.64 220.893 154.751 220.825C154.862 220.757 154.917 220.646 154.917 220.492V220.463C154.917 220.09 154.812 219.802 154.602 219.598C154.395 219.393 154.085 219.291 153.673 219.291C153.244 219.291 152.906 219.386 152.659 219.576C152.415 219.764 152.246 219.973 152.152 220.203L150.954 219.93C151.096 219.532 151.304 219.211 151.577 218.967C151.852 218.72 152.169 218.541 152.527 218.43C152.885 218.316 153.261 218.259 153.656 218.259C153.917 218.259 154.194 218.291 154.487 218.353C154.783 218.413 155.058 218.524 155.314 218.686C155.572 218.848 155.784 219.079 155.949 219.38C156.113 219.678 156.196 220.066 156.196 220.544V224.89H154.952V223.995H154.9C154.818 224.16 154.694 224.322 154.53 224.481C154.365 224.64 154.153 224.772 153.895 224.877C153.636 224.982 153.327 225.035 152.966 225.035ZM153.243 224.012C153.595 224.012 153.896 223.943 154.146 223.803C154.399 223.664 154.591 223.482 154.721 223.258C154.855 223.031 154.922 222.788 154.922 222.529V221.686C154.876 221.731 154.788 221.774 154.658 221.813C154.53 221.85 154.383 221.883 154.219 221.911C154.054 221.937 153.893 221.961 153.737 221.984C153.581 222.004 153.45 222.021 153.345 222.035C153.098 222.066 152.872 222.119 152.667 222.193C152.466 222.267 152.304 222.373 152.182 222.512C152.062 222.649 152.003 222.83 152.003 223.058C152.003 223.373 152.119 223.612 152.352 223.774C152.585 223.933 152.882 224.012 153.243 224.012ZM160.508 218.345V219.367H156.933V218.345H160.508ZM157.892 216.777H159.166V222.968C159.166 223.215 159.203 223.402 159.277 223.527C159.351 223.649 159.446 223.732 159.562 223.778C159.682 223.821 159.811 223.842 159.95 223.842C160.052 223.842 160.142 223.835 160.219 223.821C160.295 223.806 160.355 223.795 160.398 223.786L160.628 224.839C160.554 224.867 160.449 224.896 160.312 224.924C160.176 224.955 160.005 224.973 159.801 224.975C159.466 224.981 159.153 224.921 158.863 224.796C158.574 224.671 158.339 224.478 158.16 224.217C157.981 223.955 157.892 223.627 157.892 223.232V216.777ZM163.383 225.035C162.968 225.035 162.593 224.958 162.258 224.805C161.922 224.649 161.657 224.423 161.461 224.127C161.268 223.832 161.171 223.47 161.171 223.041C161.171 222.671 161.242 222.367 161.384 222.129C161.526 221.89 161.718 221.701 161.959 221.562C162.201 221.423 162.471 221.318 162.769 221.247C163.067 221.176 163.371 221.122 163.681 221.085C164.073 221.039 164.391 221.002 164.635 220.974C164.88 220.943 165.057 220.893 165.168 220.825C165.279 220.757 165.334 220.646 165.334 220.492V220.463C165.334 220.09 165.229 219.802 165.019 219.598C164.812 219.393 164.502 219.291 164.09 219.291C163.661 219.291 163.323 219.386 163.076 219.576C162.831 219.764 162.662 219.973 162.569 220.203L161.371 219.93C161.513 219.532 161.721 219.211 161.993 218.967C162.269 218.72 162.586 218.541 162.944 218.43C163.302 218.316 163.678 218.259 164.073 218.259C164.334 218.259 164.611 218.291 164.904 218.353C165.199 218.413 165.475 218.524 165.731 218.686C165.989 218.848 166.201 219.079 166.366 219.38C166.53 219.678 166.613 220.066 166.613 220.544V224.89H165.368V223.995H165.317C165.235 224.16 165.111 224.322 164.947 224.481C164.782 224.64 164.57 224.772 164.312 224.877C164.053 224.982 163.743 225.035 163.383 225.035ZM163.66 224.012C164.012 224.012 164.313 223.943 164.563 223.803C164.816 223.664 165.008 223.482 165.138 223.258C165.272 223.031 165.339 222.788 165.339 222.529V221.686C165.293 221.731 165.205 221.774 165.074 221.813C164.947 221.85 164.8 221.883 164.635 221.911C164.471 221.937 164.31 221.961 164.154 221.984C163.998 222.004 163.867 222.021 163.762 222.035C163.515 222.066 163.289 222.119 163.084 222.193C162.883 222.267 162.721 222.373 162.599 222.512C162.479 222.649 162.42 222.83 162.42 223.058C162.42 223.373 162.536 223.612 162.769 223.774C163.002 223.933 163.299 224.012 163.66 224.012ZM170.708 216.163H172.306L175.084 222.947H175.187L177.965 216.163H179.563V224.89H178.31V218.575H178.229L175.655 224.877H174.616L172.042 218.571H171.961V224.89H170.708V216.163ZM182.84 225.035C182.425 225.035 182.05 224.958 181.715 224.805C181.38 224.649 181.114 224.423 180.918 224.127C180.725 223.832 180.628 223.47 180.628 223.041C180.628 222.671 180.699 222.367 180.841 222.129C180.983 221.89 181.175 221.701 181.417 221.562C181.658 221.423 181.928 221.318 182.226 221.247C182.525 221.176 182.829 221.122 183.138 221.085C183.53 221.039 183.848 221.002 184.093 220.974C184.337 220.943 184.515 220.893 184.625 220.825C184.736 220.757 184.792 220.646 184.792 220.492V220.463C184.792 220.09 184.687 219.802 184.476 219.598C184.269 219.393 183.959 219.291 183.547 219.291C183.118 219.291 182.78 219.386 182.533 219.576C182.289 219.764 182.12 219.973 182.026 220.203L180.829 219.93C180.971 219.532 181.178 219.211 181.451 218.967C181.726 218.72 182.043 218.541 182.401 218.43C182.759 218.316 183.135 218.259 183.53 218.259C183.792 218.259 184.069 218.291 184.361 218.353C184.657 218.413 184.932 218.524 185.188 218.686C185.446 218.848 185.658 219.079 185.823 219.38C185.988 219.678 186.07 220.066 186.07 220.544V224.89H184.826V223.995H184.775C184.692 224.16 184.569 224.322 184.404 224.481C184.239 224.64 184.027 224.772 183.769 224.877C183.51 224.982 183.201 225.035 182.84 225.035ZM183.117 224.012C183.469 224.012 183.77 223.943 184.02 223.803C184.273 223.664 184.465 223.482 184.596 223.258C184.729 223.031 184.796 222.788 184.796 222.529V221.686C184.75 221.731 184.662 221.774 184.532 221.813C184.404 221.85 184.258 221.883 184.093 221.911C183.928 221.937 183.768 221.961 183.611 221.984C183.455 222.004 183.324 222.021 183.219 222.035C182.972 222.066 182.746 222.119 182.542 222.193C182.34 222.267 182.178 222.373 182.056 222.512C181.937 222.649 181.877 222.83 181.877 223.058C181.877 223.373 181.993 223.612 182.226 223.774C182.459 223.933 182.756 224.012 183.117 224.012ZM188.601 221.004V224.89H187.327V218.345H188.55V219.41H188.631C188.782 219.063 189.018 218.785 189.339 218.575C189.662 218.365 190.07 218.259 190.562 218.259C191.008 218.259 191.398 218.353 191.733 218.541C192.069 218.725 192.329 219.001 192.513 219.367C192.698 219.734 192.79 220.187 192.79 220.727V224.89H191.516V220.88C191.516 220.406 191.393 220.035 191.145 219.768C190.898 219.498 190.559 219.363 190.127 219.363C189.831 219.363 189.569 219.427 189.339 219.555C189.111 219.683 188.931 219.87 188.797 220.117C188.667 220.362 188.601 220.657 188.601 221.004ZM195.964 225.035C195.549 225.035 195.174 224.958 194.839 224.805C194.504 224.649 194.238 224.423 194.042 224.127C193.849 223.832 193.752 223.47 193.752 223.041C193.752 222.671 193.823 222.367 193.965 222.129C194.107 221.89 194.299 221.701 194.541 221.562C194.782 221.423 195.052 221.318 195.35 221.247C195.649 221.176 195.952 221.122 196.262 221.085C196.654 221.039 196.972 221.002 197.217 220.974C197.461 220.943 197.639 220.893 197.749 220.825C197.86 220.757 197.916 220.646 197.916 220.492V220.463C197.916 220.09 197.81 219.802 197.6 219.598C197.393 219.393 197.083 219.291 196.671 219.291C196.242 219.291 195.904 219.386 195.657 219.576C195.413 219.764 195.244 219.973 195.15 220.203L193.952 219.93C194.095 219.532 194.302 219.211 194.575 218.967C194.85 218.72 195.167 218.541 195.525 218.43C195.883 218.316 196.259 218.259 196.654 218.259C196.916 218.259 197.193 218.291 197.485 218.353C197.781 218.413 198.056 218.524 198.312 218.686C198.57 218.848 198.782 219.079 198.947 219.38C199.112 219.678 199.194 220.066 199.194 220.544V224.89H197.95V223.995H197.899C197.816 224.16 197.693 224.322 197.528 224.481C197.363 224.64 197.151 224.772 196.893 224.877C196.634 224.982 196.325 225.035 195.964 225.035ZM196.241 224.012C196.593 224.012 196.894 223.943 197.144 223.803C197.397 223.664 197.589 223.482 197.72 223.258C197.853 223.031 197.92 222.788 197.92 222.529V221.686C197.874 221.731 197.786 221.774 197.656 221.813C197.528 221.85 197.381 221.883 197.217 221.911C197.052 221.937 196.891 221.961 196.735 221.984C196.579 222.004 196.448 222.021 196.343 222.035C196.096 222.066 195.87 222.119 195.666 222.193C195.464 222.267 195.302 222.373 195.18 222.512C195.06 222.649 195.001 222.83 195.001 223.058C195.001 223.373 195.117 223.612 195.35 223.774C195.583 223.933 195.88 224.012 196.241 224.012ZM203.195 227.481C202.675 227.481 202.228 227.413 201.853 227.277C201.481 227.14 201.177 226.96 200.941 226.735C200.705 226.511 200.529 226.265 200.413 225.998L201.508 225.546C201.585 225.671 201.687 225.803 201.815 225.943C201.945 226.085 202.122 226.205 202.343 226.305C202.568 226.404 202.856 226.454 203.208 226.454C203.691 226.454 204.09 226.336 204.406 226.1C204.721 225.867 204.879 225.495 204.879 224.984V223.697H204.798C204.721 223.836 204.61 223.991 204.465 224.161C204.323 224.332 204.127 224.48 203.877 224.605C203.627 224.73 203.302 224.792 202.901 224.792C202.384 224.792 201.918 224.671 201.504 224.43C201.092 224.186 200.765 223.826 200.524 223.352C200.285 222.875 200.166 222.288 200.166 221.592C200.166 220.896 200.283 220.299 200.519 219.802C200.758 219.305 201.085 218.924 201.499 218.66C201.914 218.393 202.384 218.259 202.91 218.259C203.316 218.259 203.644 218.328 203.894 218.464C204.144 218.598 204.339 218.754 204.478 218.933C204.62 219.112 204.729 219.269 204.806 219.406H204.9V218.345H206.149V225.035C206.149 225.598 206.018 226.059 205.756 226.42C205.495 226.781 205.141 227.048 204.695 227.221C204.252 227.394 203.752 227.481 203.195 227.481ZM203.183 223.735C203.549 223.735 203.859 223.65 204.112 223.48C204.367 223.306 204.56 223.059 204.691 222.738C204.825 222.414 204.891 222.027 204.891 221.575C204.891 221.134 204.826 220.747 204.695 220.411C204.565 220.076 204.373 219.815 204.12 219.627C203.867 219.437 203.555 219.342 203.183 219.342C202.799 219.342 202.479 219.441 202.224 219.64C201.968 219.836 201.775 220.103 201.644 220.441C201.516 220.779 201.452 221.157 201.452 221.575C201.452 222.004 201.518 222.38 201.649 222.704C201.779 223.028 201.972 223.281 202.228 223.463C202.487 223.644 202.805 223.735 203.183 223.735ZM210.238 225.022C209.593 225.022 209.038 224.884 208.572 224.609C208.109 224.33 207.751 223.94 207.498 223.437C207.248 222.931 207.123 222.339 207.123 221.66C207.123 220.99 207.248 220.399 207.498 219.887C207.751 219.376 208.103 218.977 208.555 218.69C209.01 218.403 209.541 218.259 210.149 218.259C210.518 218.259 210.876 218.321 211.223 218.443C211.569 218.565 211.88 218.757 212.156 219.018C212.432 219.279 212.649 219.619 212.808 220.036C212.967 220.451 213.047 220.955 213.047 221.549V222.001H207.843V221.046H211.798C211.798 220.711 211.73 220.414 211.593 220.156C211.457 219.894 211.265 219.688 211.018 219.538C210.774 219.387 210.487 219.312 210.157 219.312C209.799 219.312 209.487 219.4 209.22 219.576C208.956 219.75 208.751 219.977 208.606 220.258C208.464 220.536 208.393 220.839 208.393 221.166V221.911C208.393 222.349 208.47 222.721 208.623 223.028C208.78 223.335 208.997 223.569 209.275 223.731C209.554 223.89 209.879 223.97 210.251 223.97C210.493 223.97 210.713 223.936 210.912 223.867C211.11 223.796 211.282 223.691 211.427 223.552C211.572 223.413 211.683 223.241 211.76 223.036L212.966 223.254C212.869 223.609 212.696 223.92 212.446 224.187C212.199 224.451 211.887 224.657 211.512 224.805C211.14 224.95 210.716 225.022 210.238 225.022ZM214.02 224.89V218.345H215.243V219.41H215.324C215.461 219.049 215.684 218.768 215.993 218.566C216.303 218.362 216.674 218.259 217.106 218.259C217.543 218.259 217.909 218.362 218.205 218.566C218.503 218.771 218.723 219.052 218.865 219.41H218.934C219.09 219.061 219.338 218.782 219.679 218.575C220.02 218.365 220.427 218.259 220.898 218.259C221.492 218.259 221.976 218.446 222.351 218.818C222.729 219.19 222.918 219.751 222.918 220.501V224.89H221.644V220.62C221.644 220.177 221.523 219.856 221.282 219.657C221.04 219.458 220.752 219.359 220.417 219.359C220.002 219.359 219.679 219.487 219.449 219.742C219.219 219.995 219.104 220.321 219.104 220.718V224.89H217.834V220.539C217.834 220.184 217.723 219.899 217.502 219.683C217.28 219.467 216.992 219.359 216.637 219.359C216.395 219.359 216.172 219.423 215.968 219.551C215.766 219.676 215.603 219.85 215.478 220.075C215.356 220.299 215.294 220.559 215.294 220.855V224.89H214.02ZM227.007 225.022C226.362 225.022 225.806 224.884 225.341 224.609C224.878 224.33 224.52 223.94 224.267 223.437C224.017 222.931 223.892 222.339 223.892 221.66C223.892 220.99 224.017 220.399 224.267 219.887C224.52 219.376 224.872 218.977 225.324 218.69C225.778 218.403 226.309 218.259 226.917 218.259C227.287 218.259 227.645 218.321 227.991 218.443C228.338 218.565 228.649 218.757 228.924 219.018C229.2 219.279 229.417 219.619 229.576 220.036C229.735 220.451 229.815 220.955 229.815 221.549V222.001H224.612V221.046H228.566C228.566 220.711 228.498 220.414 228.362 220.156C228.226 219.894 228.034 219.688 227.787 219.538C227.542 219.387 227.255 219.312 226.926 219.312C226.568 219.312 226.255 219.4 225.988 219.576C225.724 219.75 225.52 219.977 225.375 220.258C225.233 220.536 225.162 220.839 225.162 221.166V221.911C225.162 222.349 225.238 222.721 225.392 223.028C225.548 223.335 225.765 223.569 226.044 223.731C226.322 223.89 226.647 223.97 227.02 223.97C227.261 223.97 227.481 223.936 227.68 223.867C227.879 223.796 228.051 223.691 228.196 223.552C228.341 223.413 228.451 223.241 228.528 223.036L229.734 223.254C229.637 223.609 229.464 223.92 229.214 224.187C228.967 224.451 228.656 224.657 228.281 224.805C227.909 224.95 227.484 225.022 227.007 225.022ZM232.063 221.004V224.89H230.789V218.345H232.012V219.41H232.093C232.243 219.063 232.479 218.785 232.8 218.575C233.124 218.365 233.532 218.259 234.023 218.259C234.469 218.259 234.86 218.353 235.195 218.541C235.53 218.725 235.79 219.001 235.975 219.367C236.159 219.734 236.252 220.187 236.252 220.727V224.89H234.978V220.88C234.978 220.406 234.854 220.035 234.607 219.768C234.36 219.498 234.02 219.363 233.588 219.363C233.293 219.363 233.03 219.427 232.8 219.555C232.573 219.683 232.392 219.87 232.259 220.117C232.128 220.362 232.063 220.657 232.063 221.004ZM240.576 218.345V219.367H237.001V218.345H240.576ZM237.96 216.777H239.234V222.968C239.234 223.215 239.271 223.402 239.344 223.527C239.418 223.649 239.513 223.732 239.63 223.778C239.749 223.821 239.879 223.842 240.018 223.842C240.12 223.842 240.21 223.835 240.286 223.821C240.363 223.806 240.423 223.795 240.465 223.786L240.695 224.839C240.621 224.867 240.516 224.896 240.38 224.924C240.244 224.955 240.073 224.973 239.869 224.975C239.533 224.981 239.221 224.921 238.931 224.796C238.641 224.671 238.407 224.478 238.228 224.217C238.049 223.955 237.96 223.627 237.96 223.232V216.777Z" fill="#191919"/>
</g>
<defs>
<filter id="filter0_d_214_924" x="31.0951" y="82.5673" width="236.984" height="59.342" filterUnits="userSpaceOnUse" color-interpolation-filters="sRGB">
<feFlood flood-opacity="0" result="BackgroundImageFix"/>
<feColorMatrix in="SourceAlpha" type="matrix" values="0 0 0 0 0 0 0 0 0 0 0 0 0 0 0 0 0 0 127 0" result="hardAlpha"/>
<feOffset dy="1.92045"/>
<feGaussianBlur stdDeviation="3.31278"/>
<feComposite in2="hardAlpha" operator="out"/>
<feColorMatrix type="matrix" values="0 0 0 0 0 0 0 0 0 0 0 0 0 0 0 0 0 0 0.07 0"/>
<feBlend mode="normal" in2="BackgroundImageFix" result="effect1_dropShadow_214_924"/>
<feBlend mode="normal" in="SourceGraphic" in2="effect1_dropShadow_214_924" result="shape"/>
</filter>
<filter id="filter1_d_214_924" x="139.122" y="139.221" width="236.984" height="59.342" filterUnits="userSpaceOnUse" color-interpolation-filters="sRGB">
<feFlood flood-opacity="0" result="BackgroundImageFix"/>
<feColorMatrix in="SourceAlpha" type="matrix" values="0 0 0 0 0 0 0 0 0 0 0 0 0 0 0 0 0 0 127 0" result="hardAlpha"/>
<feOffset dy="1.92045"/>
<feGaussianBlur stdDeviation="3.31278"/>
<feComposite in2="hardAlpha" operator="out"/>
<feColorMatrix type="matrix" values="0 0 0 0 0 0 0 0 0 0 0 0 0 0 0 0 0 0 0.07 0"/>
<feBlend mode="normal" in2="BackgroundImageFix" result="effect1_dropShadow_214_924"/>
<feBlend mode="normal" in="SourceGraphic" in2="effect1_dropShadow_214_924" result="shape"/>
</filter>
<filter id="filter2_d_214_924" x="103.594" y="27.8344" width="236.984" height="59.342" filterUnits="userSpaceOnUse" color-interpolation-filters="sRGB">
<feFlood flood-opacity="0" result="BackgroundImageFix"/>
<feColorMatrix in="SourceAlpha" type="matrix" values="0 0 0 0 0 0 0 0 0 0 0 0 0 0 0 0 0 0 127 0" result="hardAlpha"/>
<feOffset dy="1.92045"/>
<feGaussianBlur stdDeviation="3.31278"/>
<feComposite in2="hardAlpha" operator="out"/>
<feColorMatrix type="matrix" values="0 0 0 0 0 0 0 0 0 0 0 0 0 0 0 0 0 0 0.07 0"/>
<feBlend mode="normal" in2="BackgroundImageFix" result="effect1_dropShadow_214_924"/>
<feBlend mode="normal" in="SourceGraphic" in2="effect1_dropShadow_214_924" result="shape"/>
</filter>
<filter id="filter3_d_214_924" x="27.2553" y="192.994" width="236.984" height="59.342" filterUnits="userSpaceOnUse" color-interpolation-filters="sRGB">
<feFlood flood-opacity="0" result="BackgroundImageFix"/>
<feColorMatrix in="SourceAlpha" type="matrix" values="0 0 0 0 0 0 0 0 0 0 0 0 0 0 0 0 0 0 127 0" result="hardAlpha"/>
<feOffset dy="1.92045"/>
<feGaussianBlur stdDeviation="3.31278"/>
<feComposite in2="hardAlpha" operator="out"/>
<feColorMatrix type="matrix" values="0 0 0 0 0 0 0 0 0 0 0 0 0 0 0 0 0 0 0.07 0"/>
<feBlend mode="normal" in2="BackgroundImageFix" result="effect1_dropShadow_214_924"/>
<feBlend mode="normal" in="SourceGraphic" in2="effect1_dropShadow_214_924" result="shape"/>
</filter>
<linearGradient id="paint0_linear_214_924" x1="149.587" y1="87.2725" x2="149.587" y2="133.363" gradientUnits="userSpaceOnUse">
<stop stop-color="#EFF0FE"/>
<stop offset="1" stop-color="#EFF0FE" stop-opacity="0"/>
</linearGradient>
<linearGradient id="paint1_linear_214_924" x1="257.615" y1="143.926" x2="257.615" y2="190.017" gradientUnits="userSpaceOnUse">
<stop stop-color="#EFF0FE"/>
<stop offset="1" stop-color="#EFF0FE" stop-opacity="0"/>
</linearGradient>
<linearGradient id="paint2_linear_214_924" x1="145.747" y1="197.699" x2="145.747" y2="243.79" gradientUnits="userSpaceOnUse">
<stop stop-color="#EFF0FE"/>
<stop offset="1" stop-color="#EFF0FE" stop-opacity="0"/>
</linearGradient>
<clipPath id="clip0_214_924">
<rect width="400" height="280" fill="white" transform="translate(0 0.0800781)"/>
</clipPath>
<clipPath id="clip1_214_924">
<rect width="338" height="222.77" fill="white" transform="translate(31 28.7002)"/>
</clipPath>
<clipPath id="clip2_214_924">
<rect width="338" height="222.77" fill="white" transform="translate(31 28.7002)"/>
</clipPath>
<clipPath id="clip3_214_924">
<rect width="338" height="222.773" fill="white" transform="translate(31 28.6987)"/>
</clipPath>
<clipPath id="clip4_214_924">
<rect width="30" height="30" fill="white" transform="translate(45.7656 95.3179)"/>
</clipPath>
<clipPath id="clip5_214_924">
<rect width="30" height="30" fill="white" transform="translate(153.793 151.971)"/>
</clipPath>
<clipPath id="clip6_214_924">
<rect width="30" height="30" fill="white" transform="translate(41.9256 205.744)"/>
</clipPath>
</defs>
</svg>
