<svg width="78" height="79" viewBox="0 0 78 79" fill="none" xmlns="http://www.w3.org/2000/svg">
<g filter="url(#filter0_d_50_2639)">
<rect x="7" y="3.3125" width="64" height="64" rx="15" fill="#8474C7"/>
<path d="M34.625 33.5047C34.8151 33.395 34.9729 33.2371 35.0826 33.047C35.1923 32.857 35.25 32.6413 35.25 32.4219V21.1719C35.2489 20.9726 35.2001 20.7765 35.1078 20.5998C35.0155 20.4232 34.8823 20.2712 34.7193 20.1565C34.5563 20.0419 34.3682 19.9678 34.1708 19.9406C33.9734 19.9134 33.7723 19.9337 33.5844 20C29.9359 21.2913 26.8677 23.8416 24.9313 27.1926C22.9949 30.5436 22.3173 34.4754 23.0203 38.2812C23.0567 38.4781 23.1399 38.6632 23.2628 38.8212C23.3857 38.9792 23.5447 39.1053 23.7265 39.1891C23.8904 39.2657 24.0691 39.3052 24.25 39.3047C24.4694 39.3048 24.6849 39.2471 24.875 39.1375L34.625 33.5047ZM32.75 23.0656V31.7L25.2687 36.0172C25.25 35.7812 25.25 35.5438 25.25 35.3125C25.2522 32.7787 25.9536 30.2946 27.2769 28.1338C28.6001 25.973 30.494 24.2192 32.75 23.0656ZM39 19.0625C38.6685 19.0625 38.3505 19.1942 38.1161 19.4286C37.8817 19.663 37.75 19.981 37.75 20.3125V34.6594L25.4359 41.8328C25.293 41.9156 25.168 42.026 25.068 42.1574C24.968 42.2889 24.895 42.4389 24.8533 42.5987C24.8116 42.7585 24.802 42.925 24.825 43.0886C24.8481 43.2521 24.9033 43.4095 24.9875 43.5516C26.4308 46.0052 28.4933 48.0366 30.9685 49.4424C33.4437 50.8483 36.2449 51.5793 39.0914 51.5622C41.938 51.5451 44.7301 50.7806 47.1883 49.3451C49.6465 47.9097 51.6845 45.8536 53.0982 43.3829C54.512 40.9122 55.2519 38.1134 55.2439 35.2668C55.2359 32.4202 54.4802 29.6256 53.0526 27.1629C51.625 24.7001 49.5754 22.6556 47.1092 21.234C44.643 19.8124 41.8466 19.0636 39 19.0625ZM39 49.0625C36.8179 49.0567 34.6681 48.5343 32.7266 47.5382C30.7852 46.542 29.1071 45.1004 27.8297 43.3313L39.6297 36.4563C39.8195 36.3466 39.9772 36.1891 40.0869 35.9993C40.1966 35.8095 40.2544 35.5942 40.2547 35.375V21.6188C43.7803 21.9386 47.0468 23.606 49.3739 26.2738C51.7011 28.9415 52.9096 32.404 52.7479 35.9405C52.5862 39.4769 51.0668 42.8147 48.5059 45.259C45.9451 47.7033 42.5401 49.0657 39 49.0625Z" fill="white"/>
</g>
<defs>
<filter id="filter0_d_50_2639" x="0" y="0.3125" width="78" height="78" filterUnits="userSpaceOnUse" color-interpolation-filters="sRGB">
<feFlood flood-opacity="0" result="BackgroundImageFix"/>
<feColorMatrix in="SourceAlpha" type="matrix" values="0 0 0 0 0 0 0 0 0 0 0 0 0 0 0 0 0 0 127 0" result="hardAlpha"/>
<feOffset dy="4"/>
<feGaussianBlur stdDeviation="3.5"/>
<feComposite in2="hardAlpha" operator="out"/>
<feColorMatrix type="matrix" values="0 0 0 0 0.596078 0 0 0 0 0.509804 0 0 0 0 0.984314 0 0 0 0.3 0"/>
<feBlend mode="normal" in2="BackgroundImageFix" result="effect1_dropShadow_50_2639"/>
<feBlend mode="normal" in="SourceGraphic" in2="effect1_dropShadow_50_2639" result="shape"/>
</filter>
</defs>
</svg>
