<svg width="204" height="39" viewBox="0 0 204 39" fill="none" xmlns="http://www.w3.org/2000/svg">
<path d="M50.2606 39H31.4146L20.48 28.122H31.4146L25.1303 17.2405L0 39L21.2314 2.25801C21.6286 1.57138 22.1994 1.0013 22.8866 0.604966C23.5737 0.208636 24.353 0 25.1462 0C25.9395 0 26.7188 0.208636 27.4059 0.604966C28.0931 1.0013 28.6639 1.57138 29.0611 2.25801L50.2606 39Z" fill="url(#paint0_radial_50_2715)"/>
<path d="M65.7274 10.4723H69.0616L75.5146 28.5H72.6621L70.6971 23.0739H65.664L66.6275 20.4116H69.7336L67.4009 13.9713L62.1269 28.5H59.2744L65.7274 10.4723ZM77.8093 10.4723H87.3429C88.1627 10.4723 88.9065 10.6751 89.5742 11.0808C90.2503 11.4781 90.787 12.0105 91.1843 12.6782C91.5899 13.3459 91.7928 14.0897 91.7928 14.9095V16.7097C91.7928 17.5295 91.5942 18.2691 91.1969 18.9283C90.8081 19.5876 90.2757 20.1116 89.5995 20.5004C88.9234 20.8891 88.167 21.0835 87.3302 21.0835L92.7056 28.5H89.4474L84.0721 21.0835H82.0056V18.4212H87.3429C87.8416 18.4212 88.2642 18.2522 88.6107 17.9141C88.9572 17.5676 89.1305 17.1534 89.1305 16.6717V14.9095C89.1305 14.4193 88.9572 14.0009 88.6107 13.6544C88.2642 13.3079 87.8416 13.1346 87.3429 13.1346H80.4843V28.5H77.8093V10.4723ZM108.122 19.4861L101.593 10.4723H104.864L109.795 17.3056L114.714 10.4723H117.972L111.456 19.4861L117.972 28.5H114.714L109.795 21.654L104.864 28.5H101.593L108.122 19.4861ZM118.986 10.4723H133.667V13.1346H127.671V28.5H124.983V13.1346H118.986V10.4723ZM135.949 10.4723H138.612V23.4543C138.612 24.1135 138.844 24.6756 139.309 25.1404C139.774 25.6053 140.332 25.8377 140.982 25.8377H149.92V28.5H140.982C140.061 28.5 139.216 28.276 138.447 27.8281C137.686 27.3717 137.078 26.7632 136.621 26.0025C136.173 25.2334 135.949 24.384 135.949 23.4543V10.4723ZM157.387 10.4723H160.722L167.174 28.5H164.322L162.357 23.0739H157.324L158.287 20.4116H161.393L159.061 13.9713L153.787 28.5H150.934L157.387 10.4723ZM169.469 10.4723H178.965C179.801 10.4723 180.558 10.6709 181.234 11.0681C181.91 11.4654 182.447 11.9978 182.844 12.6655C183.25 13.3332 183.453 14.0812 183.453 14.9095V16.0885C183.453 17.2633 183.115 18.155 182.438 18.7635C183.039 19.1523 183.474 19.6171 183.744 20.1581C184.015 20.6905 184.15 21.3582 184.15 22.1611V24.1515C184.15 24.946 183.947 25.6729 183.541 26.3321C183.144 26.9914 182.607 27.5196 181.931 27.9168C181.255 28.3056 180.507 28.5 179.687 28.5H169.469V10.4723ZM179.713 25.825C180.203 25.825 180.621 25.6602 180.968 25.3306C181.314 24.9925 181.488 24.5868 181.488 24.1135V22.1231C181.488 21.6498 181.314 21.2441 180.968 20.906C180.621 20.568 180.199 20.3989 179.7 20.3989H173.665V17.7366H178.965C179.463 17.7366 179.89 17.576 180.245 17.2549C180.609 16.9252 180.79 16.528 180.79 16.0632V14.9095C180.79 14.4193 180.609 14.0009 180.245 13.6544C179.89 13.3079 179.463 13.1346 178.965 13.1346H172.144V25.825H179.713ZM187.066 14.8334C187.066 14.0305 187.264 13.2994 187.662 12.6402C188.067 11.9809 188.608 11.4569 189.284 11.0681C189.969 10.6709 190.721 10.4723 191.541 10.4723H200.872V13.1346H191.541C191.051 13.1346 190.628 13.3079 190.273 13.6544C189.918 14.0009 189.741 14.4193 189.741 14.9095V16.1519C189.741 16.5999 189.918 16.9844 190.273 17.3056C190.628 17.6267 191.051 17.7873 191.541 17.7873H197.284C198.112 17.7873 198.865 17.9859 199.541 18.3832C200.217 18.772 200.754 19.3002 201.151 19.9679C201.556 20.6271 201.759 21.3582 201.759 22.1611V24.1262C201.759 24.9291 201.556 25.6644 201.151 26.3321C200.754 26.9914 200.217 27.5196 199.541 27.9168C198.865 28.3056 198.112 28.5 197.284 28.5H187.078V25.825H197.284C197.783 25.825 198.205 25.6602 198.552 25.3306C198.907 24.9925 199.084 24.5868 199.084 24.1135V22.1738C199.084 21.7005 198.907 21.2948 198.552 20.9568C198.205 20.6187 197.783 20.4497 197.284 20.4497H191.541C190.721 20.4497 189.969 20.2595 189.284 19.8792C188.608 19.4904 188.067 18.9706 187.662 18.3198C187.264 17.669 187.066 16.9506 187.066 16.1646V14.8334Z" fill="#16AFD8"/>
<defs>
<radialGradient id="paint0_radial_50_2715" cx="0" cy="0" r="1" gradientUnits="userSpaceOnUse" gradientTransform="translate(11.4876 19.4983) scale(27.8241 27.8241)">
<stop stop-color="#16AFD8"/>
<stop offset="0.23" stop-color="#14A9D5"/>
<stop offset="0.52" stop-color="#0E9ACE"/>
<stop offset="0.85" stop-color="#0580C3"/>
<stop offset="1" stop-color="#0071BC"/>
</radialGradient>
</defs>
</svg>
